<svg width="1530" height="270" viewBox="0 0 1530 270" fill="none" xmlns="http://www.w3.org/2000/svg">
<path fill-rule="evenodd" clip-rule="evenodd" d="M0 159.702L22.95 150.511C45.9 141.319 91.8 122.936 137.7 122.936C183.6 122.936 233.325 141.319 279.225 136.723C325.125 132.128 371.025 104.553 416.925 86.1702C462.825 67.7872 508.725 58.5957 554.625 58.5957C604.35 58.5957 650.25 67.7872 696.15 81.5745C742.05 95.3617 787.95 113.745 833.85 99.9574C879.75 86.1702 925.65 40.2128 975.375 17.234C1021.28 -5.74468 1067.18 -5.74468 1113.08 17.234C1158.97 40.2128 1204.88 86.1702 1250.78 109.149C1296.68 132.128 1346.4 132.128 1392.3 118.34C1438.2 104.553 1484.1 76.9787 1507.05 63.1915L1530 49.4043V270H1507.05C1484.1 270 1438.2 270 1392.3 270C1346.4 270 1296.68 270 1250.78 270C1204.88 270 1158.97 270 1113.08 270C1067.18 270 1021.28 270 975.375 270C925.65 270 879.75 270 833.85 270C787.95 270 742.05 270 696.15 270C650.25 270 604.35 270 554.625 270C508.725 270 462.825 270 416.925 270C371.025 270 325.125 270 279.225 270C233.325 270 183.6 270 137.7 270C91.8 270 45.9 270 22.95 270H0V159.702Z" fill="url(#paint0_linear_1019_72)"/>
<defs>
<linearGradient id="paint0_linear_1019_72" x1="765" y1="0" x2="765" y2="270" gradientUnits="userSpaceOnUse">
<stop stop-color="#21B8CB"/>
<stop offset="0.541667" stop-color="#6CC3BB"/>
<stop offset="1" stop-color="#83C9B1"/>
</linearGradient>
</defs>
</svg>
