<svg width="734" height="594" viewBox="0 0 734 594" fill="none" xmlns="http://www.w3.org/2000/svg">
<g clip-path="url(#clip0_1053_2438)">
<path opacity="0.12" d="M734 576.304H0C8.04305 554.524 22.8959 536.046 43.8365 530.564C74.4649 522.556 106.878 544.576 137.438 536.297C154.8 531.598 168.469 517.904 182.833 506.533C237.017 463.628 311.273 450.948 375.39 473.657C408.903 485.522 439.446 506.27 473.779 515.091C518.176 526.501 564.605 517.039 610.262 515.48C654.73 513.963 718.441 533.203 734 576.304Z" fill="#21B8CB"/>
<path d="M537.015 0H169.072V477.409H537.015V0Z" fill="#DEE8F5"/>
<path d="M506.113 308.717H356.331V354.246H506.113V308.717Z" fill="#21B8CB"/>
<path d="M353.043 73.584H195.689V171.509H353.043V73.584Z" fill="#B1D89F"/>
<path d="M343.141 292.526H205.933V395.94H343.141V292.526Z" fill="#C1D8ED"/>
<path d="M222.565 364.775L246.76 343.718L274.176 364.775H222.565Z" fill="white"/>
<path d="M251.054 364.776L294.098 333.857L326.509 364.776H251.054Z" fill="white"/>
<path d="M265.079 334.393C268.034 334.393 270.429 331.997 270.429 329.042C270.429 326.086 268.034 323.69 265.079 323.69C262.124 323.69 259.729 326.086 259.729 329.042C259.729 331.997 262.124 334.393 265.079 334.393Z" fill="white"/>
<path d="M343.141 34.5054H205.933V44.2856H343.141V34.5054Z" fill="white"/>
<path d="M343.141 58.6245H205.933V68.4047H343.141V58.6245Z" fill="white"/>
<path d="M343.141 82.7432H205.933V92.5234H343.141V82.7432Z" fill="white"/>
<path d="M343.141 104.364H205.933V114.144H343.141V104.364Z" fill="white"/>
<path d="M343.141 127.72H205.933V137.5H343.141V127.72Z" fill="white"/>
<path d="M343.141 151.839H205.933V161.619H343.141V151.839Z" fill="white"/>
<path d="M343.141 175.958H205.933V185.738H343.141V175.958Z" fill="white"/>
<path d="M343.141 197.578H205.933V207.358H343.141V197.578Z" fill="white"/>
<path d="M343.141 220.933H205.933V230.713H343.141V220.933Z" fill="white"/>
<path d="M343.141 245.052H205.933V254.832H343.141V245.052Z" fill="white"/>
<path d="M343.141 269.171H205.933V278.951H343.141V269.171Z" fill="white"/>
<path d="M343.141 410.832H205.933V420.612H343.141V410.832Z" fill="white"/>
<path d="M343.141 434.951H205.933V444.731H343.141V434.951Z" fill="white"/>
<path d="M499.518 36.0088H362.31V139.423H499.518V36.0088Z" fill="#C1D8ED"/>
<path d="M378.942 108.258L403.137 87.2007L430.553 108.258H378.942Z" fill="white"/>
<path d="M407.431 108.259L450.475 77.3413L482.886 108.259H407.431Z" fill="white"/>
<path d="M421.456 77.8757C424.411 77.8757 426.806 75.4799 426.806 72.5245C426.806 69.5692 424.411 67.1733 421.456 67.1733C418.501 67.1733 416.106 69.5692 416.106 72.5245C416.106 75.4799 418.501 77.8757 421.456 77.8757Z" fill="white"/>
<path d="M499.518 150.965H362.31V160.745H499.518V150.965Z" fill="white"/>
<path d="M499.518 175.084H362.31V184.864H499.518V175.084Z" fill="white"/>
<path d="M499.518 199.203H362.31V208.983H499.518V199.203Z" fill="white"/>
<path d="M499.518 220.824H362.31V230.604H499.518V220.824Z" fill="white"/>
<path d="M499.518 244.178H362.31V253.958H499.518V244.178Z" fill="white"/>
<path d="M499.518 268.297H362.31V278.078H499.518V268.297Z" fill="white"/>
<path d="M499.518 292.416H362.31V302.196H499.518V292.416Z" fill="white"/>
<path d="M499.518 314.037H362.31V323.817H499.518V314.037Z" fill="white"/>
<path d="M499.518 337.392H362.31V347.172H499.518V337.392Z" fill="white"/>
<path d="M499.518 361.511H362.31V371.291H499.518V361.511Z" fill="white"/>
<path d="M499.518 385.629H362.31V395.41H499.518V385.629Z" fill="white"/>
<path d="M499.518 410.832H362.31V420.612H499.518V410.832Z" fill="white"/>
<path d="M499.518 434.951H362.31V444.731H499.518V434.951Z" fill="white"/>
<path d="M386.034 574.309H435.68V521.201H386.034V574.309Z" fill="#D7E8F4"/>
<path d="M370.655 574.309H420.301V521.201H370.655V574.309Z" fill="white"/>
<path d="M385.119 533.861V544.225V576.303H439.458V544.225V533.861H385.119Z" fill="#C1D8ED"/>
<path d="M422.973 533.861H368.634V576.303H422.973V533.861Z" fill="#DEE8F5"/>
<path d="M422.973 533.861H368.634V537.043H422.973V533.861Z" fill="#C1D8ED"/>
<path d="M401.501 542.385H390.106C389.235 542.385 388.529 543.092 388.529 543.963V547.18C388.529 548.052 389.235 548.758 390.106 548.758H401.501C402.372 548.758 403.078 548.052 403.078 547.18V543.963C403.078 543.092 402.372 542.385 401.501 542.385Z" fill="white"/>
<path d="M385.01 524.71L438.989 530.962L440.181 520.667L386.202 514.415L385.01 524.71Z" fill="#C1D8ED"/>
<path d="M368.634 522.813L422.612 529.065L423.804 518.77L369.826 512.518L368.634 522.813Z" fill="#DEE8F5"/>
<path d="M388.482 529.242H370.655C369.7 530.039 368.998 531.097 368.634 532.286C368.634 532.286 374.786 530.412 388.482 529.242Z" fill="#DEE8F5"/>
<path d="M119.982 249.476C119.982 249.476 126.122 246.22 124.752 229.495L137.436 227.142C137.436 227.142 136.011 242.137 142.43 246.898L119.982 249.476Z" fill="#E98862"/>
<g opacity="0.15">
<path d="M139.832 243.763L129.292 235.699L137.571 235.613C137.81 238.447 138.578 241.211 139.832 243.763V243.763Z" fill="black"/>
</g>
<path d="M117.553 223.012C118.431 228.087 121.199 232.892 125.674 234.529C130.987 236.475 134.922 236.607 141.047 236.607C149.406 236.607 149.129 227.888 149.364 219.102C149.603 210.28 148.899 200.819 145.595 197.745C139.004 191.609 119.648 195.494 117.294 205.757C116.074 211.063 116.717 218.18 117.553 223.012Z" fill="#E98862"/>
<path d="M153.844 202.843C153.844 202.843 157.268 202.078 156.33 198.664C155.709 196.4 152.809 196.903 152.809 196.903C152.809 196.903 155.555 196.4 155.555 194.002C155.555 192.493 154.394 189.932 150.892 191.395C146.783 193.111 142.098 192.89 138.535 192.292C136.519 191.85 134.473 191.561 132.414 191.427H132.403C130.036 191.385 127.677 191.701 125.404 192.363C119.035 194.269 109.396 199.981 111.445 212.93C113.732 227.381 120.512 232.908 123.495 234.681C123.672 234.787 123.87 234.852 124.075 234.871C124.281 234.889 124.487 234.861 124.68 234.787C124.873 234.714 125.046 234.598 125.187 234.448C125.328 234.298 125.434 234.118 125.495 233.921C126.341 231.213 127.798 224.398 127.391 210.345C146.968 209.384 152.6 209.093 152.6 209.093C152.6 209.093 157.206 209.266 157.206 205.899C157.206 202.532 153.844 202.843 153.844 202.843Z" fill="#0F1011"/>
<path d="M137.421 219.101C138.057 219.101 138.572 218.585 138.572 217.95C138.572 217.314 138.057 216.799 137.421 216.799C136.786 216.799 136.271 217.314 136.271 217.95C136.271 218.585 136.786 219.101 137.421 219.101Z" fill="#0F1011"/>
<path d="M146.499 218.357C147.135 218.357 147.65 217.841 147.65 217.206C147.65 216.57 147.135 216.055 146.499 216.055C145.864 216.055 145.349 216.57 145.349 217.206C145.349 217.841 145.864 218.357 146.499 218.357Z" fill="#0F1011"/>
<path d="M148.494 214.753H148.486L145.438 214.715C145.298 214.709 145.166 214.648 145.07 214.547C144.973 214.446 144.92 214.311 144.921 214.171C144.922 214.031 144.977 213.897 145.075 213.797C145.172 213.697 145.305 213.638 145.445 213.634H145.452L148.501 213.672C148.64 213.678 148.772 213.738 148.869 213.84C148.965 213.941 149.018 214.076 149.018 214.216C149.017 214.356 148.962 214.49 148.864 214.59C148.766 214.69 148.633 214.749 148.494 214.753V214.753Z" fill="#0F1011"/>
<path d="M134.937 215.865C134.805 215.865 134.678 215.816 134.579 215.728C134.48 215.64 134.417 215.519 134.402 215.387C134.386 215.256 134.419 215.124 134.495 215.015C134.571 214.906 134.683 214.829 134.812 214.798L137.817 214.076C137.887 214.057 137.959 214.053 138.031 214.063C138.102 214.073 138.171 214.097 138.232 214.134C138.294 214.171 138.348 214.22 138.391 214.278C138.433 214.336 138.464 214.402 138.481 214.472C138.498 214.542 138.5 214.615 138.489 214.686C138.477 214.757 138.451 214.825 138.413 214.886C138.375 214.947 138.325 215 138.266 215.041C138.207 215.083 138.14 215.112 138.069 215.127L135.064 215.85C135.023 215.86 134.98 215.865 134.937 215.865Z" fill="#0F1011"/>
<path d="M131.435 220.767C131.558 222.055 131.165 223.339 130.342 224.338C129.518 225.336 128.332 225.966 127.044 226.09C125.756 226.213 124.472 225.82 123.474 224.996C122.476 224.173 121.846 222.987 121.723 221.698C121.719 221.653 121.715 221.607 121.711 221.561C121.586 220.295 121.968 219.031 122.775 218.047C123.581 217.062 124.745 216.439 126.011 216.313C126.066 216.307 126.12 216.303 126.174 216.3C129.654 216.189 131.215 218.081 131.435 220.767Z" fill="#E98862"/>
<g opacity="0.15">
<path d="M142.529 224.335C142.434 224.335 142.342 224.3 142.27 224.238C142.198 224.176 142.151 224.09 142.137 223.996C142.123 223.902 142.143 223.806 142.194 223.726C142.245 223.645 142.323 223.586 142.413 223.558L144.753 222.843L143.115 219.196C143.093 219.149 143.081 219.097 143.079 219.045C143.077 218.992 143.085 218.94 143.103 218.89C143.122 218.841 143.15 218.796 143.186 218.758C143.222 218.719 143.265 218.688 143.313 218.667C143.361 218.645 143.412 218.633 143.465 218.632C143.517 218.631 143.57 218.64 143.619 218.659C143.668 218.678 143.713 218.706 143.75 218.742C143.788 218.779 143.819 218.822 143.84 218.871L145.662 222.927C145.685 222.978 145.697 223.034 145.697 223.09C145.697 223.147 145.685 223.202 145.662 223.254C145.639 223.305 145.605 223.351 145.563 223.388C145.52 223.425 145.471 223.453 145.417 223.47L142.647 224.32C142.609 224.331 142.569 224.336 142.529 224.335V224.335Z" fill="black"/>
</g>
<path d="M137.953 227.011C137.953 227.011 142.201 227.459 145.18 226.418C145.18 226.418 145.156 229.217 141.794 229.492C138.433 229.768 137.953 227.011 137.953 227.011Z" fill="white"/>
<path d="M205.574 249.534C205.574 249.534 205.693 239.995 212.511 240.49C216.812 240.803 237.249 239.855 237.553 241.717C238.306 246.324 219.612 247.45 217.915 251.743L205.574 249.534Z" fill="#E98862"/>
<path d="M210.094 240.796C210.094 240.796 219.583 237.703 221.915 238.254C223.98 238.744 219.676 242.107 219.676 242.107L210.094 240.796Z" fill="#E98862"/>
<path d="M204.984 567.708L188.423 565.74C189.169 559.47 190.012 551.94 190.069 550.705C190.069 550.784 190.069 550.849 190.069 550.899H206.746C206.742 551.399 206.742 552.921 204.984 567.708Z" fill="#E98862"/>
<path d="M130.592 569.702L113.916 569.648C113.916 569.648 113.971 552.424 113.971 550.903H130.648C130.648 552.429 130.592 569.702 130.592 569.702Z" fill="#E98862"/>
<path d="M182.147 565.57L210.744 558.818C192.232 486.112 176.697 411.907 161.644 338.424L161.432 338.486L160.812 334.253L100.396 330.52C100.396 330.52 98.7835 360.116 98.8732 369.991C99.1425 399.472 105.757 499.019 109.585 563.482L138.929 561.979C137.202 499.467 134.127 436.865 134.462 374.337C152.034 437.597 167.971 501.531 182.147 565.57Z" fill="#262626"/>
<path d="M150.866 575.962C151.731 575.958 152.559 575.61 153.168 574.995C153.776 574.38 154.116 573.549 154.112 572.684C154.112 572.604 154.109 572.525 154.103 572.445C154.054 571.826 153.83 571.232 153.456 570.736C153.082 570.239 152.574 569.859 151.992 569.642L132.581 563.139C132.205 563.015 131.806 562.973 131.412 563.017C131.019 563.061 130.639 563.189 130.3 563.393C127.631 565.245 124.439 566.192 121.193 566.093C118.664 565.914 116.237 565.027 114.188 563.534C114.008 563.386 113.79 563.293 113.559 563.265C113.327 563.236 113.093 563.274 112.882 563.374C112.672 563.474 112.494 563.632 112.37 563.829C112.246 564.026 112.18 564.254 112.181 564.487V573.981C112.181 574.545 112.405 575.086 112.804 575.485C113.202 575.884 113.743 576.108 114.307 576.108H114.316L150.866 575.962Z" fill="#91C3E8"/>
<path d="M225.303 576.158C226.168 576.154 226.996 575.806 227.605 575.191C228.214 574.577 228.554 573.745 228.55 572.88C228.55 572.801 228.546 572.721 228.54 572.642C228.492 572.022 228.268 571.428 227.893 570.931C227.519 570.435 227.011 570.055 226.428 569.838L207.018 563.336C206.642 563.211 206.243 563.169 205.85 563.213C205.456 563.257 205.076 563.385 204.736 563.589C202.068 565.441 198.876 566.388 195.63 566.29C193.101 566.11 190.674 565.223 188.625 563.73C188.445 563.583 188.227 563.489 187.995 563.461C187.764 563.432 187.53 563.47 187.319 563.57C187.109 563.67 186.931 563.828 186.807 564.025C186.683 564.222 186.617 564.451 186.618 564.684V574.177C186.618 574.456 186.673 574.733 186.78 574.991C186.886 575.249 187.043 575.483 187.24 575.681C187.438 575.878 187.672 576.035 187.93 576.142C188.188 576.249 188.464 576.304 188.743 576.304H188.754L225.303 576.158Z" fill="#91C3E8"/>
<path d="M204.77 243.961L187.656 275.919L162.052 251.965C160.876 250.13 159.26 248.618 157.352 247.566L157.23 247.453L157.201 247.484C154.309 246.03 151.123 245.257 147.887 245.224C147.386 245.2 146.584 245.184 145.552 245.168C145.345 249.537 118.297 249.521 117.725 245.065C110.086 245.073 103.82 247.416 100.191 251.046C87.6828 263.556 103.034 284.875 103.034 301.556C103.034 318.236 95.4892 325.718 96.0451 334.281C96.9187 347.736 162.3 344.559 165.627 336.91C167.575 332.436 166.172 328.932 164.653 322.025L180.167 321.548L179.64 304.237L162.486 304.76C162.412 302.785 162.38 300.67 162.407 298.383C162.486 291.648 163.619 284.172 164.406 277.001L184.189 295.509C185.122 296.382 186.244 297.029 187.467 297.399C188.69 297.77 189.982 297.854 191.243 297.646C192.503 297.438 193.7 296.943 194.739 296.199C195.778 295.455 196.632 294.482 197.235 293.355L219.471 251.829L204.77 243.961Z" fill="#91C3E8"/>
<path d="M145.556 245.168C145.349 249.537 142.975 255.963 135.645 256.447C125.877 257.091 118.301 249.521 117.729 245.065H117.753C127.37 245.065 139.949 245.081 145.556 245.168Z" fill="#E98862"/>
<path d="M176.083 262.949L166.44 303.435C166.29 304.065 166.285 304.721 166.425 305.353C166.564 305.986 166.845 306.578 167.247 307.086C167.648 307.595 168.159 308.005 168.742 308.288C169.324 308.57 169.964 308.717 170.611 308.717H227.459C228.398 308.717 229.311 308.408 230.058 307.839C230.805 307.269 231.344 306.47 231.593 305.564L242.704 265.077C242.878 264.441 242.903 263.773 242.777 263.125C242.652 262.478 242.378 261.868 241.978 261.343C241.578 260.818 241.062 260.393 240.471 260.1C239.88 259.808 239.229 259.655 238.57 259.655H180.254C179.29 259.655 178.354 259.98 177.597 260.578C176.84 261.175 176.307 262.011 176.083 262.949Z" fill="#9EBCEA"/>
<path d="M146.202 303.677H214.91C215.241 303.677 215.568 303.742 215.874 303.869C216.179 303.996 216.457 304.181 216.691 304.415C216.925 304.649 217.111 304.927 217.237 305.233C217.364 305.538 217.429 305.866 217.429 306.197V306.197C217.429 306.865 217.163 307.506 216.691 307.978C216.219 308.451 215.578 308.716 214.91 308.716H146.202C145.534 308.716 144.893 308.451 144.42 307.978C143.948 307.506 143.683 306.865 143.683 306.197V306.197C143.683 305.866 143.748 305.538 143.874 305.233C144.001 304.927 144.187 304.649 144.42 304.415C144.654 304.181 144.932 303.996 145.238 303.869C145.543 303.742 145.871 303.677 146.202 303.677V303.677Z" fill="#9EBCEA"/>
<path d="M206.9 290.51C210.613 290.51 213.623 287.499 213.623 283.786C213.623 280.072 210.613 277.061 206.9 277.061C203.187 277.061 200.177 280.072 200.177 283.786C200.177 287.499 203.187 290.51 206.9 290.51Z" fill="white"/>
<path d="M193.952 314.031C190.387 316.231 184.867 317.272 180.054 317.653L179.784 308.884C182.048 308.82 185.527 308.582 188.933 308.717C190.473 307.461 191.359 307.089 192.938 305.508C194.621 303.826 199.035 302.815 199.868 305.508C200.701 308.201 197.081 312.093 193.952 314.031Z" fill="#E98862"/>
<path d="M252.038 215.961H255.178V192.189H252.038V215.961Z" fill="#B1D89F"/>
<path d="M258.965 193.759V190.619H248.252V193.759H258.965Z" fill="#B1D89F"/>
<path d="M258.965 216.935V213.795H248.252V216.935H258.965Z" fill="#B1D89F"/>
<path d="M322.25 211.249H263.996V234.96H322.25V211.249Z" fill="#B1D89F"/>
<path d="M449.318 378.795H446.179V402.567H449.318V378.795Z" fill="#21B8CB"/>
<path d="M453.105 380.366V377.226H442.391V380.366H453.105Z" fill="#21B8CB"/>
<path d="M453.105 403.541V400.401H442.391V403.541H453.105Z" fill="#21B8CB"/>
<path d="M379.107 421.567H437.361V397.855H379.107V421.567Z" fill="#21B8CB"/>
<path d="M517.626 403.641C517.626 403.641 511.607 425.214 508.225 436.408C508.064 436.938 508.03 437.499 508.125 438.045C508.22 438.591 508.442 439.107 508.773 439.552C509.103 439.996 509.533 440.357 510.029 440.606C510.524 440.854 511.071 440.983 511.625 440.982H532.749C533.662 440.982 534.539 440.631 535.199 440.001C535.86 439.371 536.252 438.511 536.296 437.599L537.72 407.569L517.626 403.641Z" fill="#0F1011"/>
<path d="M550 451.628C550 451.628 543.856 448.377 545.212 431.65L532.523 429.309C532.523 429.309 533.962 444.303 527.547 449.069L550 451.628Z" fill="#E98862"/>
<path opacity="0.15" d="M530.144 445.933L540.677 437.858L532.399 437.778C532.162 440.613 531.397 443.379 530.144 445.933Z" fill="black"/>
<path d="M552.404 425.159C551.531 430.234 548.766 435.042 544.292 436.684C539.416 438.627 534.139 439.345 528.921 438.776C515.031 437.65 517.75 406.059 524.339 399.918C530.928 393.776 550.284 397.645 552.647 407.905C553.871 413.211 553.237 420.332 552.404 425.159Z" fill="#E98862"/>
<path d="M532.532 421.268C533.168 421.268 533.683 420.753 533.683 420.117C533.683 419.482 533.168 418.966 532.532 418.966C531.897 418.966 531.381 419.482 531.381 420.117C531.381 420.753 531.897 421.268 532.532 421.268Z" fill="#0F1011"/>
<path d="M523.453 420.532C524.089 420.532 524.604 420.017 524.604 419.381C524.604 418.745 524.089 418.23 523.453 418.23C522.818 418.23 522.303 418.745 522.303 419.381C522.303 420.017 522.818 420.532 523.453 420.532Z" fill="#0F1011"/>
<path d="M524.506 416.348L521.457 416.389" stroke="#0F1011" stroke-width="1.362" stroke-miterlimit="10" stroke-linecap="round"/>
<path d="M535.013 417.489L532.007 416.769" stroke="#0F1011" stroke-width="1.362" stroke-miterlimit="10" stroke-linecap="round"/>
<path d="M532.008 429.182C532.008 429.182 527.761 429.634 524.781 428.596C524.781 428.596 524.807 431.394 528.169 431.667C531.531 431.94 532.008 429.182 532.008 429.182Z" fill="white"/>
<g opacity="0.15">
<path d="M527.43 426.506C527.525 426.507 527.618 426.473 527.69 426.411C527.763 426.348 527.811 426.262 527.825 426.168C527.839 426.073 527.818 425.977 527.767 425.896C527.716 425.815 527.637 425.756 527.546 425.729L525.205 425.014L526.84 421.366C526.864 421.318 526.878 421.265 526.881 421.212C526.884 421.158 526.876 421.105 526.858 421.054C526.84 421.004 526.812 420.958 526.776 420.918C526.74 420.879 526.696 420.848 526.647 420.826C526.598 420.804 526.545 420.792 526.491 420.791C526.438 420.79 526.385 420.8 526.335 420.82C526.285 420.84 526.24 420.87 526.203 420.908C526.165 420.946 526.135 420.992 526.116 421.041L524.114 425.51L527.313 426.49C527.351 426.501 527.39 426.507 527.43 426.506Z" fill="black"/>
</g>
<path d="M516.906 406.227C516.906 406.227 518.94 389.775 545.297 393.815C551.867 394.823 561.179 399.954 562.688 416.771C563.377 424.485 566.036 431.758 568.065 436.362C568.305 436.903 568.406 437.495 568.359 438.084C568.312 438.674 568.119 439.242 567.797 439.738C567.475 440.234 567.034 440.642 566.515 440.924C565.995 441.207 565.413 441.355 564.822 441.355L546.295 441.361C545.829 441.362 545.368 441.271 544.938 441.094C544.507 440.917 544.116 440.656 543.786 440.327C543.456 439.999 543.195 439.608 543.016 439.179C542.837 438.749 542.744 438.288 542.743 437.822C542.743 437.77 542.743 437.718 542.743 437.663C542.877 434.509 542.982 429.169 542.802 421.007C541.839 416.348 544.405 413.064 540.68 414.134C526.847 418.104 517.938 406.493 516.906 406.227Z" fill="#0F1011"/>
<path d="M538.348 425.073C538.296 425.711 538.37 426.354 538.567 426.964C538.764 427.574 539.078 428.139 539.493 428.627C539.908 429.115 540.415 429.517 540.985 429.809C541.555 430.102 542.177 430.279 542.816 430.33C543.455 430.382 544.097 430.308 544.707 430.111C545.317 429.915 545.882 429.6 546.37 429.185C546.858 428.77 547.26 428.263 547.552 427.693C547.844 427.122 548.021 426.5 548.073 425.861C548.197 424.595 547.813 423.332 547.005 422.348C546.198 421.365 545.033 420.743 543.767 420.619C543.713 420.613 543.659 420.609 543.608 420.605C540.127 420.491 538.565 422.386 538.348 425.073Z" fill="#E98862"/>
<path d="M499.748 574.089C498.239 573.835 481.217 570.927 481.217 570.927L484.024 554.485C484.024 554.485 501 557.385 502.503 557.638L499.748 574.089Z" fill="#094C83"/>
<path d="M471.506 589.863C471.434 590.306 471.454 590.759 471.565 591.194C471.675 591.628 471.875 592.036 472.15 592.39C472.425 592.744 472.77 593.038 473.164 593.252C473.558 593.467 473.992 593.598 474.439 593.638C475.058 593.692 475.68 593.569 476.231 593.282C476.783 592.995 477.241 592.557 477.552 592.018L487.169 573.944C487.354 573.594 487.461 573.208 487.483 572.812C487.505 572.417 487.442 572.021 487.296 571.652C485.91 568.714 485.504 565.409 486.137 562.222C486.732 559.757 488.007 557.509 489.818 555.735C489.993 555.581 490.121 555.381 490.187 555.158C490.253 554.934 490.254 554.697 490.19 554.472C490.126 554.248 490 554.047 489.826 553.892C489.652 553.737 489.438 553.635 489.208 553.597L479.847 552.029C479.571 551.983 479.289 551.992 479.016 552.055C478.743 552.118 478.485 552.235 478.258 552.398C478.03 552.561 477.837 552.767 477.689 553.005C477.541 553.243 477.442 553.508 477.397 553.785L471.506 589.863Z" fill="#094C83"/>
<path d="M552.444 529.97C559.508 530.264 566.703 530.471 573.897 530.649L584.71 530.887L595.511 531.082L596.587 531.101C601.048 531.185 605.311 532.957 608.517 536.061C611.723 539.164 613.633 543.368 613.862 547.825C614.092 552.281 612.623 556.659 609.753 560.075C606.882 563.492 602.824 565.693 598.395 566.234L491.663 579.197L487.314 547.647L593.57 531.241L596.454 566.394L585.488 567.102L574.529 567.765C567.211 568.188 559.89 568.584 552.438 568.89L552.444 529.97Z" fill="#262626"/>
<path d="M579.367 567.532C564.633 565.387 563.167 564.99 562.681 564.864L567.016 548.756C566.967 548.744 566.903 548.726 566.826 548.709C568.034 548.973 575.523 550.117 581.769 551.026L579.367 567.532Z" fill="#094C83"/>
<path d="M597.774 581.87C597.929 582.291 597.995 582.739 597.969 583.187C597.942 583.635 597.824 584.073 597.621 584.473C597.418 584.873 597.135 585.227 596.789 585.512C596.443 585.798 596.042 586.009 595.611 586.132V586.132C595.013 586.303 594.379 586.3 593.783 586.123C593.188 585.946 592.655 585.603 592.247 585.133L579.374 569.214C579.126 568.905 578.949 568.546 578.853 568.162C578.757 567.779 578.745 567.378 578.818 566.99C579.62 563.842 579.392 560.52 578.167 557.511C577.115 555.204 575.436 553.239 573.322 551.841C573.121 551.723 572.957 551.551 572.85 551.344C572.743 551.137 572.697 550.904 572.717 550.672C572.737 550.44 572.823 550.218 572.964 550.033C573.106 549.848 573.297 549.707 573.515 549.626L582.41 546.309C582.672 546.211 582.951 546.166 583.231 546.177C583.511 546.187 583.786 546.253 584.04 546.37C584.294 546.486 584.523 546.652 584.713 546.858C584.903 547.063 585.051 547.305 585.148 547.567L597.774 581.87Z" fill="#094C83"/>
<path d="M528.745 566.031C524.272 565.65 519.802 565.375 515.332 565.117C510.862 564.879 506.392 564.641 501.924 564.482L495.222 564.224L488.52 564.031C484.052 563.881 479.586 563.82 475.12 563.735L476.668 531.638C485.029 532.808 493.402 533.882 501.772 534.983C510.142 536.084 518.521 537.098 526.899 538.129L539.473 539.611L552.055 541.021C560.449 541.924 568.842 542.82 577.254 543.558L573.563 575.195C565.207 573.977 556.833 572.916 548.458 571.859L535.888 570.334L523.311 568.881C514.921 567.955 506.532 567.013 498.136 566.155C489.741 565.296 481.343 564.416 472.937 563.628C468.906 563.249 465.166 561.362 462.467 558.344C459.767 555.326 458.306 551.399 458.376 547.35C458.447 543.301 460.043 539.428 462.846 536.505C465.648 533.583 469.451 531.826 473.493 531.588L474.487 531.531C478.947 531.27 483.407 531.031 487.866 530.707L494.554 530.248L501.242 529.726C505.7 529.39 510.157 528.973 514.613 528.56C519.07 528.126 523.526 527.674 527.98 527.117L528.745 566.031Z" fill="#262626"/>
<path d="M568.672 525.097L571.023 564.578L503.132 563.78L508.256 528.826L568.672 525.097Z" fill="#262626"/>
<path d="M591.335 516.17L573.343 460.376C572.599 457.471 571.049 454.835 568.874 452.772C565.244 449.142 558.979 446.798 551.339 446.791C550.767 451.247 523.719 451.262 523.512 446.894C522.48 446.91 521.678 446.926 521.178 446.949C510.25 447.42 505.851 451.627 504.455 457.96L481.517 513.474C480.955 514.834 480.762 516.318 480.959 517.776C481.156 519.234 481.735 520.614 482.637 521.776C483.539 522.937 484.732 523.84 486.095 524.392C487.459 524.944 488.944 525.125 490.4 524.917L502.931 523.131C502.314 526.253 502.217 528.681 503.437 531.487C506.764 539.136 572.146 542.313 573.019 528.858C573.028 528.726 573.029 528.595 573.033 528.46L583.897 527.45C585.189 527.33 586.436 526.922 587.549 526.255C588.661 525.588 589.609 524.679 590.323 523.596C591.037 522.514 591.499 521.284 591.674 519.999C591.849 518.714 591.733 517.406 591.335 516.171V516.17ZM502.509 506.341L506.655 496.306C506.609 499.896 506.417 503.045 506.141 505.824L502.509 506.341ZM571.541 511.207L568.37 511.502C566.808 506.529 566.019 501.345 566.031 496.132C566.031 495.524 566.057 494.921 566.095 494.32L571.541 511.207Z" fill="#094C83"/>
<path d="M546.087 473.482L548.893 515.325C548.926 515.818 548.858 516.313 548.692 516.779C548.526 517.244 548.266 517.671 547.928 518.032C547.591 518.393 547.183 518.681 546.729 518.878C546.276 519.075 545.787 519.177 545.293 519.177H486.862C485.969 519.177 485.108 518.846 484.445 518.248C483.782 517.649 483.364 516.827 483.272 515.938L478.946 474.098C478.894 473.595 478.948 473.087 479.105 472.607C479.262 472.126 479.518 471.684 479.856 471.309C480.195 470.934 480.608 470.633 481.07 470.428C481.532 470.223 482.031 470.117 482.536 470.117H542.484C543.4 470.116 544.281 470.464 544.95 471.088C545.618 471.713 546.025 472.569 546.087 473.482Z" fill="#9EBCEA"/>
<path d="M491.742 519.179H553.134C554.525 519.179 555.653 518.051 555.653 516.66C555.653 515.268 554.525 514.14 553.134 514.14H491.742C490.351 514.14 489.223 515.268 489.223 516.66C489.223 518.051 490.351 519.179 491.742 519.179Z" fill="#9EBCEA"/>
<path d="M512.373 500.208C515.443 500.208 517.932 497.719 517.932 494.648C517.932 491.577 515.443 489.088 512.373 489.088C509.303 489.088 506.814 491.577 506.814 494.648C506.814 497.719 509.303 500.208 512.373 500.208Z" fill="white"/>
<path d="M520.382 524.493C523.947 526.693 529.467 527.734 534.279 528.115L534.549 519.346C532.286 519.282 528.808 519.044 525.401 519.179C523.862 517.924 522.975 517.551 521.395 515.97C519.713 514.288 515.299 513.277 514.465 515.97C513.632 518.663 517.253 522.555 520.382 524.493Z" fill="#E98862"/>
<path d="M523.512 446.893C523.719 451.261 526.093 457.687 533.423 458.172C543.191 458.815 550.767 451.246 551.339 446.79H551.315C541.698 446.794 529.119 446.805 523.512 446.893Z" fill="#E98862"/>
</g>
<defs>
<clipPath id="clip0_1053_2438">
<rect width="734" height="594" fill="white"/>
</clipPath>
</defs>
</svg>
