<svg id="Layer_1" data-name="Layer 1" xmlns="http://www.w3.org/2000/svg" xmlns:xlink="http://www.w3.org/1999/xlink" viewBox="0 0 5396.04752 1925.64833"><defs><style>.cls-1{font-size:259.13174px;font-family:ProductSans-Black, Product Sans Black;font-weight:800;letter-spacing:0.05em;}.cls-1,.cls-13,.cls-14,.cls-21{fill:none;}.cls-2{letter-spacing:0.01501em;}.cls-3{letter-spacing:0.04001em;}.cls-4{letter-spacing:0.05em;}.cls-5{fill:#205f88;}.cls-6{clip-path:url(#clip-path);}.cls-7{fill:url(#linear-gradient);}.cls-8{font-size:80px;fill:#26b6ca;stroke:#26b6ca;stroke-width:3px;font-family:ProductSans-Regular, Product Sans;}.cls-13,.cls-14,.cls-21,.cls-8{stroke-miterlimit:10;}.cls-9{letter-spacing:-0.01em;}.cls-10{letter-spacing:-0.02999em;}.cls-11{letter-spacing:-0.07em;}.cls-12{letter-spacing:-0.06499em;}.cls-13,.cls-14,.cls-21{stroke:#000;}.cls-13{stroke-width:0.76932px;}.cls-14{stroke-width:1.05906px;}.cls-15{fill:#65c2d2;}.cls-16{fill:url(#linear-gradient-2);}.cls-17{fill:url(#linear-gradient-3);}.cls-18{fill:url(#linear-gradient-4);}.cls-19{fill:url(#linear-gradient-5);}.cls-20{fill:url(#linear-gradient-6);}.cls-21{stroke-width:1.4917px;}.cls-22{fill:url(#linear-gradient-7);}</style><clipPath id="clip-path"><text class="cls-1" transform="translate(2363.40452 989.50588)">E<tspan class="cls-2" x="167.39746" y="0">X</tspan><tspan x="356.82227" y="0">CEL 2</tspan><tspan class="cls-3" x="1111.40332" y="0">0</tspan><tspan class="cls-4" x="1296.42383" y="0">22</tspan></text></clipPath><linearGradient id="linear-gradient" x1="1721.06253" y1="919.07448" x2="4094.55104" y2="919.07448" gradientUnits="userSpaceOnUse"><stop offset="0" stop-color="#0c4c82"/><stop offset="0.10134" stop-color="#136794"/><stop offset="0.25566" stop-color="#1b89ab"/><stop offset="0.40198" stop-color="#21a2bc"/><stop offset="0.53556" stop-color="#25b1c6"/><stop offset="0.64483" stop-color="#26b6ca"/><stop offset="0.69958" stop-color="#2bb7c9"/><stop offset="0.76094" stop-color="#38bac4"/><stop offset="0.8255" stop-color="#4fc0bd"/><stop offset="0.89228" stop-color="#6ec8b3"/><stop offset="0.9601" stop-color="#96d1a7"/><stop offset="1" stop-color="#b1d89e"/></linearGradient><linearGradient id="linear-gradient-2" x1="2139.47815" y1="793.69672" x2="2298.5169" y2="793.69672" gradientUnits="userSpaceOnUse"><stop offset="0" stop-color="#0c4c82"/><stop offset="0.21543" stop-color="#105e8e"/><stop offset="0.64345" stop-color="#1c8bad"/><stop offset="1" stop-color="#26b6ca"/></linearGradient><linearGradient id="linear-gradient-3" x1="2135.31419" y1="198.43451" x2="2294.35295" y2="198.43451" gradientTransform="matrix(1, 0, 0, -1, 0, 1306.44953)" xlink:href="#linear-gradient-2"/><linearGradient id="linear-gradient-4" x1="1208.14561" y1="488.89263" x2="1830.1049" y2="488.89263" gradientUnits="userSpaceOnUse"><stop offset="0" stop-color="#26b6ca"/><stop offset="0.35655" stop-color="#1c8bad"/><stop offset="0.78457" stop-color="#105e8e"/><stop offset="1" stop-color="#0c4c82"/></linearGradient><linearGradient id="linear-gradient-5" x1="1404.42635" y1="616.93251" x2="2302.74555" y2="616.93251" gradientUnits="userSpaceOnUse"><stop offset="0.49069" stop-color="#26b6ca"/><stop offset="0.56019" stop-color="#30b9c7"/><stop offset="0.68036" stop-color="#4dbfbe"/><stop offset="0.83676" stop-color="#7acbaf"/><stop offset="1" stop-color="#b1d89e"/></linearGradient><linearGradient id="linear-gradient-6" x1="2021.13437" y1="759.68308" x2="2177.52183" y2="759.68308" gradientUnits="userSpaceOnUse"><stop offset="0" stop-color="#0c4c82"/><stop offset="0.00921" stop-color="#0d4f84"/><stop offset="0.18681" stop-color="#187ba2"/><stop offset="0.34558" stop-color="#1f9bb8"/><stop offset="0.47837" stop-color="#24afc5"/><stop offset="0.5689" stop-color="#26b6ca"/><stop offset="0.62773" stop-color="#30b9c7"/><stop offset="0.72945" stop-color="#4dbfbe"/><stop offset="0.86182" stop-color="#7acbaf"/><stop offset="1" stop-color="#b1d89e"/></linearGradient><linearGradient id="linear-gradient-7" x1="1214.69957" y1="1286.84605" x2="2249.36756" y2="1286.84605" gradientUnits="userSpaceOnUse"><stop offset="0" stop-color="#0c4c82"/><stop offset="0.00851" stop-color="#0d4f84"/><stop offset="0.17261" stop-color="#187ba2"/><stop offset="0.31931" stop-color="#1f9bb8"/><stop offset="0.442" stop-color="#24afc5"/><stop offset="0.52565" stop-color="#26b6ca"/><stop offset="0.59038" stop-color="#30b9c7"/><stop offset="0.7023" stop-color="#4dbfbe"/><stop offset="0.84796" stop-color="#7acbaf"/><stop offset="1" stop-color="#b1d89e"/></linearGradient></defs><path class="cls-5" d="M4554.84913,1320.5942c-.00609-.27978-.01214.27978,0,0Z"/><g class="cls-6"><rect class="cls-7" x="2343.72701" y="706.98006" width="1706.16335" height="424.18883"/></g><text class="cls-8" transform="translate(2379.76829 1115.57717)"><tspan xml:space="preserve">INSPIRE        |       IN</tspan><tspan class="cls-9" x="629.17871" y="0">N</tspan><tspan class="cls-10" x="684.05859" y="0">O</tspan><tspan class="cls-11" x="746.45898" y="0">V</tspan><tspan class="cls-12" x="791.41895" y="0">A</tspan><tspan x="839.65918" y="0" xml:space="preserve">TE       |        E</tspan><tspan class="cls-9" x="1251.80078" y="0">N</tspan><tspan x="1306.68066" y="0">GINEER</tspan></text><path class="cls-13" d="M1567.79879,371.74446c.05443.01814.10887.04536.1633.0635"/><path class="cls-14" d="M1586.93538,489.85524l.05444-.02722"/><path class="cls-13" d="M1629.72978,357.87029c.05444.01815.10887.04537.16331.06351"/><path class="cls-15" d="M2185.58071,861.6524a279.96182,279.96182,0,0,0,49.02592-8.13319c26.23924-6.6754,56.55638-22.61079,67.67567-49.03086,10.39823-24.70678,2.47008-53.56-17.55542-70.91047q-.18234-.158-.36587-.31523a19.4348,19.4348,0,0,0-27.76369,2.89554c-8.16139,10.463-3.5293,25.876-5.52629,37.9818-1.89,11.4574-7.7726,22.62731-14.5022,31.94924-15.99311,22.15387-40.54221,37.031-66.25423,45.26643-9.74357,3.12081-18.92033,4.82559-30.83645,6.69525C2138.65423,858.18018,2169.81724,862.86607,2185.58071,861.6524Z"/><path class="cls-16" d="M2139.47815,858.05091a208.34191,208.34191,0,0,0,23.67888,1.33361,203.65024,203.65024,0,0,0,41.88715-4.27311c54.2528-11.37674,93.47272-44.27319,93.47272-83.08479,0-13.79911-4.95353-26.84519-13.79-38.44874q-.18219-.15784-.366-.31537c-10.01232-8.57884-27.11517-6.77149-32.278,6.30954-3.707,9.39239-.76656,20.01384-1.67148,29.77757a72.59347,72.59347,0,0,1-10.93785,32.53111c-16.38331,25.54332-43.87565,42.03477-72.49951,50.49934q-7.12987,2.10843-14.42518,3.574C2148.69259,856.727,2143.40054,858.50009,2139.47815,858.05091Z"/><path class="cls-15" d="M2181.41676,1040.05934a279.96184,279.96184,0,0,1,49.02592,8.1332c26.23924,6.67539,56.55637,22.61078,67.67567,49.03085,10.39823,24.70678,2.47008,53.56-17.55543,70.91048q-.18234.158-.36586.31522a19.43478,19.43478,0,0,1-27.76369-2.89554c-8.1614-10.463-3.5293-25.876-5.5263-37.9818-1.89-11.4574-7.7726-22.62731-14.5022-31.94924-15.9931-22.15387-40.54221-37.031-66.25423-45.26643-9.74356-3.12081-18.92033-4.82559-30.83645-6.69524C2134.49028,1043.53156,2165.65329,1038.84568,2181.41676,1040.05934Z"/><path class="cls-17" d="M2135.31419,1043.66084a208.33984,208.33984,0,0,1,23.67888-1.33362,203.6501,203.6501,0,0,1,41.88715,4.27311c54.25281,11.37674,93.47273,44.27319,93.47273,83.08479,0,13.79911-4.95354,26.84519-13.79,38.44874q-.18219.15786-.366.31537c-10.01232,8.57884-27.11517,6.7715-32.278-6.30954-3.707-9.39239-.76655-20.01384-1.67148-29.77757a72.59323,72.59323,0,0,0-10.93785-32.53111c-16.3833-25.54332-43.87565-42.03476-72.4995-50.49934q-7.12988-2.10843-14.42519-3.574C2144.52864,1044.98475,2139.23659,1043.21165,2135.31419,1043.66084Z"/><path class="cls-5" d="M1505.76481,484.01262c-.00908-.41735-.01811.41735,0,0Z"/><path class="cls-18" d="M1385.59595,623.20628c17.301,20.186,68.76861,37.01528,32.49727-38.38523a.0089.0089,0,0,1-.00909-.00908c-8.2014-18.0994-14.14386-39.70981-12.60154-66.08322,3.55636-60.79395,41.30656-88.71876,46.16934-60.295,3.5836,20.97533,8.9907,38.33987,15.414,52.49276,24.62244,54.31632,32.96,16.33936,40.18154-29.66669l.00908,1.26108c1.17037-23.00754,29.21306-66.53684,65.2576-66.53684,16.54806-2.58561,33.52245,5.634,49.23581,19.46026,21.49246,18.89778,40.62613,48.27414,53.08249,74.85619-29.79371-72.89653-77.723-141.08454-124.61816-159.70108A134.85454,134.85454,0,0,0,1396.24692,377.49c-1.43345,1.71469-2.83058,3.45657-4.20052,5.20754-10.42415,13.42716-18.7254,27.81594-26.18287,42.25006C1332.822,488.93509,1343.50918,574.09749,1385.59595,623.20628Z"/><path class="cls-19" d="M1633.31338,414.56358c79.74617,113.441,87.94077,238.67172,67.63456,280.16408-21.2269,43.37364-107.77777-28.65189-91.4736,30.54918,23.05758,83.69081,103.85147,132.9755,180.07843,162.12431,79.10873,30.25078,169.10155,49.57708,254.04979,49.57708h.17237c128.33718-2.0503,234.50164-58.71578,258.97062-133.49878-6.03424,18.44207-27.72962,32.931-44.01726,40.66265-50.31421,23.884-119.59587,17.9145-171.51609,2.7041-58.16723-17.04051-107.90822-55.05344-138.27988-107.40082-17.64578-30.38338-34.53854-69.59422-52.46557-111.54489-19.46934-45.56145-40.16343-94.34364-64.36852-138.55331a348.43825,348.43825,0,0,0-58.29911-86.15131c-103.52488-112.42489-249.66275-149.05915-360.43645-44.001l-8.93632,8.93632C1446.65831,329.99085,1551.36259,297.95629,1633.31338,414.56358Z"/><path class="cls-15" d="M1396.1133,377.49a134.85454,134.85454,0,0,1,153.96733-26.89054c46.89512,18.61654,94.82444,86.80455,124.61816,159.70108,6.2418,13.31824,10.80517,25.92887,13.14586,36.16248,16.43914,51.649,20.01785,107.32937,11.55347,137.82819-4.97108,17.91179-11.71577,23.94622-19.58433,24.86055,11.31108.73962,18.40966-6.58034,22.49223-15.91579,23.13456-52.901,12.1116-166.72309-67.63456-280.16408-81.9508-116.60729-186.65507-84.57273-228.887-46.43242-.009.009-.02719.01811-.03627.03627Q1400.7266,371.98311,1396.1133,377.49Z"/><circle class="cls-20" cx="2123.03263" cy="759.68308" r="58.80161"/><path class="cls-21" d="M1858.44519,823.99231a.01461.01461,0,0,0,.01492-.01491.01461.01461,0,0,1,.01492-.01492"/><path class="cls-22" d="M2301.79087,1105.39912c-9.38383-31.741-49.47749-52.16324-78.31341-56.08146-100.44483-13.64841-190.96617-7.40927-254.18554,59.246-36.16354,38.129-65.90672,109.64645-86.60161,164.65775-23.89343,63.51368-72.26428,132.9808-86.8829,66.68972-46.5746-211.017-74.94658,106.1776-208.81759,224.92768-112.11964,99.45556-286.37612,17.10728-233.03979-161.057.43171-1.44209.93606-2.86474,1.43338-4.29224,52.17959-149.70684,187.11867-261.88259,328.36761-340.27133a641.94991,641.94991,0,0,1,109.789-48.06257c41.99135-13.88771,92.187-29.08812,119.08231-34.17478a598.96813,598.96813,0,0,1,110.80332-10.88938h.1343C2163.52571,968.19477,2278.819,1027.68353,2301.79087,1105.39912Z"/></svg>