<svg id="Layer_1" data-name="Layer 1" xmlns="http://www.w3.org/2000/svg" xmlns:xlink="http://www.w3.org/1999/xlink" viewBox="0 0 1080 1080"><defs><style>.cls-1,.cls-11,.cls-2{fill:none;stroke:#000;stroke-miterlimit:10;}.cls-1{stroke-width:0.51574px;}.cls-2{stroke-width:0.70997px;}.cls-3{fill:#8ecedb;}.cls-4{fill:url(#linear-gradient);}.cls-5{fill:url(#linear-gradient-2);}.cls-6{fill:#205f88;}.cls-7{fill:url(#linear-gradient-3);}.cls-8{fill:url(#linear-gradient-4);}.cls-9{fill:#65c2d2;}.cls-10{fill:url(#linear-gradient-5);}.cls-12{fill:url(#linear-gradient-6);}</style><linearGradient id="linear-gradient" x1="706.44144" y1="401.97245" x2="813.05732" y2="401.97245" gradientUnits="userSpaceOnUse"><stop offset="0" stop-color="#0c4c82"/><stop offset="0.21543" stop-color="#105e8e"/><stop offset="0.64345" stop-color="#1c8bad"/><stop offset="1" stop-color="#26b6ca"/></linearGradient><linearGradient id="linear-gradient-2" x1="703.65002" y1="-1540.08631" x2="810.2659" y2="-1540.08631" gradientTransform="matrix(1, 0, 0, -1, 0, -927.40218)" xlink:href="#linear-gradient"/><linearGradient id="linear-gradient-3" x1="82.09777" y1="197.63888" x2="499.04481" y2="197.63888" gradientUnits="userSpaceOnUse"><stop offset="0" stop-color="#26b6ca"/><stop offset="0.35655" stop-color="#1c8bad"/><stop offset="0.78457" stop-color="#105e8e"/><stop offset="1" stop-color="#0c4c82"/></linearGradient><linearGradient id="linear-gradient-4" x1="213.67981" y1="283.47384" x2="815.89211" y2="283.47384" gradientUnits="userSpaceOnUse"><stop offset="0.49069" stop-color="#26b6ca"/><stop offset="0.56019" stop-color="#30b9c7"/><stop offset="0.68036" stop-color="#4dbfbe"/><stop offset="0.83676" stop-color="#7acbaf"/><stop offset="1" stop-color="#b1d89e"/></linearGradient><linearGradient id="linear-gradient-5" x1="627.10652" y1="379.1705" x2="731.94504" y2="379.1705" gradientUnits="userSpaceOnUse"><stop offset="0" stop-color="#0c4c82"/><stop offset="0.00921" stop-color="#0d4f84"/><stop offset="0.18681" stop-color="#187ba2"/><stop offset="0.34558" stop-color="#1f9bb8"/><stop offset="0.47837" stop-color="#24afc5"/><stop offset="0.5689" stop-color="#26b6ca"/><stop offset="0.62773" stop-color="#30b9c7"/><stop offset="0.72945" stop-color="#4dbfbe"/><stop offset="0.86182" stop-color="#7acbaf"/><stop offset="1" stop-color="#b1d89e"/></linearGradient><linearGradient id="linear-gradient-6" x1="86.49139" y1="732.56829" x2="780.10874" y2="732.56829" gradientUnits="userSpaceOnUse"><stop offset="0" stop-color="#0c4c82"/><stop offset="0.00851" stop-color="#0d4f84"/><stop offset="0.17261" stop-color="#187ba2"/><stop offset="0.31931" stop-color="#1f9bb8"/><stop offset="0.442" stop-color="#24afc5"/><stop offset="0.52565" stop-color="#26b6ca"/><stop offset="0.59038" stop-color="#30b9c7"/><stop offset="0.7023" stop-color="#4dbfbe"/><stop offset="0.84796" stop-color="#7acbaf"/><stop offset="1" stop-color="#b1d89e"/></linearGradient></defs><path class="cls-1" d="M323.20089,119.10547c.03649.01216.073.03041.10948.04257"/><path class="cls-2" d="M336.02962,198.28419l.03649-.01825"/><path class="cls-1" d="M364.718,109.80455c.03649.01217.073.03041.10948.04258"/><path class="cls-3" d="M737.34753,447.52836a187.67938,187.67938,0,0,0,32.86583-5.45231c17.59018-4.475,37.91408-15.15774,45.3682-32.86914,6.97073-16.56285,1.65588-35.90538-11.76875-47.53673q-.12224-.10591-.24527-.21132A13.02863,13.02863,0,0,0,784.95541,363.4c-5.47121,7.01414-2.366,17.34667-3.7047,25.46211-1.267,7.68078-5.21057,15.16883-9.72194,21.418-10.7214,14.85144-27.17855,24.82473-44.41529,30.34557a132.11056,132.11056,0,0,1-20.672,4.48833C705.8891,445.20066,726.78006,448.342,737.34753,447.52836Z"/><path class="cls-4" d="M706.44144,445.114a139.66638,139.66638,0,0,0,15.87377.894,136.52238,136.52238,0,0,0,28.08017-2.86459c36.36982-7.6267,62.66194-29.67972,62.66194-55.69811,0-9.2506-3.32074-17.99639-9.24451-25.77514q-.12213-.10583-.24538-.21141c-6.712-5.75106-18.17738-4.53946-21.63839,4.22976-2.48507,6.29644-.51389,13.41681-1.12052,19.9622a48.665,48.665,0,0,1-7.33249,21.80809c-10.983,17.12365-29.41321,28.17913-48.602,33.85359q-4.77969,1.41344-9.67031,2.39593C712.61859,444.22648,709.07092,445.41513,706.44144,445.114Z"/><path class="cls-3" d="M734.55611,567.12822a187.67922,187.67922,0,0,1,32.86583,5.45231c17.59018,4.475,37.91408,15.15774,45.3682,32.86914,6.97073,16.56285,1.65588,35.90538-11.76875,47.53673q-.12224.10591-.24527.21133a13.02864,13.02864,0,0,1-18.61213-1.94111c-5.47121-7.01414-2.366-17.34667-3.7047-25.46211-1.267-7.68078-5.21057-15.16882-9.72194-21.418-10.7214-14.85144-27.17855-24.82473-44.41529-30.34556a132.10938,132.10938,0,0,0-20.672-4.48834C703.09769,569.45592,723.98864,566.31461,734.55611,567.12822Z"/><path class="cls-5" d="M703.65,569.54258a139.66638,139.66638,0,0,1,15.87377-.894,136.52231,136.52231,0,0,1,28.08017,2.86459c36.36982,7.6267,62.66194,29.67972,62.66194,55.69811,0,9.2506-3.32073,17.99639-9.24451,25.77514q-.12213.10583-.24537.21142c-6.712,5.75106-18.17738,4.53945-21.6384-4.22977-2.48507-6.29644-.51388-13.41681-1.12052-19.96219a48.665,48.665,0,0,0-7.33248-21.8081c-10.983-17.12365-29.41322-28.17913-48.602-33.85358q-4.77969-1.41345-9.6703-2.39594C709.82717,570.4301,706.2795,569.24146,703.65,569.54258Z"/><path class="cls-6" d="M281.61476,194.36743c-.00609-.27978-.01214.27978,0,0Z"/><path class="cls-7" d="M201.05635,287.67962c11.59821,13.53225,46.10087,24.81419,21.78541-25.73256a.006.006,0,0,1-.00609-.00609,91.90033,91.90033,0,0,1-8.44778-44.30065c2.3841-40.75485,27.691-59.475,30.95085-40.42035a143.63155,143.63155,0,0,0,10.33316,35.18992c16.50631,36.4124,22.09559,10.95353,26.93677-19.88785l.00609.84539c.78459-15.42372,19.58376-44.60475,43.74717-44.60475,11.09344-1.73333,22.47267,3.77688,33.00655,13.04571,14.408,12.66863,27.23481,32.36186,35.58526,50.18185-19.973-48.86814-52.10372-94.5798-83.54112-107.05989a90.40333,90.40333,0,0,0-103.21611,18.02679c-.961,1.14949-1.89756,2.31721-2.81593,3.491a181.24623,181.24623,0,0,0-17.55239,28.32346C165.67792,197.66735,172.84236,254.75824,201.05635,287.67962Z"/><path class="cls-8" d="M367.12035,147.81041c53.46,76.0482,58.95345,160,45.34064,187.81548-14.23,29.07668-72.25172-19.20755-61.32178,20.47946,15.45727,56.10438,69.61961,89.14369,120.7204,108.68437C524.89226,485.06914,585.22135,498.025,642.16867,498.025h.11556c86.03425-1.37447,157.20444-39.36169,173.60788-89.49447-4.04522,12.36313-18.5893,22.07615-29.50815,27.25929-33.72947,16.01125-80.17429,12.00947-114.9804,1.81277-38.994-11.42356-72.33916-36.90655-92.69961-71.999-11.82932-20.36832-23.15384-46.65435-35.1717-74.7771-13.05179-30.54334-26.92463-63.24578-43.15116-92.88292a233.5849,233.5849,0,0,0-39.08237-57.75384c-69.40067-75.367-167.3681-99.92578-241.62821-29.49727l-5.9907,5.99071C241.99113,91.11482,312.18244,69.6396,367.12035,147.81041Z"/><path class="cls-9" d="M208.10693,122.95714a90.40335,90.40335,0,0,1,103.21612-18.02679c31.4374,12.48009,63.5681,58.19175,83.54111,107.05989a126.108,126.108,0,0,1,8.81269,24.24249c11.02042,34.62431,13.41949,71.95111,7.74517,92.39681-3.33249,12.00765-7.854,16.053-13.12888,16.66593,7.58269.49582,12.34141-4.41131,15.07827-10.66958,15.50888-35.46362,8.11934-111.76728-45.34063-187.81548C313.09287,68.6396,242.90155,90.11482,214.59023,115.6832c-.006.00605-.01823.01214-.02431.02431Q211.19958,119.26545,208.10693,122.95714Z"/><circle class="cls-10" cx="695.41675" cy="379.1705" r="39.41923"/><path class="cls-11" d="M518.04348,422.28191a.00979.00979,0,0,0,.01-.01.00979.00979,0,0,1,.01-.01"/><path class="cls-12" d="M815.25211,610.93049c-6.2907-21.27841-33.16856-34.969-52.49948-37.5957-67.33588-9.14958-128.01929-4.967-170.40008,39.71714-24.24319,25.56078-44.18233,73.50443-58.0557,110.38272-16.01761,42.5781-48.4443,89.14725-58.24428,44.70724C444.83,626.681,425.81013,839.32089,336.06611,918.92818c-75.1624,66.67269-191.97988,11.46832-156.22445-107.96887.28941-.96674.62751-1.92045.96091-2.87741,34.98-100.36,125.44-175.56,220.13-228.11a430.34775,430.34775,0,0,1,73.6-32.22c28.15-9.31,61.8-19.5,79.83-22.91a401.53319,401.53319,0,0,1,74.28-7.3h.09C722.56237,518.95189,799.85231,558.83177,815.25211,610.93049Z"/></svg>