<svg xmlns="http://www.w3.org/2000/svg" xmlns:xlink="http://www.w3.org/1999/xlink" viewBox="0 0 931.8541 661.13706"><defs><style>.cls-1{font-size:131.43915px;}.cls-1,.cls-3{fill:none;font-family:ProductSans-Regular, Product Sans;}.cls-2{letter-spacing:-0.07999em;}.cls-3{font-size:30.93138px;}.cls-4{letter-spacing:-0.00999em;}.cls-5{letter-spacing:0.00499em;}.cls-6{letter-spacing:-0.00499em;}.cls-7{letter-spacing:-0.02em;}.cls-8{letter-spacing:-0.02999em;}.cls-9{letter-spacing:-0.015em;}.cls-10{letter-spacing:-0.04em;}.cls-11{letter-spacing:-0.07999em;}.cls-12{letter-spacing:0.00002em;}.cls-13{letter-spacing:-0.03001em;}.cls-14{clip-path:url(#clip-path);}.cls-15{fill:url(#linear-gradient);}.cls-16{clip-path:url(#clip-path-2);}.cls-17{fill:url(#linear-gradient-2);}.cls-18{fill:url(#linear-gradient-3);}.cls-19{fill:url(#linear-gradient-4);}.cls-20{fill:url(#linear-gradient-5);}.cls-21,.cls-22{stroke-miterlimit:10;stroke-width:2.21602px;}.cls-21{fill:url(#linear-gradient-6);stroke:url(#linear-gradient-7);}.cls-22{fill:url(#linear-gradient-8);stroke:url(#linear-gradient-9);}.cls-23{fill:url(#New_Gradient_Swatch_copy_3);}</style><clipPath id="clip-path"><text class="cls-1" transform="translate(232.70894 404.88071)">IBe<tspan class="cls-2" x="179.54346" y="0">T</tspan><tspan x="240.00635" y="0">o</tspan></text></clipPath><linearGradient id="linear-gradient" x1="185.89446" y1="372.98312" x2="737.50558" y2="372.98312" gradientUnits="userSpaceOnUse"><stop offset="0" stop-color="#b0d79d"/><stop offset="0.01892" stop-color="#a2d09e"/><stop offset="0.1158" stop-color="#5db1a1"/><stop offset="0.1968" stop-color="#2b9aa4"/><stop offset="0.25789" stop-color="#0c8ba5"/><stop offset="0.29198" stop-color="#0086a6"/><stop offset="1" stop-color="#24b6c9"/></linearGradient><clipPath id="clip-path-2"><text class="cls-3" transform="translate(239.22554 438.79086)">Inn<tspan class="cls-4" x="40.82861" y="0">ova</tspan><tspan class="cls-5" x="88.40088" y="0">t</tspan><tspan class="cls-6" x="99.50439" y="0">i</tspan><tspan class="cls-4" x="106.15479" y="0">o</tspan><tspan class="cls-6" x="123.16699" y="0">n</tspan><tspan x="139.77734" y="0">s</tspan><tspan class="cls-7" x="153.85059" y="0"> </tspan><tspan class="cls-8" x="160.03662" y="0">f</tspan><tspan class="cls-4" x="170.4917" y="0">o</tspan><tspan x="187.50391" y="0">r a B</tspan><tspan class="cls-9" x="246.48828" y="0">e</tspan><tspan class="cls-6" x="262.60352" y="0">tt</tspan><tspan x="283.29688" y="0">er</tspan><tspan class="cls-10" x="311.104" y="0"> </tspan><tspan class="cls-11" x="316.67139" y="0">T</tspan><tspan class="cls-4" x="330.8999" y="0">o</tspan><tspan class="cls-12" x="347.91211" y="0">m</tspan><tspan class="cls-4" x="374.26563" y="0">o</tspan><tspan x="391.27783" y="0">r</tspan><tspan class="cls-13" x="402.50586" y="0">r</tspan><tspan class="cls-4" x="412.80566" y="0">o</tspan><tspan x="429.81787" y="0">w</tspan></text></clipPath><linearGradient id="linear-gradient-2" x1="181.64664" y1="438.79092" x2="733.25775" y2="438.79092" xlink:href="#linear-gradient"/><linearGradient id="linear-gradient-3" x1="4154.75465" y1="366.75633" x2="4252.48284" y2="366.75633" gradientTransform="matrix(-0.99877, 0.04965, 0.04965, 0.99877, 4853.10875, -207.37959)" gradientUnits="userSpaceOnUse"><stop offset="0" stop-color="#24b6c9"/><stop offset="0.35655" stop-color="#1a8bac"/><stop offset="0.78457" stop-color="#105e8e"/><stop offset="1" stop-color="#0c4c82"/></linearGradient><linearGradient id="linear-gradient-4" x1="580.56253" y1="245.65257" x2="662.55463" y2="245.65257" gradientUnits="userSpaceOnUse"><stop offset="0" stop-color="#b0d79d"/><stop offset="0.02308" stop-color="#a4d4a1"/><stop offset="0.09736" stop-color="#82ccac"/><stop offset="0.17967" stop-color="#65c5b5"/><stop offset="0.27053" stop-color="#4dc0bc"/><stop offset="0.3736" stop-color="#3abbc2"/><stop offset="0.49593" stop-color="#2eb8c6"/><stop offset="0.65627" stop-color="#26b7c8"/><stop offset="1" stop-color="#24b6c9"/></linearGradient><linearGradient id="linear-gradient-5" x1="4091.9398" y1="263.24986" x2="4299.86505" y2="263.24986" gradientTransform="matrix(-1, 0, 0, 1, 4876.02618, 0)" gradientUnits="userSpaceOnUse"><stop offset="0.42315" stop-color="#24b6c9"/><stop offset="0.50144" stop-color="#2eb8c6"/><stop offset="0.6368" stop-color="#4bbfbd"/><stop offset="0.81295" stop-color="#78caaf"/><stop offset="1" stop-color="#b0d79d"/></linearGradient><linearGradient id="linear-gradient-6" x1="4291.21322" y1="289.83323" x2="4347.25461" y2="289.83323" gradientTransform="matrix(-0.9972, 0.07483, 0.07483, 0.9972, 4876.73182, -271.33805)" xlink:href="#linear-gradient-5"/><linearGradient id="linear-gradient-7" x1="4203.05003" y1="-595.26689" x2="4201.38888" y2="-685.19968" gradientTransform="matrix(-0.84907, 0.52829, 0.52829, 0.84907, 4495.43957, -1334.12091)" xlink:href="#linear-gradient-5"/><linearGradient id="linear-gradient-8" x1="4293.00938" y1="304.06162" x2="4358.67138" y2="304.06162" gradientTransform="matrix(-0.9972, 0.07483, 0.07483, 0.9972, 4876.73182, -271.33805)" xlink:href="#linear-gradient-5"/><linearGradient id="linear-gradient-9" x1="4213.81461" y1="-592.1701" x2="4212.39052" y2="-669.2689" gradientTransform="matrix(-0.84907, 0.52829, 0.52829, 0.84907, 4495.43957, -1334.12091)" xlink:href="#linear-gradient-5"/><linearGradient id="New_Gradient_Swatch_copy_3" x1="651.7593" y1="415.32189" x2="639.33972" y2="367.99523" gradientUnits="userSpaceOnUse"><stop offset="0" stop-color="#24b6c9"/><stop offset="0.42035" stop-color="#26b6c8"/><stop offset="0.57179" stop-color="#2db8c6"/><stop offset="0.67969" stop-color="#38bbc3"/><stop offset="0.76698" stop-color="#49bfbd"/><stop offset="0.84171" stop-color="#5fc4b6"/><stop offset="0.9079" stop-color="#7bcaae"/><stop offset="0.96626" stop-color="#9ad2a4"/><stop offset="1" stop-color="#b0d79d"/></linearGradient></defs><g id="Layer_1" data-name="Layer 1"><g class="cls-14"><rect class="cls-15" x="217.95099" y="243.6051" width="551.61112" height="258.75603"/></g><g class="cls-16"><rect class="cls-17" x="181.64664" y="309.41291" width="551.61112" height="258.75603"/></g></g><g id="Layer_2" data-name="Layer 2"><path class="cls-18" d="M622.869,345.66637a81.38647,81.38647,0,0,0,25.85616,33.72705c.01106.01.03306.03006.04361.02954.98043-.048,3.57,2.24215,4.43861,2.75628,15.05053,8.90809,33.81,13.25218,50.21537,4.74259,14.68471-7.61705,24.54811-24.01691,13.03166-38.86746-9.80186-12.63952-4.39088,8.12864-36.83055,16.1294-13.88324,3.425-25.83637.651-35.5166-3.97817C634.86005,355.78724,627.6823,349.67162,622.869,345.66637Z"/><path class="cls-19" d="M661.71724,140.31511a54.07762,54.07762,0,0,0-32.28549,1.14557,46.58354,46.58354,0,0,0-24.49521,19.82245,116.733,116.733,0,0,0-13.14575,29.6889,163.18063,163.18063,0,0,0-5.62274,32.1524,222.37888,222.37888,0,0,0-.14832,32.80732c.37152,5.46252.82959,10.96032,1.49085,16.37573a163.5623,163.5623,0,0,0,2.928,16.10211c1.21082,5.32233,2.82789,10.55573,4.47394,15.83826,1.6427,5.26452,3.30695,10.529,5.18091,15.694a127.45268,127.45268,0,0,0,6.6427,15.04437,151.74711,151.74711,0,0,0,8.3255,14.28766l-.03058-.03528.01917.02026.02441.02582.01.0149,3.34662,4.96667-3.78686-4.66364.03418.04041-.02088-.01849-.009-.008-.02179-.02753a126.83439,126.83439,0,0,1-9.43744-13.74572q-2.1319-3.59235-4.07355-7.29932c-1.31341-2.44751-2.49817-5.04761-3.55829-7.6095-2.14068-5.15106-4.10205-10.34924-5.96008-15.58484-1.82843-5.22442-3.66785-10.51818-5.10327-15.94873a144.04168,144.04168,0,0,1-3.41852-16.47638c-.78851-5.55877-1.39069-11.08258-1.85-16.65771a217.5747,217.5747,0,0,1-.02985-33.54163,159.84117,159.84117,0,0,1,6.10516-33.09246,113.76493,113.76493,0,0,1,14.42566-30.46521c.80487-1.16852,1.50623-2.34852,2.47058-3.52686.93811-1.07977,1.85553-2.17413,2.81116-3.23511,1.03162-.99829,2.03973-2.01935,3.09113-2.9906,1.1195-.8966,2.20916-1.82733,3.351-2.68628a49.856,49.856,0,0,1,15.23263-7.55035A52.2792,52.2792,0,0,1,661.71724,140.31511Z"/><path class="cls-20" d="M606.58114,300.89644a144.08706,144.08706,0,0,0,5.09965,26.33726l.01254.02508c.52615,1.94208,1.115,3.85915,1.76657,5.72606a96.69818,96.69818,0,0,0,28.69291,41.54825c.01254.01255.03748.03763.05.03763,7.95644,6.7535,16.15088,11.41449,23.10474,13.65726a26.42619,26.42619,0,0,1-4.86151-2.744h-.01254c-5.03694-3.52083-7.315-9.78749-7.93745-12.77546-1.59843-7.67245-.84786-13.39841.10555-16.63721.30358-1.03127,3.26277-10.00381,7.36438-15.04771,7.89672-9.71091,13.07236-17.36758,50.2942-37.0231,27.14354-14.33353,40.92187-42.71834,20.28557-36.27333-49.69084,15.51918,25.58372-21.78837,46.43477-59.52834,22.673-41.03772-10.452-80.32975-77.42395-67.43145-22.40977,4.31595-47.53155,20.28193-59.48972,33.67083-12.0923,13.53908-21.8331,29.95489-30.2279,67.95732a154.337,154.337,0,0,0-3.546,28.65528C605.9672,281.701,605.90449,294.34339,606.58114,300.89644Z"/><path class="cls-21" d="M594.39946,356.07416a130.73335,130.73335,0,0,1-23.15967-24.049,39.8879,39.8879,0,0,1-6.87923-15.49281c-.48414-2.264-.71535-4.56892-1.20461-6.83068a2.43361,2.43361,0,0,0-1.2658-1.89687,2.95841,2.95841,0,0,0-.4374,1.03824,11.82571,11.82571,0,0,0-.00829,6.13686,40.70886,40.70886,0,0,0,3.59583,9.66865,60.92664,60.92664,0,0,0,7.15437,10.46843,151.26737,151.26737,0,0,0,25.38161,24.54374,132.03843,132.03843,0,0,0,21.255,13.30972c2.66071,1.3161,5.25915,1.56159-.04344-1.03887A129.13479,129.13479,0,0,1,594.39946,356.07416Z"/><path class="cls-22" d="M579.64725,362.88353a103.27426,103.27426,0,0,1-15.48212-10.60023,30.43412,30.43412,0,0,1-9.15083-13.39552,48.25611,48.25611,0,0,0-1.70852-5.01334,1.797,1.797,0,0,0-1.47446-1.18377,8.37636,8.37636,0,0,0-.45131,3.26082c.35583,3.54973,2.11031,6.50118,4.07594,9.32714a41.70938,41.70938,0,0,0,9.90727,9.621,132.88631,132.88631,0,0,0,24.92048,14.41867,134.58,134.58,0,0,0,29.7,9.15076l.36415-.89909a119.33508,119.33508,0,0,1-19.37513-5.083A121.899,121.899,0,0,1,579.64725,362.88353Z"/><path class="cls-23" d="M680.22688,404.57611c-4.13105,1.50714-8.95188.92194-13.14746-.53918a57.76161,57.76161,0,0,1-11.852-5.96869c-1.84705-1.16529-3.635-2.32892-5.4209-3.50122-1.84284-1.1872-3.61633-2.44519-5.37564-3.68433-3.5109-2.48975-6.90729-5.0036-10.38675-7.23584-1.73065-1.12891-3.48349-2.18848-5.27695-3.12885l-1.3446-.69982a4.80378,4.80378,0,0,0-.6048-.27747l-.55093-.23572c-.367-.16095-.75583-.21643-1.131-.34546-.3822-.07257-.76651-.12048-1.15042-.18689a7.13407,7.13407,0,0,0-4.26455.97437,5.35594,5.35594,0,0,0-2.27817,3.44165c-.01987.38629-.0831.7691-.09445,1.17383.04321.41107.01654.825.09246,1.25165.09574.41772.16785.87854.269,1.27752a5.90843,5.90843,0,0,0,.41711,1.07233,5.74973,5.74973,0,0,0,3.73438,2.9118,6.01293,6.01293,0,0,0,2.61083.08948,5.18485,5.18485,0,0,0,2.40757-1.10992,5.736,5.736,0,0,0,1.85254-5.42267,5.95241,5.95241,0,0,1,.69711,3.26617,6.61389,6.61389,0,0,1-1.246,3.33814,6.7339,6.7339,0,0,1-2.97535,2.27514,8.81919,8.81919,0,0,1-3.74929.65381,9.24968,9.24968,0,0,1-7.86591-5.518c-.253-.61225-.431-1.19886-.64249-1.80872a19.24215,19.24215,0,0,1-.39993-1.92633,18.2441,18.2441,0,0,1-.07107-2.04187,10.62549,10.62549,0,0,1,1.15271-4.09686,10.44979,10.44979,0,0,1,2.76489-3.329,12.46128,12.46128,0,0,1,7.88742-2.48505,20.46606,20.46606,0,0,1,2.04062.2182,19.07308,19.07308,0,0,1,1.968.51471l.94555.35773a9.20774,9.20774,0,0,1,.86951.366l1.53848.733a66.74455,66.74455,0,0,1,5.83844,3.36615c3.7341,2.4295,7.19007,5.1026,10.54779,7.76117l5.00336,3.94018c1.71478,1.31263,3.3995,2.67328,5.05768,3.98658a79.52945,79.52945,0,0,0,10.235,7.19635A22.57571,22.57571,0,0,0,680.22688,404.57611Z"/></g></svg>