<svg id="Layer_1" data-name="Layer 1" xmlns="http://www.w3.org/2000/svg" xmlns:xlink="http://www.w3.org/1999/xlink" viewBox="0 0 931.8541 661.13706"><defs><style>.cls-1{font-size:131.43915px;}.cls-1,.cls-3{fill:none;font-family:ProductSans-Regular, Product Sans;}.cls-2{letter-spacing:-0.07999em;}.cls-3{font-size:30.93138px;}.cls-4{letter-spacing:-0.00999em;}.cls-5{letter-spacing:0.00499em;}.cls-6{letter-spacing:-0.00499em;}.cls-7{letter-spacing:-0.02em;}.cls-8{letter-spacing:-0.02999em;}.cls-9{letter-spacing:-0.015em;}.cls-10{letter-spacing:-0.04em;}.cls-11{letter-spacing:-0.07999em;}.cls-12{letter-spacing:0.00002em;}.cls-13{letter-spacing:-0.03001em;}.cls-14{fill:url(#linear-gradient);}.cls-15{fill:url(#linear-gradient-2);}.cls-16{fill:url(#linear-gradient-3);}.cls-17,.cls-18{stroke-miterlimit:10;stroke-width:2.21602px;}.cls-17{fill:url(#linear-gradient-4);stroke:url(#linear-gradient-5);}.cls-18{fill:url(#linear-gradient-6);stroke:url(#linear-gradient-7);}.cls-19{fill:url(#New_Gradient_Swatch_copy_3);}.cls-20{clip-path:url(#clip-path);}.cls-21{fill:url(#linear-gradient-8);}.cls-22{clip-path:url(#clip-path-2);}.cls-23{fill:url(#linear-gradient-9);}</style><linearGradient id="linear-gradient" x1="529.29437" y1="266.73807" x2="636.09076" y2="266.73807" gradientUnits="userSpaceOnUse"><stop offset="0" stop-color="#b0d79d"/><stop offset="0.02308" stop-color="#a4d4a1"/><stop offset="0.09736" stop-color="#82ccac"/><stop offset="0.17967" stop-color="#65c5b5"/><stop offset="0.27053" stop-color="#4dc0bc"/><stop offset="0.3736" stop-color="#3abbc2"/><stop offset="0.49593" stop-color="#2eb8c6"/><stop offset="0.65627" stop-color="#26b7c8"/><stop offset="1" stop-color="#24b6c9"/></linearGradient><linearGradient id="linear-gradient-2" x1="4150.1934" y1="419.48226" x2="4303.88858" y2="419.48226" gradientTransform="matrix(-1, 0, 0, 1, 4876.02618, 0)" gradientUnits="userSpaceOnUse"><stop offset="0" stop-color="#24b6c9"/><stop offset="0.35655" stop-color="#1a8bac"/><stop offset="0.78457" stop-color="#105e8e"/><stop offset="1" stop-color="#0c4c82"/></linearGradient><linearGradient id="linear-gradient-3" x1="4134.91686" y1="287.29874" x2="4343.52531" y2="287.29874" gradientTransform="matrix(-1, 0, 0, 1, 4876.02618, 0)" gradientUnits="userSpaceOnUse"><stop offset="0.42315" stop-color="#24b6c9"/><stop offset="0.50144" stop-color="#2eb8c6"/><stop offset="0.6368" stop-color="#4bbfbd"/><stop offset="0.81295" stop-color="#78caaf"/><stop offset="1" stop-color="#b0d79d"/></linearGradient><linearGradient id="linear-gradient-4" x1="4333.98894" y1="342.01511" x2="4390.03033" y2="342.01511" gradientTransform="matrix(-0.9972, 0.07483, 0.07483, 0.9972, 4876.73182, -271.33805)" xlink:href="#linear-gradient-3"/><linearGradient id="linear-gradient-5" x1="4265.13286" y1="-568.839" x2="4263.47171" y2="-658.77179" gradientTransform="matrix(-0.84907, 0.52829, 0.52829, 0.84907, 4495.43957, -1334.12091)" xlink:href="#linear-gradient-3"/><linearGradient id="linear-gradient-6" x1="4335.7851" y1="356.2435" x2="4401.44709" y2="356.2435" gradientTransform="matrix(-0.9972, 0.07483, 0.07483, 0.9972, 4876.73182, -271.33805)" xlink:href="#linear-gradient-3"/><linearGradient id="linear-gradient-7" x1="4275.89744" y1="-565.74222" x2="4274.47334" y2="-642.84102" gradientTransform="matrix(-0.84907, 0.52829, 0.52829, 0.84907, 4495.43957, -1334.12091)" xlink:href="#linear-gradient-3"/><linearGradient id="New_Gradient_Swatch_copy_3" x1="613.00849" y1="470.55852" x2="600.58891" y2="423.23185" gradientUnits="userSpaceOnUse"><stop offset="0" stop-color="#24b6c9"/><stop offset="0.42035" stop-color="#26b6c8"/><stop offset="0.57179" stop-color="#2db8c6"/><stop offset="0.67969" stop-color="#38bbc3"/><stop offset="0.76698" stop-color="#49bfbd"/><stop offset="0.84171" stop-color="#5fc4b6"/><stop offset="0.9079" stop-color="#7bcaae"/><stop offset="0.96626" stop-color="#9ad2a4"/><stop offset="1" stop-color="#b0d79d"/></linearGradient><clipPath id="clip-path"><text class="cls-1" transform="translate(194.83105 460.21781)">IBe<tspan class="cls-2" x="179.54346" y="0">T</tspan><tspan x="240.00635" y="0">o</tspan></text></clipPath><linearGradient id="linear-gradient-8" x1="148.01656" y1="428.32021" x2="699.62768" y2="428.32021" gradientUnits="userSpaceOnUse"><stop offset="0" stop-color="#b0d79d"/><stop offset="0.01892" stop-color="#a2d09e"/><stop offset="0.1158" stop-color="#5db1a1"/><stop offset="0.1968" stop-color="#2b9aa4"/><stop offset="0.25789" stop-color="#0c8ba5"/><stop offset="0.29198" stop-color="#0086a6"/><stop offset="1" stop-color="#24b6c9"/></linearGradient><clipPath id="clip-path-2"><text class="cls-3" transform="translate(201.34765 494.12797)">Inn<tspan class="cls-4" x="40.82861" y="0">ova</tspan><tspan class="cls-5" x="88.40088" y="0">t</tspan><tspan class="cls-6" x="99.50439" y="0">i</tspan><tspan class="cls-4" x="106.15479" y="0">o</tspan><tspan class="cls-6" x="123.16699" y="0">n</tspan><tspan x="139.77734" y="0">s</tspan><tspan class="cls-7" x="153.85059" y="0"> </tspan><tspan class="cls-8" x="160.03662" y="0">f</tspan><tspan class="cls-4" x="170.4917" y="0">o</tspan><tspan x="187.50391" y="0">r a B</tspan><tspan class="cls-9" x="246.48828" y="0">e</tspan><tspan class="cls-6" x="262.60352" y="0">tt</tspan><tspan x="283.29688" y="0">er</tspan><tspan class="cls-10" x="311.104" y="0"> </tspan><tspan class="cls-11" x="316.67139" y="0">T</tspan><tspan class="cls-4" x="330.8999" y="0">o</tspan><tspan class="cls-12" x="347.91211" y="0">m</tspan><tspan class="cls-4" x="374.26563" y="0">o</tspan><tspan x="391.27783" y="0">r</tspan><tspan class="cls-13" x="402.50586" y="0">r</tspan><tspan class="cls-4" x="412.80566" y="0">o</tspan><tspan x="429.81787" y="0">w</tspan></text></clipPath><linearGradient id="linear-gradient-9" x1="143.76874" y1="494.12802" x2="695.37985" y2="494.12802" xlink:href="#linear-gradient-8"/></defs><path class="cls-14" d="M634.99378,129.53381a70.43762,70.43762,0,0,0-42.05255,1.49219,60.6759,60.6759,0,0,0-31.90545,25.81915,152.04257,152.04257,0,0,0-17.12262,38.67035,212.5459,212.5459,0,0,0-7.32373,41.87921,289.64747,289.64747,0,0,0-.19324,42.73224c.48395,7.115,1.08063,14.276,1.94189,21.32971a213.03028,213.03028,0,0,0,3.81372,20.97327c1.57715,6.9325,3.68341,13.74909,5.82746,20.62964,2.13965,6.85724,4.30737,13.71429,6.74823,20.44189,1.22711,3.38312,2.51129,6.63507,3.9978,9.90949q2.20029,4.8988,4.65448,9.686c1.652,3.18067,3.35455,6.34015,5.15753,9.44648,1.80548,3.10479,3.72022,6.14709,5.68659,9.16351l-.03986-.0459.025.02637.0318.03363.013.01935,4.35907,6.46924-4.93249-6.07453.04455.05267-.02722-.0241-.01178-.01038-.02832-.03583a165.21024,165.21024,0,0,1-12.29248-17.90411q-2.77679-4.67917-5.30585-9.50751c-1.71075-3.18793-3.254-6.57465-4.63476-9.91156-2.78833-6.70935-5.343-13.4801-7.76312-20.2995-1.19941-3.4201-2.37323-6.81842-3.517-10.281q-1.70892-5.19873-3.13013-10.49262a187.6226,187.6226,0,0,1-4.4527-21.46075c-1.027-7.24048-1.81134-14.43537-2.4096-21.69709-.25354-3.62872-.42939-7.26513-.62873-10.89911-.07171-3.64117-.23053-7.28033-.22882-10.92449l.04138-5.46772.02118-2.73413.11243-2.734c.16266-3.64495.256-7.29376.64368-10.92926a208.19142,208.19142,0,0,1,7.95215-43.10363,148.18107,148.18107,0,0,1,18.78967-39.68152c1.0484-1.522,1.96185-3.059,3.21795-4.59387,1.222-1.40638,2.41687-2.83179,3.66163-4.21375,1.34375-1.30029,2.65679-2.63019,4.02624-3.89532,1.45813-1.16785,2.8775-2.38013,4.36475-3.49891a64.93783,64.93783,0,0,1,19.84088-9.83453A68.09527,68.09527,0,0,1,634.99378,129.53381Z"/><path class="cls-15" d="M572.13761,380.49012a125.9515,125.9515,0,0,0,37.3731,54.11747c.01634.01633.04881.049.06515.049a149.87835,149.87835,0,0,0,23.74585,14.21476h.01633c8.38857,3.96588,17.10286,7.396,26.12852,8.63341,55.55981,7.61716,81.64276-31.068,57.1388-66.1321-14.17908-20.28963-7.41145,12.22671-58.167,22.10036-21.722,4.22695-39.98428-.97917-54.59091-8.87815C589.8939,397.055,579.26949,387.05074,572.13761,380.49012Z"/><path class="cls-16" d="M563.17788,338.69433a187.676,187.676,0,0,0,6.6424,34.30482l.01633.03267c.68532,2.5296,1.45232,5.02662,2.301,7.4583a125.9515,125.9515,0,0,0,37.3731,54.11747c.01634.01633.04881.049.06515.049,10.36343,8.79657,21.03685,14.86761,30.0944,17.78887a34.42071,34.42071,0,0,1-6.33222-3.57411h-.01633c-6.56072-4.586-10.90173-10.52639-13.83943-13.83943-6.77269-7.6378-10.70609-17.00553-14.36178-26.47118a35.053,35.053,0,0,1-1.273-3.96587c-4.45536-17.11979,4.7004-37.43825,44.3745-71.85742,16.09161-13.93734,47.6712-48.78085,26.42237-47.24676-67.63066,4.8797,37.3239-26.37326,60.48225-77.53688,27.271-60.28652-44.76617-107.46793-93.57949-75.48054-.39167.24484-.78333.53859-1.175.816-40.34328,29.08246-62.01644,79.7075-72.95084,129.20644a201.02735,201.02735,0,0,0-4.61872,37.32409C562.37821,313.6919,562.29653,330.15884,563.17788,338.69433Z"/><path class="cls-17" d="M555.64865,411.31078a130.73232,130.73232,0,0,1-23.15967-24.049,39.888,39.888,0,0,1-6.87923-15.49281c-.48414-2.264-.71535-4.56893-1.20461-6.83069a2.43361,2.43361,0,0,0-1.2658-1.89686,2.95844,2.95844,0,0,0-.4374,1.03823,11.82575,11.82575,0,0,0-.00829,6.13687,40.709,40.709,0,0,0,3.59583,9.66865,60.927,60.927,0,0,0,7.15437,10.46843,151.267,151.267,0,0,0,25.38161,24.54374,132.03913,132.03913,0,0,0,21.255,13.30972c2.66071,1.3161,5.25915,1.56159-.04344-1.03888A129.13381,129.13381,0,0,1,555.64865,411.31078Z"/><path class="cls-18" d="M540.89644,418.12015a103.27277,103.27277,0,0,1-15.48212-10.60023,30.43409,30.43409,0,0,1-9.15083-13.39551,48.253,48.253,0,0,0-1.70853-5.01334,1.797,1.797,0,0,0-1.47446-1.18377,8.37652,8.37652,0,0,0-.4513,3.26082c.35583,3.54972,2.11031,6.50118,4.07594,9.32714a41.70915,41.70915,0,0,0,9.90727,9.621A132.88658,132.88658,0,0,0,551.53289,424.555a134.57942,134.57942,0,0,0,29.7,9.15075l.36415-.89909a119.334,119.334,0,0,1-19.37513-5.083A121.89909,121.89909,0,0,1,540.89644,418.12015Z"/><path class="cls-19" d="M641.47608,459.81274c-4.13107,1.50708-8.9519.92188-13.14749-.53918a57.7558,57.7558,0,0,1-11.852-5.96875c-1.847-1.16528-3.635-2.32886-5.4209-3.5011-1.84283-1.18726-3.61639-2.44519-5.37567-3.68433-3.51086-2.48986-6.90728-5.00366-10.38672-7.23584-1.73065-1.129-3.48352-2.18859-5.277-3.1289l-1.34461-.69989a4.80117,4.80117,0,0,0-.60479-.27741l-.551-.23571c-.367-.161-.7558-.21644-1.13092-.34546-.3822-.07257-.76654-.12049-1.15045-.18695a7.134,7.134,0,0,0-4.26453.97442,5.35578,5.35578,0,0,0-2.2782,3.44165c-.01983.38635-.08306.76917-.09442,1.17383.04322.411.01654.82495.09247,1.25159.0957.41772.16785.87854.26892,1.27759a5.90927,5.90927,0,0,0,.41712,1.07226,5.7497,5.7497,0,0,0,3.73437,2.91187,6.01315,6.01315,0,0,0,2.61084.08947,5.18582,5.18582,0,0,0,2.40759-1.10986,5.73614,5.73614,0,0,0,1.85254-5.42273,5.95207,5.95207,0,0,1,.69709,3.26611,6.61356,6.61356,0,0,1-1.246,3.33814,6.73308,6.73308,0,0,1-2.97534,2.27515,8.81954,8.81954,0,0,1-3.74933.65393,9.25017,9.25017,0,0,1-7.86584-5.51807c-.253-.61218-.431-1.19885-.64252-1.80872a19.237,19.237,0,0,1-.3999-1.92639,18.24,18.24,0,0,1-.07111-2.04187,10.62647,10.62647,0,0,1,1.15271-4.0968,10.45055,10.45055,0,0,1,2.76489-3.329,12.461,12.461,0,0,1,7.88746-2.48505,20.463,20.463,0,0,1,2.04058.21821,19.08342,19.08342,0,0,1,1.968.51464l.94556.35779a9.213,9.213,0,0,1,.86951.366l1.53851.733a66.77616,66.77616,0,0,1,5.83844,3.36609c3.73407,2.4295,7.19006,5.10272,10.54779,7.76117l5.00336,3.94031c1.71478,1.31262,3.39947,2.67322,5.05767,3.98645a79.53084,79.53084,0,0,0,10.235,7.19641A22.5757,22.5757,0,0,0,641.47608,459.81274Z"/><g class="cls-20"><rect class="cls-21" x="180.07309" y="298.9422" width="551.61112" height="258.75603"/></g><g class="cls-22"><rect class="cls-23" x="143.76874" y="364.75" width="551.61112" height="258.75603"/></g></svg>