<svg width="1920" height="1443" viewBox="0 0 1920 1443" fill="none" xmlns="http://www.w3.org/2000/svg">
<path d="M127.119 128.085C110.034 71.9491 35.2542 19.9491 0 0.966064V1443H1920V240.966C1789.02 279.203 1714.92 341.644 1694.24 368.085L1609.83 512.491C1598.31 553.508 1556.95 635.746 1483.73 636.559C1393.11 637.566 1361.31 502.006 1337.99 402.592L1337.29 399.61C1318.58 319.881 1256.27 287.746 1227.46 281.644L1055.59 254.186C1008.81 242.322 906.305 229.576 870.508 273.508C834.712 317.441 724.068 573.847 673.22 696.559C669.153 713.169 651.254 745.576 612.203 742.322C573.153 739.068 558.057 712.473 550 681C539.153 638.627 530.034 555.407 518.644 499.271C504.407 429.102 333.559 420.966 272.542 415.881C223.729 411.814 206.78 386.39 204.407 374.186C185.763 315.542 144.203 184.22 127.119 128.085Z" fill="#3FCACB" fill-opacity="0.29"/>
<path d="M224.334 369.907C164 249.202 60.3841 231.932 0.00012207 230.925V1423.35H1920V549.173C1892.62 536.081 1831.87 543.819 1794.67 562.266C1766.23 576.366 1666.18 719.376 1592.45 812.031C1519.35 903.907 1458.52 853.651 1431.98 831.717L1431.31 831.166C1367.76 778.681 1302.42 622.93 1189.07 527.017C1042.68 403.142 936.495 490.133 908.919 520.974C872 562.266 736.448 820.098 696.171 871.45C649.692 930.711 493.955 1046.69 419.177 834.187C344.399 621.686 288.401 498.082 224.334 369.907Z" fill="url(#paint0_linear_384_111)"/>
<path d="M417.706 948.45H323.355C324.986 937.967 336.914 917.419 371.579 919.097C406.244 920.774 416.774 939.365 417.706 948.45Z" fill="#31C4CB"/>
<path d="M705 1077.45H610.65C612.28 1066.97 624.208 1046.42 658.873 1048.1C693.538 1049.77 704.068 1068.36 705 1077.45Z" fill="#5EDAD5"/>
<path d="M234.582 673.092C178.486 564.37 64.5409 531.5 0 531.5V1443H1920C1907.25 1405.07 1856.25 1384.85 1821.83 1384.85C1787.41 1384.85 1691.79 1378.52 1649.72 1303.94C1607.65 1229.35 1476.33 1132 1327.17 1149.7C1178.01 1167.4 952.351 1343.13 734.343 1282.44C516.335 1221.76 443.665 1119.36 404.143 1056.15C364.621 992.939 290.677 781.815 234.582 673.092Z" fill="#31C4CB"/>
<path d="M625.25 1213.06C625.333 1225.48 625.45 1251.71 625.25 1257.31H616.25V1211.31L604 1199.06H639.25L625.25 1213.06Z" fill="#30C3CB"/>
<path d="M116.75 527.941C116.833 540.358 116.95 566.591 116.75 572.191H107.75V526.191L95.5 513.941H130.75L116.75 527.941Z" fill="#30C3CB"/>
<path d="M116.75 498.816C116.833 511.233 116.95 537.466 116.75 543.066H107.75V497.066L95.5 484.816H130.75L116.75 498.816Z" fill="#30C3CB"/>
<path d="M195.5 579.816C195.583 592.233 195.7 618.466 195.5 624.066H186.5V578.066L174.25 565.816H209.5L195.5 579.816Z" fill="#30C3CB"/>
<path d="M1681.25 677.733C1681.33 690.15 1681.45 716.383 1681.25 721.983H1672.25V675.983L1660 663.733H1695.25L1681.25 677.733Z" fill="#50D4D1"/>
<path d="M700.25 1242.18C700.333 1254.6 700.45 1280.83 700.25 1286.43H691.25V1240.43L679 1228.18H714.25L700.25 1242.18Z" fill="#30C3CB"/>
<ellipse cx="1644.08" cy="1246.67" rx="41.2325" ry="16.8" transform="rotate(8.57678 1644.08 1246.67)" fill="#31C4CB"/>
<ellipse cx="1560.45" cy="1199.4" rx="41.2325" ry="16.8" transform="rotate(55.5677 1560.45 1199.4)" fill="#31C4CB"/>
<ellipse cx="1591.54" cy="1162.75" rx="34.1067" ry="13.8435" transform="rotate(62.6536 1591.54 1162.75)" fill="#31C4CB"/>
<ellipse cx="1659.67" cy="1199.4" rx="34.1067" ry="13.8435" transform="rotate(-1.53538 1659.67 1199.4)" fill="#31C4CB"/>
<ellipse cx="1673.97" cy="1152.92" rx="29.0996" ry="12.8876" transform="rotate(-29.7906 1673.97 1152.92)" fill="#31C4CB"/>
<ellipse cx="1623.94" cy="1132.91" rx="28.5123" ry="11.3304" transform="rotate(-98.2233 1623.94 1132.91)" fill="#31C4CB"/>
<ellipse cx="1654.32" cy="1109.21" rx="23.3248" ry="9.26896" transform="rotate(-87.5759 1654.32 1109.21)" fill="#31C4CB"/>
<path d="M189.513 1248.63C77.7491 1224.33 50.753 1188.16 0.00012207 1162.78V1443H426C409.802 1376.59 255.281 1262.92 189.513 1248.63Z" fill="#00699A" fill-opacity="0.2"/>
<ellipse cx="233.992" cy="1238.51" rx="41.2325" ry="16.8" transform="rotate(-20.7762 233.992 1238.51)" fill="#27B2C1"/>
<ellipse cx="137.929" cy="1238.31" rx="41.2325" ry="16.8" transform="rotate(26.2148 137.929 1238.31)" fill="#27B2C1"/>
<ellipse cx="147.062" cy="1191.12" rx="34.1067" ry="13.8435" transform="rotate(33.3007 147.062 1191.12)" fill="#27B2C1"/>
<ellipse cx="224.414" cy="1189.67" rx="34.1067" ry="13.8435" transform="rotate(-30.8883 224.414 1189.67)" fill="#27B2C1"/>
<ellipse cx="214.088" cy="1142.15" rx="29.0996" ry="12.8876" transform="rotate(-59.1436 214.088 1142.15)" fill="#27B2C1"/>
<ellipse cx="160.671" cy="1149.23" rx="28.5123" ry="11.3304" transform="rotate(-127.576 160.671 1149.23)" fill="#27B2C1"/>
<ellipse cx="175.543" cy="1113.68" rx="23.3248" ry="9.26896" transform="rotate(-116.929 175.543 1113.68)" fill="#27B2C1"/>
<ellipse cx="456.959" cy="1394.25" rx="41.2325" ry="16.8" transform="rotate(-49.2471 456.959 1394.25)" fill="#27B2C1"/>
<ellipse cx="425.253" cy="1355.88" rx="34.1067" ry="13.8435" transform="rotate(-59.3592 425.253 1355.88)" fill="#27B2C1"/>
<ellipse cx="384.618" cy="1326.26" rx="29.0996" ry="12.8876" transform="rotate(-87.6145 384.618 1326.26)" fill="#27B2C1"/>
<ellipse cx="346.068" cy="1312.37" rx="23.3248" ry="9.26896" transform="rotate(-145.4 346.068 1312.37)" fill="#27B2C1"/>
<ellipse cx="1333.87" cy="653.289" rx="26.7448" ry="10.8554" transform="rotate(-39.2499 1333.87 653.289)" fill="#4CD4D2"/>
<ellipse cx="1311.93" cy="620.53" rx="22.8185" ry="10.1058" transform="rotate(-67.5051 1311.93 620.53)" fill="#4CD4D2"/>
<ellipse cx="1287.29" cy="599.909" rx="18.2901" ry="7.26825" transform="rotate(-125.29 1287.29 599.909)" fill="#4CD4D2"/>
<ellipse cx="1388.36" cy="972.601" rx="29.0996" ry="12.8876" transform="rotate(-42.2107 1388.36 972.601)" fill="#31C4CB" fill-opacity="0.71"/>
<ellipse cx="1335.19" cy="963.82" rx="28.5123" ry="11.3304" transform="rotate(-110.643 1335.19 963.82)" fill="#31C4CB" fill-opacity="0.71"/>
<ellipse cx="1359.78" cy="934.143" rx="23.3248" ry="9.26896" transform="rotate(-99.996 1359.78 934.143)" fill="#31C4CB" fill-opacity="0.71"/>
<circle cx="1840.25" cy="1262.94" r="12.3832" fill="#31C4CB"/>
<circle cx="96.157" cy="906.617" r="12.3832" fill="#3CD1D0"/>
<circle cx="1237.88" cy="1287.85" r="12.3832" transform="rotate(-82.5595 1237.88 1287.85)" fill="#35BAC4"/>
<circle cx="1796.75" cy="823.856" r="11.75" transform="rotate(-82.5595 1796.75 823.856)" fill="#31C4CB"/>
<circle cx="52.6602" cy="467.531" r="11.75" transform="rotate(-82.5595 52.6602 467.531)" fill="#31C4CB"/>
<circle cx="1829.22" cy="753.464" r="9.83446" transform="rotate(-82.5595 1829.22 753.464)" fill="#91E9E3"/>
<circle cx="85.1318" cy="397.138" r="9.83446" transform="rotate(-82.5595 85.1318 397.138)" fill="#91E9E3"/>
<circle cx="1399.71" cy="730.688" r="7.76499" transform="rotate(-82.5595 1399.71 730.688)" fill="#A1ECE7"/>
<circle cx="1415.1" cy="775.818" r="7.76499" transform="rotate(-82.5595 1415.1 775.818)" fill="#37C8CD"/>
<circle cx="1281.37" cy="1008" r="7.76499" transform="rotate(-82.5595 1281.37 1008)" fill="#37C3C9"/>
<circle cx="1236.24" cy="968.384" r="7.76499" transform="rotate(-82.5595 1236.24 968.384)" fill="#37C3C9"/>
<circle cx="1654.65" cy="1041.26" r="7.76499" transform="rotate(-82.5595 1654.65 1041.26)" fill="#31C4CB"/>
<circle cx="1702.56" cy="552.128" r="11.7973" transform="rotate(-82.5595 1702.56 552.128)" fill="#4BD3D1"/>
<circle cx="1653.75" cy="520.947" r="7.57698" transform="rotate(-82.5595 1653.75 520.947)" fill="#96EAE4"/>
<circle cx="1566.79" cy="520.947" r="7.57698" transform="rotate(-82.5595 1566.79 520.947)" fill="#5EDAD5"/>
<circle cx="1573.32" cy="456.003" r="7.57698" transform="rotate(-82.5595 1573.32 456.003)" fill="#C6F3F0"/>
<circle cx="1570.11" cy="701.352" r="7.57698" transform="rotate(-82.5595 1570.11 701.352)" fill="#4CD3D1"/>
<circle cx="1689.33" cy="289.867" r="7.57698" transform="rotate(-82.5595 1689.33 289.867)" fill="#8EE4E1"/>
<circle cx="1752.49" cy="381.155" r="7.57698" transform="rotate(-82.5595 1752.49 381.155)" fill="#BDF2EE"/>
<circle cx="1276.9" cy="464.499" r="7.57698" transform="rotate(-82.5595 1276.9 464.499)" fill="#C6F3F0"/>
<circle r="7.57698" transform="matrix(-0.129497 -0.99158 -0.99158 0.129497 392.994 609.616)" fill="#C6F3F0"/>
<circle cx="1199.29" cy="389.649" r="7.57698" transform="rotate(-82.5595 1199.29 389.649)" fill="#50D4D4"/>
<circle r="7.57698" transform="matrix(-0.129497 -0.99158 -0.99158 0.129497 470.61 534.767)" fill="#50D4D4"/>
<circle cx="1299.74" cy="212.431" r="7.57698" transform="rotate(-82.5595 1299.74 212.431)" fill="#65DCD7"/>
<circle cx="1250.06" cy="423.15" r="9.96774" transform="rotate(-82.5595 1250.06 423.15)" fill="#A2F3F0"/>
<circle r="9.96774" transform="matrix(-0.129497 -0.99158 -0.99158 0.129497 419.842 568.267)" fill="#A2F3F0"/>
<circle cx="1793.43" cy="352.153" r="9.96774" transform="rotate(-82.5595 1793.43 352.153)" fill="#31C4CB"/>
<circle cx="1287.8" cy="114.107" r="11.1843" transform="rotate(-82.5595 1287.8 114.107)" fill="#3FCACB" fill-opacity="0.26"/>
<circle cx="1201.71" cy="168.832" r="11.1843" transform="rotate(-82.5595 1201.71 168.832)" fill="#A0ECE7"/>
<circle cx="1142.71" cy="62.0864" r="18.0794" transform="rotate(-82.5595 1142.71 62.0864)" fill="white"/>
<circle cx="1867.22" cy="1215.61" r="7.42993" fill="#31C4CB"/>
<circle cx="123.125" cy="859.286" r="7.42993" fill="#27B2C1"/>
<circle cx="1195.54" cy="1265.64" r="7.42993" transform="rotate(-82.5595 1195.54 1265.64)" fill="#5EDAD5"/>
<path d="M1736.27 914.049H1587C1589.58 897.463 1608.45 864.955 1663.3 867.609C1718.14 870.262 1734.8 899.675 1736.27 914.049Z" fill="#31C4CB"/>
<path d="M1707.1 863.472C1703.49 854.353 1702.24 832.332 1726.18 817.204C1727.82 829.07 1726.3 854.936 1707.1 863.472Z" fill="#31C4CB"/>
<path d="M1698.25 878.517C1688.86 875.689 1670.82 862.994 1673.83 834.833C1684.15 840.915 1703.48 858.166 1698.25 878.517Z" fill="#31C4CB"/>
<path d="M1748.84 858.37C1745.9 867.729 1732.98 885.608 1704.86 882.252C1711.07 872.007 1728.56 852.889 1748.84 858.37Z" fill="#31C4CB"/>
<path d="M1244.36 796.479C1242.08 786.937 1243.98 764.963 1269.83 753.404C1269.77 765.382 1264.58 790.767 1244.36 796.479Z" fill="#31C4CB"/>
<path d="M1233.45 810.107C1224.55 805.969 1208.51 790.831 1215.51 763.388C1224.85 770.879 1241.53 790.711 1233.45 810.107Z" fill="#31C4CB"/>
<path d="M1286.4 797.381C1282.15 806.224 1266.82 822.079 1239.46 814.747C1247.07 805.492 1267.1 789.063 1286.4 797.381Z" fill="#31C4CB"/>
<defs>
<linearGradient id="paint0_linear_384_111" x1="0.00010027" y1="923.744" x2="1920" y2="923.743" gradientUnits="userSpaceOnUse">
<stop stop-color="#01C4CB" stop-opacity="0.54"/>
<stop offset="1" stop-color="#46CECD" stop-opacity="0.52"/>
</linearGradient>
</defs>
</svg>
