<svg xmlns="http://www.w3.org/2000/svg" xmlns:xlink="http://www.w3.org/1999/xlink" viewBox="0 0 931.8541 661.13706"><defs><style>.cls-1{fill:url(#linear-gradient);}.cls-2{fill:url(#linear-gradient-2);}.cls-3{fill:url(#linear-gradient-3);}.cls-4,.cls-5{stroke-miterlimit:10;stroke-width:2.21602px;}.cls-4{fill:url(#linear-gradient-4);stroke:url(#linear-gradient-5);}.cls-5{fill:url(#linear-gradient-6);stroke:url(#linear-gradient-7);}.cls-6{fill:url(#New_Gradient_Swatch_copy_3);}</style><linearGradient id="linear-gradient" x1="4268.0592" y1="462.01947" x2="4421.75437" y2="462.01947" gradientTransform="matrix(-1, 0, 0, 1, 4876.02618, 0)" gradientUnits="userSpaceOnUse"><stop offset="0" stop-color="#24b6c9"/><stop offset="0.35655" stop-color="#1a8bac"/><stop offset="0.78457" stop-color="#105e8e"/><stop offset="1" stop-color="#0c4c82"/></linearGradient><linearGradient id="linear-gradient-2" x1="404.44795" y1="304.96024" x2="511.24434" y2="304.96024" gradientUnits="userSpaceOnUse"><stop offset="0" stop-color="#b0d79d"/><stop offset="0.02308" stop-color="#a4d4a1"/><stop offset="0.09736" stop-color="#82ccac"/><stop offset="0.17967" stop-color="#65c5b5"/><stop offset="0.27053" stop-color="#4dc0bc"/><stop offset="0.3736" stop-color="#3abbc2"/><stop offset="0.49593" stop-color="#2eb8c6"/><stop offset="0.65627" stop-color="#26b7c8"/><stop offset="1" stop-color="#24b6c9"/></linearGradient><linearGradient id="linear-gradient-3" x1="4206.4905" y1="327.88106" x2="4477.3174" y2="327.88106" gradientTransform="matrix(-1, 0, 0, 1, 4876.02618, 0)" gradientUnits="userSpaceOnUse"><stop offset="0.42315" stop-color="#24b6c9"/><stop offset="0.50144" stop-color="#2eb8c6"/><stop offset="0.6368" stop-color="#4bbfbd"/><stop offset="0.81295" stop-color="#78caaf"/><stop offset="1" stop-color="#b0d79d"/></linearGradient><linearGradient id="linear-gradient-4" x1="4461.3456" y1="370.78738" x2="4517.38699" y2="370.78738" gradientTransform="matrix(-0.9972, 0.07483, 0.07483, 0.9972, 4876.73182, -271.33805)" xlink:href="#linear-gradient-3"/><linearGradient id="linear-gradient-5" x1="4391.32792" y1="-602.3408" x2="4389.66677" y2="-692.27359" gradientTransform="matrix(-0.84907, 0.52829, 0.52829, 0.84907, 4495.43957, -1334.12091)" xlink:href="#linear-gradient-3"/><linearGradient id="linear-gradient-6" x1="4463.14176" y1="385.01577" x2="4528.80376" y2="385.01577" gradientTransform="matrix(-0.9972, 0.07483, 0.07483, 0.9972, 4876.73182, -271.33805)" xlink:href="#linear-gradient-3"/><linearGradient id="linear-gradient-7" x1="4402.0925" y1="-599.24401" x2="4400.6684" y2="-676.34281" gradientTransform="matrix(-0.84907, 0.52829, 0.52829, 0.84907, 4495.43957, -1334.12091)" xlink:href="#linear-gradient-3"/><linearGradient id="New_Gradient_Swatch_copy_3" x1="488.16206" y1="508.78069" x2="475.74249" y2="461.45403" gradientUnits="userSpaceOnUse"><stop offset="0" stop-color="#24b6c9"/><stop offset="0.42035" stop-color="#26b6c8"/><stop offset="0.57179" stop-color="#2db8c6"/><stop offset="0.67969" stop-color="#38bbc3"/><stop offset="0.76698" stop-color="#49bfbd"/><stop offset="0.84171" stop-color="#5fc4b6"/><stop offset="0.9079" stop-color="#7bcaae"/><stop offset="0.96626" stop-color="#9ad2a4"/><stop offset="1" stop-color="#b0d79d"/></linearGradient></defs><g id="Layer_2" data-name="Layer 2"><path class="cls-1" d="M454.27181,423.02733a125.95134,125.95134,0,0,0,37.37311,54.11746c.01633.01634.0488.049.06514.049a149.87985,149.87985,0,0,0,23.74585,14.21476h.01634c8.38856,3.96588,17.10285,7.396,26.12852,8.6334,55.5598,7.61716,81.64276-31.068,57.13879-66.13209-14.17907-20.28963-7.41145,12.2267-58.167,22.10035-21.722,4.227-39.98428-.97916-54.59091-8.87814C472.0281,439.59219,461.40369,429.588,454.27181,423.02733Z"/><path class="cls-2" d="M510.14736,167.756a70.4377,70.4377,0,0,0-42.05255,1.49218,60.67588,60.67588,0,0,0-31.90545,25.81916,152.04206,152.04206,0,0,0-17.12262,38.67035,212.54579,212.54579,0,0,0-7.32374,41.87921,289.64884,289.64884,0,0,0-.19323,42.73224c.48395,7.115,1.08063,14.276,1.94189,21.32971a213.03082,213.03082,0,0,0,3.81372,20.97327c1.57715,6.93249,3.68341,13.74908,5.82746,20.62963,2.13964,6.85724,4.30737,13.7143,6.74823,20.4419,1.22711,3.38312,2.51129,6.63507,3.9978,9.90948q2.20029,4.8988,4.65448,9.686c1.652,3.18066,3.35455,6.34015,5.15753,9.44647,1.80548,3.1048,3.72022,6.1471,5.68659,9.16351l-.03986-.04589.025.02636.0318.03363.013.01935,4.35907,6.46924-4.93249-6.07452.04455.05267-.02722-.02411-.01178-.01038-.02832-.03582a165.21134,165.21134,0,0,1-12.29248-17.90412q-2.7768-4.67916-5.30585-9.5075c-1.71075-3.18793-3.254-6.57465-4.63476-9.91156-2.78833-6.70936-5.343-13.48011-7.76312-20.2995-1.19941-3.42011-2.37323-6.81842-3.517-10.281q-1.70893-5.19873-3.13013-10.49262a187.62215,187.62215,0,0,1-4.4527-21.46075c-1.027-7.24048-1.81134-14.43536-2.40961-21.69708-.25354-3.62873-.42938-7.26514-.62872-10.89911-.07171-3.64118-.23053-7.28034-.22882-10.9245l.04138-5.46771.02118-2.73413.11243-2.73395c.16266-3.645.256-7.29376.64368-10.92926a208.19216,208.19216,0,0,1,7.95214-43.10364,148.18154,148.18154,0,0,1,18.78968-39.68152c1.0484-1.522,1.96185-3.059,3.218-4.59387,1.222-1.40637,2.41687-2.83179,3.66162-4.21375,1.34375-1.30029,2.6568-2.63018,4.02625-3.89532,1.45813-1.16785,2.8775-2.38013,4.36475-3.4989a64.9376,64.9376,0,0,1,19.84088-9.83453A68.0952,68.0952,0,0,1,510.14736,167.756Z"/><path class="cls-3" d="M438.33146,376.91651a187.67572,187.67572,0,0,0,6.6424,34.30481l.01633.03267c.68532,2.5296,1.45232,5.02663,2.301,7.45831a125.95132,125.95132,0,0,0,37.3731,54.11746c.01634.01634.04881.049.06515.049,10.36343,8.79656,21.03685,14.8676,30.0944,17.78886a34.42126,34.42126,0,0,1-6.33222-3.5741h-.01633c-6.56072-4.58595-9.52788-12.74841-10.33869-16.6403-2.082-9.99353-1.10436-17.4517.13748-21.67031.39541-1.34325,4.24982-13.03017,9.59225-19.6,10.28564-12.64865,17.027-22.62162,65.50923-48.22334,35.355-18.66972,53.30158-55.64152,26.42237-47.24675-64.72334,20.214,33.32333-28.37981,60.48225-77.53689,29.53209-53.45248-13.614-104.63115-100.84628-87.83086-29.18919,5.62163-61.91082,26.41764-77.48659,43.857-15.75048,17.63492-28.43806,39.01686-39.37246,88.5158a201.02651,201.02651,0,0,0-4.61872,37.3241C437.53179,351.91408,437.45011,368.381,438.33146,376.91651Z"/><path class="cls-4" d="M430.80222,449.533a130.73335,130.73335,0,0,1-23.15967-24.049,39.888,39.888,0,0,1-6.87922-15.49281c-.48414-2.264-.71535-4.56892-1.20461-6.83068a2.43365,2.43365,0,0,0-1.2658-1.89687,2.95841,2.95841,0,0,0-.4374,1.03824,11.82571,11.82571,0,0,0-.00829,6.13686,40.70886,40.70886,0,0,0,3.59583,9.66865,60.92664,60.92664,0,0,0,7.15437,10.46843A151.267,151.267,0,0,0,433.979,453.11953a132.03843,132.03843,0,0,0,21.255,13.30972c2.66071,1.3161,5.25915,1.5616-.04344-1.03887A129.13519,129.13519,0,0,1,430.80222,449.533Z"/><path class="cls-5" d="M416.05,456.34233a103.27487,103.27487,0,0,1-15.48213-10.60023,30.43418,30.43418,0,0,1-9.15082-13.39552,48.25617,48.25617,0,0,0-1.70853-5.01334,1.797,1.797,0,0,0-1.47446-1.18377,8.37654,8.37654,0,0,0-.4513,3.26082c.35582,3.54973,2.11031,6.50118,4.07594,9.32714a41.70938,41.70938,0,0,0,9.90727,9.621,132.88623,132.88623,0,0,0,24.92047,14.41867,134.58023,134.58023,0,0,0,29.7,9.15076l.36414-.89909a119.33523,119.33523,0,0,1-19.37512-5.083A121.89872,121.89872,0,0,1,416.05,456.34233Z"/><path class="cls-6" d="M516.62966,498.03492c-4.13107,1.50708-8.9519.92187-13.14749-.53919a57.7548,57.7548,0,0,1-11.852-5.96875c-1.847-1.16528-3.635-2.32885-5.4209-3.5011-1.84283-1.18725-3.61639-2.44519-5.37567-3.68432-3.51086-2.48987-6.90729-5.00366-10.38672-7.23584-1.73065-1.129-3.48352-2.1886-5.277-3.12891l-1.34461-.69989a4.80034,4.80034,0,0,0-.6048-.2774l-.551-.23572c-.367-.161-.7558-.21643-1.13092-.34546-.3822-.07257-.76654-.12048-1.15045-.187a7.134,7.134,0,0,0-4.26453.97443,5.35576,5.35576,0,0,0-2.2782,3.44165c-.01983.38635-.08307.76916-.09442,1.17382.04321.411.01654.825.09247,1.25159.0957.41773.16785.87854.26892,1.27759a5.90937,5.90937,0,0,0,.41712,1.07227,5.74969,5.74969,0,0,0,3.73437,2.91186,6.0133,6.0133,0,0,0,2.61084.08948,5.18588,5.18588,0,0,0,2.40759-1.10987,5.73613,5.73613,0,0,0,1.85254-5.42272,5.952,5.952,0,0,1,.69708,3.26611,6.61355,6.61355,0,0,1-1.246,3.33813,6.733,6.733,0,0,1-2.97534,2.27515,8.81939,8.81939,0,0,1-3.74933.65393,9.25017,9.25017,0,0,1-7.86584-5.51807c-.253-.61218-.431-1.19885-.64252-1.80871a19.2342,19.2342,0,0,1-.3999-1.92639,18.24014,18.24014,0,0,1-.07111-2.04187,10.62612,10.62612,0,0,1,1.15271-4.09681,10.45038,10.45038,0,0,1,2.76489-3.329,12.46094,12.46094,0,0,1,7.88745-2.48505,20.46609,20.46609,0,0,1,2.04059.2182,19.08346,19.08346,0,0,1,1.968.51465l.94556.35779a9.21026,9.21026,0,0,1,.8695.366l1.53852.733a66.77353,66.77353,0,0,1,5.83844,3.36608c3.73407,2.42951,7.19006,5.10273,10.54779,7.76117l5.00335,3.94031c1.71479,1.31262,3.39948,2.67322,5.05768,3.98645a79.53084,79.53084,0,0,0,10.235,7.19641A22.57571,22.57571,0,0,0,516.62966,498.03492Z"/></g></svg>