<svg xmlns="http://www.w3.org/2000/svg" xmlns:xlink="http://www.w3.org/1999/xlink" viewBox="0 0 931.8541 661.13706"><defs><style>.cls-1{fill:url(#linear-gradient);}.cls-2{fill:url(#linear-gradient-2);}.cls-3{fill:url(#linear-gradient-3);}.cls-4,.cls-5{stroke-miterlimit:10;stroke-width:3.3219px;}.cls-4{fill:url(#linear-gradient-4);stroke:url(#linear-gradient-5);}.cls-5{fill:url(#linear-gradient-6);stroke:url(#linear-gradient-7);}.cls-6{fill:url(#New_Gradient_Swatch_copy_3);}</style><linearGradient id="linear-gradient" x1="4333.84129" y1="464.19657" x2="4480.3398" y2="464.19657" gradientTransform="matrix(-0.99877, 0.04965, 0.04965, 0.99877, 4853.10875, -207.37959)" gradientUnits="userSpaceOnUse"><stop offset="0" stop-color="#24b6c9"/><stop offset="0.35655" stop-color="#1a8bac"/><stop offset="0.78457" stop-color="#105e8e"/><stop offset="1" stop-color="#0c4c82"/></linearGradient><linearGradient id="linear-gradient-2" x1="336.11382" y1="292.19224" x2="459.0233" y2="292.19224" gradientUnits="userSpaceOnUse"><stop offset="0" stop-color="#b0d79d"/><stop offset="0.02308" stop-color="#a4d4a1"/><stop offset="0.09736" stop-color="#82ccac"/><stop offset="0.17967" stop-color="#65c5b5"/><stop offset="0.27053" stop-color="#4dc0bc"/><stop offset="0.3736" stop-color="#3abbc2"/><stop offset="0.49593" stop-color="#2eb8c6"/><stop offset="0.65627" stop-color="#26b7c8"/><stop offset="1" stop-color="#24b6c9"/></linearGradient><linearGradient id="linear-gradient-3" x1="4234.82906" y1="318.5713" x2="4546.51742" y2="318.5713" gradientTransform="matrix(-1, 0, 0, 1, 4876.02618, 0)" gradientUnits="userSpaceOnUse"><stop offset="0.42315" stop-color="#24b6c9"/><stop offset="0.50144" stop-color="#2eb8c6"/><stop offset="0.6368" stop-color="#4bbfbd"/><stop offset="0.81295" stop-color="#78caaf"/><stop offset="1" stop-color="#b0d79d"/></linearGradient><linearGradient id="linear-gradient-4" x1="4522.6977" y1="365.75229" x2="4606.70601" y2="365.75229" gradientTransform="matrix(-0.9972, 0.07483, 0.07483, 0.9972, 4876.73182, -271.33805)" xlink:href="#linear-gradient-3"/><linearGradient id="linear-gradient-5" x1="4457.39713" y1="-619.22786" x2="4454.90699" y2="-754.04075" gradientTransform="matrix(-0.84907, 0.52829, 0.52829, 0.84907, 4495.43957, -1334.12091)" xlink:href="#linear-gradient-3"/><linearGradient id="linear-gradient-6" x1="4525.39022" y1="387.08122" x2="4623.8202" y2="387.08122" gradientTransform="matrix(-0.9972, 0.07483, 0.07483, 0.9972, 4876.73182, -271.33805)" xlink:href="#linear-gradient-3"/><linearGradient id="linear-gradient-7" x1="4473.53367" y1="-614.58565" x2="4471.39889" y2="-730.15987" gradientTransform="matrix(-0.84907, 0.52829, 0.52829, 0.84907, 4495.43957, -1334.12091)" xlink:href="#linear-gradient-3"/><linearGradient id="New_Gradient_Swatch_copy_3" x1="442.83348" y1="546.53342" x2="424.21603" y2="475.58884" gradientUnits="userSpaceOnUse"><stop offset="0" stop-color="#24b6c9"/><stop offset="0.42035" stop-color="#26b6c8"/><stop offset="0.57179" stop-color="#2db8c6"/><stop offset="0.67969" stop-color="#38bbc3"/><stop offset="0.76698" stop-color="#49bfbd"/><stop offset="0.84171" stop-color="#5fc4b6"/><stop offset="0.9079" stop-color="#7bcaae"/><stop offset="0.96626" stop-color="#9ad2a4"/><stop offset="1" stop-color="#b0d79d"/></linearGradient></defs><g id="Layer_2" data-name="Layer 2"><path class="cls-1" d="M399.52581,442.117a122.00179,122.00179,0,0,0,38.75942,50.55821c.01659.015.04957.04505.06537.04428,1.46971-.07194,5.35152,3.36107,6.65367,4.13178,22.56135,13.35358,50.68248,19.86555,75.27486,7.10933,22.013-11.41828,36.79861-36.00232,19.535-58.26389-14.69338-18.94717-6.5821,12.18516-55.21048,24.17861-20.81155,5.13414-38.72977.97586-53.24083-5.96343C417.50081,457.28857,406.74108,448.121,399.52581,442.117Z"/><path class="cls-2" d="M457.76081,134.28711a81.06456,81.06456,0,0,0-48.39728,1.71728,69.83042,69.83042,0,0,0-36.71923,29.71473,174.98463,174.98463,0,0,0-19.70606,44.50476,244.62057,244.62057,0,0,0-8.42871,48.19781,333.35849,333.35849,0,0,0-.22235,49.17951c.34741,4.09582.52148,8.20611.94934,12.29827.41858,4.08771.74866,8.21033,1.28552,12.24958a245.18867,245.18867,0,0,0,4.3891,24.13769q1.391,5.98233,3.10419,11.89008c1.15082,3.93609,2.372,7.91327,3.60248,11.85211,2.46252,7.89178,4.95727,15.78345,7.76642,23.52606,1.41223,3.89356,2.89013,7.63617,4.601,11.4046q2.53226,5.638,5.35669,11.14746c1.90137,3.66053,3.86072,7.29676,5.93573,10.87171,2.07788,3.57324,4.28149,7.07458,6.54449,10.546l-.0459-.05286.02881.03052.03656.03857.015.02234,5.01678,7.44519-5.6767-6.991.05134.06067-.03138-.02784-.01355-.012-.03259-.04114a190.15312,190.15312,0,0,1-14.14716-20.60547q-3.19574-5.38512-6.10638-10.94189c-.95654-1.84247-1.9397-3.72034-2.81415-5.64215-.88257-1.91272-1.71124-3.83594-2.51989-5.76489-3.209-7.72168-6.14911-15.51392-8.93439-23.36225-1.38031-3.936-2.73126-7.8471-4.04767-11.83215q-1.96674-5.98306-3.60236-12.07568A215.91617,215.91617,0,0,1,339.874,333.0741c-1.18194-8.33283-2.08471-16.61329-2.77319-24.97059-.29181-4.17626-.4942-8.36132-.72357-12.54357-.08252-4.19056-.26532-8.37879-.26337-12.57276l.04767-6.29266.02429-3.14667.12946-3.14636c.18713-4.195.29455-8.39429.74084-12.57825a239.60164,239.60164,0,0,1,9.15186-49.607,170.53731,170.53731,0,0,1,21.62463-45.66858c1.20654-1.75159,2.25787-3.52051,3.70349-5.28693,1.40631-1.61859,2.7815-3.259,4.214-4.84949,1.54645-1.49646,3.05762-3.0271,4.63367-4.483,1.67822-1.34411,3.31171-2.73932,5.02331-4.02685a74.73557,74.73557,0,0,1,22.83435-11.3183A78.369,78.369,0,0,1,457.76081,134.28711Z"/><path class="cls-3" d="M375.10958,375.00505a215.99241,215.99241,0,0,0,7.64459,39.48061l.0188.0376c.78871,2.91125,1.67143,5.785,2.64816,8.58359,9.09086,26.31422,25.69425,47.59464,43.01183,62.28252.0188.0188.05617.0564.075.0564,11.927,10.12377,24.21083,17.11078,34.63494,20.47279a39.61378,39.61378,0,0,1-7.28759-4.11336h-.0188c-7.55058-5.27786-10.96541-14.67183-11.89856-19.15092-2.39611-11.50132-1.271-20.08476.15822-24.93986.45508-1.54591,4.891-14.99611,11.0395-22.55713,11.83751-14.557,19.596-26.0347,75.393-55.49911,40.68926-21.48655,61.34354-64.03654,30.40889-54.37519-74.48858,23.26387,38.351-32.66166,69.6076-89.23539,33.9878-61.51721-15.668-120.41756-116.06163-101.08248-33.59315,6.46979-71.25171,30.40343-89.17751,50.47394-18.12685,20.29562-32.72869,44.90359-45.31284,101.87077a231.35638,231.35638,0,0,0-5.31557,42.95543C374.18926,346.23033,374.09526,365.18175,375.10958,375.00505Z"/><path class="cls-4" d="M356.84875,457.71868a195.97408,195.97408,0,0,1-34.71729-36.05041,59.79367,59.79367,0,0,1-10.31223-23.22435c-.72575-3.39377-1.07234-6.849-1.80576-10.23947A3.6481,3.6481,0,0,0,308.116,385.361a4.435,4.435,0,0,0-.65568,1.55636,17.72719,17.72719,0,0,0-.01242,9.19941,61.02361,61.02361,0,0,0,5.39029,14.49369A91.33148,91.33148,0,0,0,323.56286,426.303a226.75489,226.75489,0,0,0,38.04806,36.79205,197.93056,197.93056,0,0,0,31.86215,19.95181c3.98852,1.97289,7.88368,2.3409-.06512-1.55731A193.57834,193.57834,0,0,1,356.84875,457.71868Z"/><path class="cls-5" d="M334.73459,467.92619A154.80988,154.80988,0,0,1,311.52626,452.036a45.622,45.622,0,0,1-13.71745-20.08042,72.34022,72.34022,0,0,0-2.56115-7.51519,2.69377,2.69377,0,0,0-2.21028-1.77452,12.55652,12.55652,0,0,0-.67653,4.8881c.5334,5.32118,3.16345,9.74553,6.11,13.98176,4.006,5.75973,9.23667,10.3074,14.8514,14.42233a199.20215,199.20215,0,0,0,37.3568,21.61418,201.74,201.74,0,0,0,44.52152,13.71735l.54587-1.34777a178.887,178.887,0,0,1-29.0441-7.61963A182.73077,182.73077,0,0,1,334.73459,467.92619Z"/><path class="cls-6" d="M485.50752,530.42505c-.77063.24035-1.55677.47436-2.35633.694a22.52547,22.52547,0,0,1-2.44616.44165,15.489,15.489,0,0,1-2.49939.17114l-1.26526.02893c-.42316.00549-.83612-.04956-1.25745-.07226a24.23632,24.23632,0,0,1-2.52246-.2461l-2.5003-.43884c-1.62958-.40418-3.27985-.82239-4.86231-1.38428a86.81935,86.81935,0,0,1-17.7655-8.94983c-2.76886-1.74682-5.449-3.49109-8.12616-5.24841-2.76251-1.77966-5.42108-3.66541-8.05829-5.52295l-7.80585-5.56372c-2.58-1.82983-5.14978-3.62048-7.76434-5.28308-2.5943-1.69226-5.22186-3.28064-7.91034-4.69019l-2.01562-1.04919c-.16236-.08057-.34968-.188-.49152-.24683l-.4151-.16906-.82587-.35328c-.55023-.24133-1.133-.32446-1.69537-.51794-.57294-.10877-1.149-.18066-1.72455-.28015a10.69427,10.69427,0,0,0-6.39276,1.46057,7.74037,7.74037,0,0,0-2.18671,2.19031,8.10333,8.10333,0,0,0-1.22833,2.96887c-.02979.5791-.12457,1.153-.1416,1.75964.06476.61621.02484,1.2367.13861,1.87622.14349.62622.25165,1.317.4032,1.91516a8.85475,8.85475,0,0,0,.62524,1.60743,8.60616,8.60616,0,0,0,5.59827,4.36279,9.18123,9.18123,0,0,0,3.90765.1178,7.631,7.631,0,0,0,3.61487-1.64539,8.5984,8.5984,0,0,0,2.777-8.12878,8.92313,8.92313,0,0,1,1.045,4.89612,9.9146,9.9146,0,0,1-1.86786,5.004,10.214,10.214,0,0,1-4.4544,3.429,13.06157,13.06157,0,0,1-5.62641.96374,13.87035,13.87035,0,0,1-11.791-8.2738c-.37921-.91772-.64606-1.79712-.96308-2.7113a28.83967,28.83967,0,0,1-.59955-2.8877,27.35226,27.35226,0,0,1-.10656-3.06079l.21533-1.56616a8.01546,8.01546,0,0,1,.32489-1.55957,13.982,13.982,0,0,1,1.18774-3.01575,15.66738,15.66738,0,0,1,4.14472-4.99023,18.67979,18.67979,0,0,1,11.82355-3.72522,30.69938,30.69938,0,0,1,3.059.32715,28.62564,28.62564,0,0,1,2.95013.77148l1.41742.53638.70654.27563c.23065.09253.39581.18189.59686.27307.76813.36621,1.54657.71912,2.30628,1.09876a100.07462,100.07462,0,0,1,8.75207,5.046q4.18626,2.7453,8.12073,5.6842c2.60883,1.9762,5.1806,3.947,7.69086,5.95008l7.50018,5.90661c2.57056,1.96765,5.09607,4.00733,7.58167,5.976a118.70416,118.70416,0,0,0,15.34387,10.78516C473.037,528.45288,478.95161,530.5708,485.50752,530.42505Z"/></g></svg>