<svg width="329" height="130" viewBox="0 0 329 130" fill="none" xmlns="http://www.w3.org/2000/svg">
<path d="M328.136 129.137L311.224 125.398L322.918 112.621L328.136 129.137ZM0.400328 0.606636C1.25237 0.63449 2.10187 0.663073 2.94885 0.692392L2.84507 3.6906C2.00003 3.66134 1.15245 3.63283 0.302308 3.60503L0.400328 0.606636ZM18.0289 1.30563C19.7195 1.3851 21.3997 1.46788 23.0698 1.554L22.9153 4.55002C21.2498 4.46413 19.5741 4.38158 17.888 4.30232L18.0289 1.30563ZM38.1271 2.44063C39.797 2.55178 41.4565 2.6667 43.1059 2.78546L42.8905 5.77772C41.2466 5.65935 39.5925 5.5448 37.9278 5.43401L38.1271 2.44063ZM58.1756 4.00401C59.8623 4.15606 61.5381 4.31265 63.2033 4.47384L62.9142 7.45988C61.2557 7.29934 59.5864 7.14336 57.9062 6.99189L58.1756 4.00401ZM78.2004 6.08528C79.8767 6.2841 81.542 6.4882 83.1967 6.69764L82.8199 9.67389C81.1732 9.46545 79.5157 9.26231 77.8471 9.0644L78.2004 6.08528ZM98.1705 8.78477C99.831 9.03848 101.481 9.29829 103.12 9.56429L102.64 12.5256C101.01 12.2611 99.3689 12.0027 97.7174 11.7504L98.1705 8.78477ZM118.012 12.2078C119.672 12.5288 121.32 12.8569 122.959 13.1923L122.357 16.1314C120.729 15.7982 119.091 15.4722 117.443 15.1532L118.012 12.2078ZM137.698 16.4738C139.345 16.8711 140.982 17.2768 142.609 17.6908L141.87 20.5982C140.255 20.1872 138.63 19.7846 136.995 19.3901L137.698 16.4738ZM157.172 21.6979C158.795 22.1792 160.409 22.6699 162.013 23.17L161.121 26.0342C159.529 25.5381 157.929 25.0515 156.319 24.574L157.172 21.6979ZM176.348 27.9728C177.936 28.5433 179.517 29.1241 181.09 29.7154L180.035 32.5236C178.475 31.9376 176.909 31.3618 175.334 30.7962L176.348 27.9728ZM195.128 35.351C196.676 36.013 198.217 36.6861 199.753 37.3703L198.532 40.1106C197.01 39.4325 195.482 38.7654 193.948 38.1093L195.128 35.351ZM213.435 43.8373C214.936 44.5882 216.433 45.3507 217.926 46.1248L216.544 48.788C215.065 48.0205 213.581 47.2647 212.093 46.5204L213.435 43.8373ZM231.21 53.3805C232.662 54.2135 234.11 55.0582 235.557 55.9149L234.029 58.4963C232.593 57.6465 231.156 56.8086 229.717 55.9824L231.21 53.3805ZM248.426 63.8818C249.829 64.7876 251.23 65.705 252.632 66.6343L250.973 69.1344C249.582 68.2118 248.191 67.301 246.799 66.4018L248.426 63.8818ZM265.091 75.2131C266.45 76.1822 267.809 77.1627 269.169 78.1548L267.401 80.5785C266.049 79.5925 264.698 78.6181 263.349 77.6552L265.091 75.2131ZM281.243 87.2389C282.566 88.2637 283.891 89.2995 285.218 90.3465L283.359 92.7017C282.039 91.6601 280.721 90.6297 279.406 89.6104L281.243 87.2389ZM296.945 99.8351C298.237 100.905 299.531 101.985 300.828 103.077L298.898 105.373C297.605 104.286 296.317 103.21 295.031 102.145L296.945 99.8351ZM312.277 112.901C313.528 113.995 314.783 115.099 316.042 116.213L314.054 118.46C312.8 117.35 311.549 116.249 310.302 115.159L312.277 112.901Z" fill="#1D293F" fill-opacity="0.7"/>
</svg>
