<svg width="337" height="118" viewBox="0 0 337 118" fill="none" xmlns="http://www.w3.org/2000/svg">
<path d="M336.147 108.106L320.628 100.415L321.727 117.7L336.147 108.106ZM0.245409 2.74552C0.926634 3.25804 1.60634 3.76841 2.28454 4.27662L4.08355 1.87587C3.4069 1.36882 2.72873 0.859614 2.04903 0.348233L0.245409 2.74552ZM14.4168 13.254C15.7836 14.2521 17.1444 15.2411 18.4995 16.2211L20.2576 13.7903C18.9063 12.8129 17.5491 11.8266 16.1859 10.8312L14.4168 13.254ZM30.7854 24.9712C32.156 25.9317 33.5209 26.8827 34.8802 27.8243L36.5885 25.3582C35.2337 24.4197 33.8732 23.4718 32.507 22.5144L30.7854 24.9712ZM47.3839 36.3236C48.7932 37.2627 50.1969 38.1914 51.5952 39.1099L53.2422 36.6025C51.8495 35.6877 50.4513 34.7626 49.0474 33.8271L47.3839 36.3236ZM64.2887 47.2577C65.7192 48.1538 67.1445 49.039 68.5648 49.9133L70.1374 47.3585C68.7239 46.4884 67.3052 45.6073 65.8813 44.7153L64.2887 47.2577ZM81.5384 57.6758C82.9911 58.5193 84.4392 59.3513 85.883 60.1719L87.3654 57.5637C85.9297 56.7478 84.4896 55.9204 83.0448 55.0815L81.5384 57.6758ZM99.1419 67.4498C100.636 68.2402 102.126 69.0182 103.612 69.7842L104.986 67.1173C103.51 66.3564 102.029 65.5834 100.545 64.7981L99.1419 67.4498ZM117.152 76.4695C118.685 77.1927 120.214 77.903 121.741 78.6006L122.988 75.8719C121.472 75.1794 119.954 74.4744 118.433 73.7565L117.152 76.4695ZM135.599 84.6099C137.165 85.2524 138.729 85.8818 140.293 86.4983L141.393 83.7074C139.843 83.096 138.291 82.4717 136.737 81.8344L135.599 84.6099ZM154.471 91.7446C156.066 92.2961 157.662 92.8347 159.258 93.3604L160.197 90.511C158.614 89.9899 157.033 89.456 155.451 88.9092L154.471 91.7446ZM173.727 97.7718C175.348 98.2265 176.971 98.6687 178.597 99.0986L179.364 96.1983C177.753 95.7723 176.144 95.334 174.538 94.8833L173.727 97.7718ZM193.31 102.639C194.95 102.995 196.594 103.34 198.243 103.673L198.836 100.732C197.202 100.402 195.573 100.061 193.947 99.7073L193.31 102.639ZM213.141 106.35C214.794 106.611 216.452 106.861 218.116 107.101L218.544 104.131C216.893 103.894 215.248 103.645 213.609 103.386L213.141 106.35ZM233.137 108.963C234.797 109.137 236.464 109.301 238.139 109.456L238.414 106.468C236.752 106.315 235.097 106.152 233.449 105.98L233.137 108.963ZM253.224 110.585C254.89 110.681 256.563 110.77 258.245 110.85L258.387 107.853C256.716 107.774 255.053 107.686 253.398 107.59L253.224 110.585ZM273.347 111.344C275.02 111.375 276.701 111.398 278.391 111.415L278.42 108.415C276.739 108.398 275.066 108.375 273.402 108.344L273.347 111.344ZM293.477 111.376C295.153 111.352 296.839 111.322 298.534 111.285L298.47 108.286C296.782 108.322 295.103 108.352 293.434 108.376L293.477 111.376ZM313.613 110.81C315.274 110.742 316.944 110.669 318.623 110.591L318.483 107.594C316.809 107.672 315.145 107.745 313.49 107.813L313.613 110.81Z" fill="#1D293F" fill-opacity="0.7"/>
</svg>
