<svg width="1920" height="1024" viewBox="0 0 1920 1024" fill="none" xmlns="http://www.w3.org/2000/svg">
<path fill-rule="evenodd" clip-rule="evenodd" d="M0 328.229L28.8 309.338C57.6 290.447 115.2 252.665 172.8 252.665C230.4 252.665 292.8 290.447 350.4 281.001C408 271.556 465.6 214.883 523.2 177.102C580.8 139.32 638.4 120.429 696 120.429C758.4 120.429 816 139.32 873.6 167.656C931.2 195.993 988.8 233.774 1046.4 205.438C1104 177.102 1161.6 82.6475 1224 35.4203C1281.6 -11.8068 1339.2 -11.8068 1396.8 35.4203C1454.4 82.6475 1512 177.102 1569.6 224.329C1627.2 271.556 1689.6 271.556 1747.2 243.22C1804.8 214.883 1862.4 158.211 1891.2 129.875L1920 101.538V554.919H1891.2C1862.4 554.919 1804.8 554.919 1747.2 554.919C1689.6 554.919 1627.2 554.919 1569.6 554.919C1512 554.919 1454.4 554.919 1396.8 554.919C1339.2 554.919 1281.6 554.919 1224 554.919C1161.6 554.919 1104 554.919 1046.4 554.919C988.8 554.919 931.2 554.919 873.6 554.919C816 554.919 758.4 554.919 696 554.919C638.4 554.919 580.8 554.919 523.2 554.919C465.6 554.919 408 554.919 350.4 554.919C292.8 554.919 230.4 554.919 172.8 554.919C115.2 554.919 57.6 554.919 28.8 554.919H0V328.229Z" fill="url(#paint0_linear_820_2)" fill-opacity="0.2"/>
<path fill-rule="evenodd" clip-rule="evenodd" d="M1920 882.046L1885.09 825.645C1850.18 774.884 1780.36 662.081 1703.56 673.361C1633.75 679.002 1563.93 803.084 1494.11 820.005C1424.29 836.925 1354.47 741.043 1277.67 741.043C1207.85 741.043 1138.04 836.925 1068.22 842.565C998.4 853.846 921.6 774.884 851.782 735.403C781.964 695.922 712.145 695.922 642.327 741.043C565.527 791.804 495.709 882.046 425.891 938.447C356.073 989.209 286.255 1006.13 216.436 1017.41C139.636 1023.05 69.8182 1023.05 34.9091 1023.05H-4.76837e-06V554.919H34.9091C69.8182 554.919 139.636 554.919 216.436 554.919C286.255 554.919 356.073 554.919 425.891 554.919C495.709 554.919 565.527 554.919 642.327 554.919C712.145 554.919 781.964 554.919 851.782 554.919C921.6 554.919 998.4 554.919 1068.22 554.919C1138.04 554.919 1207.85 554.919 1277.67 554.919C1354.47 554.919 1424.29 554.919 1494.11 554.919C1563.93 554.919 1633.75 554.919 1703.56 554.919C1780.36 554.919 1850.18 554.919 1885.09 554.919H1920V882.046Z" fill="url(#paint1_linear_820_2)" fill-opacity="0.2"/>
<defs>
<linearGradient id="paint0_linear_820_2" x1="960" y1="0" x2="960" y2="554.919" gradientUnits="userSpaceOnUse">
<stop stop-color="#B1D89F"/>
<stop offset="0.354167" stop-color="#8AC2E6"/>
<stop offset="0.9999" stop-color="#21B8CB"/>
</linearGradient>
<linearGradient id="paint1_linear_820_2" x1="960" y1="1023.05" x2="960" y2="554.919" gradientUnits="userSpaceOnUse">
<stop stop-color="#B1D89F"/>
<stop offset="0.354167" stop-color="#8AC2E6"/>
<stop offset="0.9999" stop-color="#21B8CB"/>
</linearGradient>
</defs>
</svg>
