<svg width="1920" height="555" viewBox="0 0 1920 555" fill="none" xmlns="http://www.w3.org/2000/svg">
<path fill-rule="evenodd" clip-rule="evenodd" d="M0 328.229L28.8 309.338C57.6 290.447 115.2 252.665 172.8 252.665C230.4 252.665 292.8 290.447 350.4 281.001C408 271.556 465.6 214.883 523.2 177.102C580.8 139.32 638.4 120.429 696 120.429C758.4 120.429 816 139.32 873.6 167.656C931.2 195.993 988.8 233.774 1046.4 205.438C1104 177.102 1161.6 82.6475 1224 35.4203C1281.6 -11.8068 1339.2 -11.8068 1396.8 35.4203C1454.4 82.6475 1512 177.102 1569.6 224.329C1627.2 271.556 1689.6 271.556 1747.2 243.22C1804.8 214.883 1862.4 158.211 1891.2 129.875L1920 101.538V554.919H1891.2C1862.4 554.919 1804.8 554.919 1747.2 554.919C1689.6 554.919 1627.2 554.919 1569.6 554.919C1512 554.919 1454.4 554.919 1396.8 554.919C1339.2 554.919 1281.6 554.919 1224 554.919C1161.6 554.919 1104 554.919 1046.4 554.919C988.8 554.919 931.2 554.919 873.6 554.919C816 554.919 758.4 554.919 696 554.919C638.4 554.919 580.8 554.919 523.2 554.919C465.6 554.919 408 554.919 350.4 554.919C292.8 554.919 230.4 554.919 172.8 554.919C115.2 554.919 57.6 554.919 28.8 554.919H0V328.229Z" fill="url(#paint0_linear_588_5)" fill-opacity="0.2"/>
<defs>
<linearGradient id="paint0_linear_588_5" x1="960" y1="0" x2="960" y2="554.919" gradientUnits="userSpaceOnUse">
<stop stop-color="#B1D89F"/>
<stop offset="0.354167" stop-color="#8AC2E6"/>
<stop offset="0.9999" stop-color="#21B8CB"/>
</linearGradient>
</defs>
</svg>
