<svg width="1920" height="469" viewBox="0 0 1920 469" fill="none" xmlns="http://www.w3.org/2000/svg">
<path fill-rule="evenodd" clip-rule="evenodd" d="M1920 327.997L1885.09 271.596C1850.18 220.834 1780.36 108.032 1703.56 119.312C1633.75 124.952 1563.93 249.035 1494.11 265.955C1424.29 282.876 1354.47 186.994 1277.67 186.994C1207.85 186.994 1138.04 282.876 1068.22 288.516C998.4 299.796 921.6 220.834 851.782 181.354C781.964 141.873 712.146 141.873 642.327 186.994C565.527 237.755 495.709 327.997 425.891 384.398C356.073 435.159 286.255 452.08 216.436 463.36C139.636 469 69.8182 469 34.9091 469H0V0.869476H34.9091C69.8182 0.869476 139.636 0.869476 216.436 0.869476C286.255 0.869476 356.073 0.869476 425.891 0.869476C495.709 0.869476 565.527 0.869476 642.327 0.869476C712.146 0.869476 781.964 0.869476 851.782 0.869476C921.6 0.869476 998.4 0.869476 1068.22 0.869476C1138.04 0.869476 1207.85 0.869476 1277.67 0.869476C1354.47 0.869476 1424.29 0.869476 1494.11 0.869476C1563.93 0.869476 1633.75 0.869476 1703.56 0.869476C1780.36 0.869476 1850.18 0.869476 1885.09 0.869476H1920V327.997Z" fill="url(#paint0_linear_588_6)" fill-opacity="0.2"/>
<defs>
<linearGradient id="paint0_linear_588_6" x1="960" y1="469" x2="960" y2="0.869476" gradientUnits="userSpaceOnUse">
<stop stop-color="#B1D89F"/>
<stop offset="0.354167" stop-color="#8AC2E6"/>
<stop offset="0.9999" stop-color="#21B8CB"/>
</linearGradient>
</defs>
</svg>
