<svg width="92" height="77" viewBox="0 0 92 77" fill="none" xmlns="http://www.w3.org/2000/svg">
<path d="M45.7975 0.75C20.6423 0.75 0.25 17.7879 0.25 38.8053C0.25 59.8226 20.6423 76.8605 45.7975 76.8605C70.9527 76.8605 91.345 59.8226 91.345 38.8053C91.345 17.7879 70.9527 0.75 45.7975 0.75ZM44.2518 14.8163H47.3432V22.4301H44.2518V14.8163ZM31.6084 17.1018L36.8348 23.336L34.2995 24.8225L29.0731 18.5884L31.6084 17.1018ZM59.9866 17.1018L62.5219 18.5884L57.2955 24.8225L54.7602 23.336L59.9866 17.1018ZM45.7975 24.5113C53.3701 24.5113 59.5084 28.3517 59.5084 33.0914L51.7189 52.8019H39.8761L32.0866 33.0914C32.0866 28.3516 38.2254 24.5113 45.7975 24.5113ZM21.1722 26.7969L29.7346 29.4029L28.6727 31.8325L20.1158 29.2264L21.1722 26.7969ZM70.4227 26.7969L71.4791 29.2264L62.9167 31.8325L61.8603 29.4029L70.4227 26.7969ZM29.3232 37.9134L30.1238 40.4126L21.3224 42.3823L20.5217 39.883L29.3232 37.9134ZM62.2718 37.9134L71.0732 39.883L70.2726 42.3823L61.4711 40.4126L62.2718 37.9134ZM39.7038 54.242H51.8913V57.6656H39.7038V54.242ZM39.7038 59.3705H51.8913V62.7941H39.7038V59.3705Z" fill="#CCCCCC"/>
</svg>
