<svg width="484" height="256" viewBox="0 0 484 256" fill="none" xmlns="http://www.w3.org/2000/svg">
<path d="M306.8 98.8C306.4 94.1 305.3 89.4 304.7 84.8C304 79.7 303.1 74.6 302.3 69.5C301.9 67.1 300.7 62 299.6 56.8C299.3 55.2 299 53.5 298.7 51.9C298.1 48.9 295.8 39.5 295.4 38.3C295.3 34.9 295.3 31.4 295.7 28C296.1 24.7 295.9 21.1 292.8 19.5C290.9 18.5 288.8 17.8 286.8 16.9C285.1 16.2 283.2 15.7 281.5 15.5C279.2 15.3 278.6 17.9 278.3 20C276.9 19.3 275.2 19.8 274.5 21.4C274.1 22.3 274 23.4 274 24.4C274 25.8 274 27.2 274 28.6C274.1 29.9 274.4 31.2 275.1 32.2C276.1 33.6 277.8 34 279 35.3C280.2 36.6 281.2 38.2 282.5 39.5C283.1 40 283.5 40.2 284.1 40.3C284.7 42.4 285.9 55.8 286.5 62.4C286.6 63.3 286.6 64.2 286.7 65.1C287 68.2 287.4 71.3 287.4 74.4C287.5 80.1 286.9 85.8 286.3 91.5C286 94.4 286 97.2 286.1 100.1C285.5 101.3 284.7 102.5 284 103.6C282.8 105.4 281.8 107.4 280.6 109.2C278.6 112.1 277 115.3 275 118.2C274.6 117.9 273.5 116.8 272.9 117.1C271.4 117.9 268.8 120.4 268 121.8C267.9 121.9 267.8 122.1 267.6 122.3C263.3 127.9 255.7 128.9 250 124.9C248.6 123.9 247.3 122.9 246.4 122.2C246 120.1 245.6 117.4 246 115.3C246.4 113.2 247.2 111.3 247.4 109.1C247.5 108.1 247.6 107.1 247.6 106.1C249 106.1 250.3 105.9 251.3 105C252.2 104.2 252.6 103.1 252.8 101.9C252.9 101.1 253 100.3 252.9 99.6C252.8 99.1 252.6 98.6 252.4 98.1C252.8 98.6 253.2 99.2 253.8 99.6C254 99.7 254.2 99.6 254.2 99.4C254.6 97.9 254.4 96.6 254.2 95.2C254 94.1 254.3 93.7 255.4 93.8C255.9 93.9 256.4 94 256.9 93.9C257.1 93.9 257.2 93.7 257.1 93.5C256.5 91.7 255.5 90 255.1 88.2C256.4 89.2 258 89.9 259.2 88.6C259.3 88.5 259.3 88.3 259.2 88.2C258.1 86.3 256.6 84.6 255.9 82.5C255.2 80.1 254.9 77.6 254.7 75.2C254.3 70.8 253.1 66.7 250.9 63C249.1 59.9 246.4 56.7 243.1 55.4C239.5 54 235.4 54.6 231.6 55C229.6 55.3 227.7 55.9 225.8 56.8C225.2 57.1 224.4 57.5 223.9 58.1C223.5 58.3 223.2 58.5 222.8 58.7C221.4 59.6 220 60.5 218.6 61.5C216.3 63.2 214.1 65.5 212.5 67.9C210.8 70.3 209.9 73.6 209.3 76.5C209 78.2 209 80 208.7 81.7C208.4 83.6 207.6 85.3 206.9 87C206.8 87.2 206.9 87.3 207 87.4C207.9 87.9 208.9 87.4 209.8 87.1C209.6 87.6 209.4 88 209.3 88.5C209.1 89.2 209 89.9 208.9 90.5C208.6 91.9 208 93.3 207.7 94.7C207.6 95 208 95.1 208.2 95C208.8 94.6 209.4 94.2 210.1 93.9C210.3 94.9 209.9 96 209.8 97C209.7 97.8 209.8 98.5 209.9 99.3C210.2 100.8 210.5 102.7 211.6 103.8C212.6 104.9 214.3 105.2 215.7 105.5C215.9 110.2 215.7 115 216.6 119.6C216.6 119.7 216.6 119.7 216.6 119.7C213.4 120.8 209.3 120.6 205.2 119.7C205.2 119.8 205.2 120 205.2 120.1C200.8 113.7 197.8 107.4 197.4 106.1C196.9 104.5 195.1 101.3 193.9 100.1C193.4 99.5 192.1 100.4 191.6 100.5C190.5 97.1 189.8 93.5 188.6 90.2C187.9 88.1 187.4 85.9 186.8 83.8C186.4 82.5 186 81.1 185.7 79.8C186.5 77.1 187.3 74.3 187.8 71.5C188.8 65.9 189.7 60.3 191.3 54.8C192.2 51.8 193.3 49 194.5 46.1C194.8 45.3 195.1 44.4 195.4 43.5C197.7 37.3 202.6 24.9 203.6 23.1C204.2 23.2 204.7 23.2 205.3 22.8C206.9 22 208.2 20.7 209.7 19.9C211.1 19.1 212.9 19.2 214.2 18.2C215.2 17.5 215.9 16.3 216.3 15.1C216.7 13.8 217.1 12.4 217.5 11.1C217.8 10.1 218 9.09999 217.9 7.99999C217.7 6.29999 216.2 5.19999 214.6 5.49999C215 3.39999 215 0.69999 212.8 0.19999C211 -0.20001 209.1 -0.300013 207.3 -0.100013C205.2 0.099987 202.9 0.199993 200.8 0.499993C197.3 1.09999 196.3 4.5 195.7 7.8C195.2 11.1 194.2 14.5 193.2 17.7C192.5 18.7 187.8 26.9 186.4 29.7C185.7 31.2 184.9 32.6 184.2 34.1C181.7 38.7 179.2 43.3 178.2 45.4C176 50 173.9 54.7 171.8 59.3C169.9 63.5 167.6 67.7 166 72.1C165.3 74.1 164.7 76.2 164.7 78.4C164.7 79.3 164.9 80.2 165.1 81C165.1 81.8 165 82.6 165.2 83.4C165.4 84.7 165.9 86 166.4 87.2C167.3 90 168.3 92.7 169.5 95.4C170.8 98.3 172.2 101.2 173.2 104.2C173.6 105.4 173.8 106.9 174.2 108.3C173.7 108.7 173.3 109.1 172.8 109.5C170.8 111.5 168.7 113.5 166.9 115.7C166.8 115.8 166.8 116 166.9 116.1C167.8 117.1 171.8 121.8 172.8 123.1C174.8 125.8 176.5 129.2 177.7 132.4C179.3 136.5 181.1 139.4 182.3 143.6C185.9 148.2 186.6 152.4 186.6 152.5C186.9 159 187.9 165.2 187.5 171.6C187.2 176.4 187 180.2 185.7 184.8C184.5 189.4 184.8 194.4 184.1 199.2C182.8 208.6 182.3 218.3 179.3 227.4C179.3 227.5 179.2 227.7 172.7 256.2H262.6C262.3 244.6 257.1 227.7 257.1 227.7C256.2 222.9 255.9 217.9 256.3 213.1C256.7 208.4 257.8 203.8 259.6 199.6C261.4 195.4 267.2 169.7 269 165.5C269.3 164.8 279.5 152.8 279.5 152.8C281.5 150.2 283.8 147.7 286.4 145.8C287.7 144.8 292.8 141.6 294 140.9C294.1 140.8 294.2 140.6 294.1 140.5C293 137.9 291.5 135.2 290.1 132.7C289.8 132.1 289.5 131.6 289.1 131.1C289.9 129.9 290.5 128.5 291.2 127.5C293 124.9 295.1 122.6 297.1 120.2C299 118 300.6 115.7 302.2 113.3C302.9 112.2 303.8 111.2 304.3 110C304.6 109.3 304.8 108.5 305 107.7C305.5 107 305.9 106.2 306.1 105.3C306.9 103.1 306.9 100.9 306.8 98.8Z" fill="url(#paint0_linear_392_11)"/>
<path d="M350.6 256C351.5 253.7 352.2 251.4 352.4 248.9C352.6 246.9 352.5 245 352.4 243C353.3 241.7 354.2 240.3 355.1 239C356.5 237.2 358.1 235.6 359.2 233.5C360.3 231.3 361.2 229 362.4 226.9C363 225.8 363.5 224.7 363.9 223.5C364.3 223.5 364.7 223.6 365 223.6C365.5 223.6 366 223.7 366.4 223.4C367 223 367.2 222.2 367.4 221.6C367.9 220.1 368.2 218.5 368.5 217C369.3 213.4 371.3 210.1 373.9 207.4C374.2 208 374.6 208.7 375 209.3C377.2 213 379.8 216.4 382 220.1C384.3 223.9 385.9 228 386.9 232.4C387.9 236.9 388.2 241.7 388 246.3C387.9 248.8 387.4 251.1 386.5 253.4C386.2 254.2 385.9 255.1 385.6 255.9H458.5C458.5 255.5 458.5 255 458.4 254.6C458.3 252.7 457.8 250.8 457.4 248.9C458.4 248.8 459.3 248.8 460.3 248.7C462.4 248.5 465.1 248.3 466.8 246.8C468.4 245.3 467.1 243.2 466.2 241.7C464.7 239.3 462.8 237.2 461.5 234.6C457.5 226.5 455.8 217.4 453.4 208.6C452.2 204.2 450.2 200.1 448.5 195.9C446.8 191.7 445.4 187.4 444.5 182.9C443.2 176.3 442.5 169.6 442 162.9C444.7 159.6 447.3 157.9 450.3 154.9C452.6 152.6 455.3 150.5 458 149C459.4 148.3 464.6 145.9 465.8 145.5C465.9 145.4 466 145.3 466 145.1C465.2 142.4 464.2 139.7 463.2 137.2C463 136.6 462.7 136.1 462.5 135.5C463.4 134.5 464.1 133.3 464.9 132.4C466.9 130.2 469.2 128.3 471.4 126.3C473.4 124.5 475.3 122.6 477.1 120.5C477.9 119.6 478.8 118.7 479.5 117.7C479.9 117.1 480.1 116.3 480.5 115.7C481 115.1 481.5 114.4 481.9 113.6C482.7 111.8 483 109.6 483.1 107.6C483.4 103.1 482.9 98.5 482.8 94C482.7 89 482.6 84.1 482.4 79.1C482.3 76.8 481.9 71.8 481.4 66.7C481.3 65.1 481.3 63.5 481.2 62C481 59 480 49.9 479.8 48.7C480.1 45.4 480.6 42.2 481.3 39C482.1 36 482.4 32.5 479.6 30.5C477.9 29.3 476 28.3 474.2 27.2C472.7 26.3 471 25.6 469.3 25.1C467.2 24.6 466.2 27 465.7 28.9C464.5 28 462.8 28.3 461.9 29.7C461.4 30.5 461.2 31.5 461.1 32.5C460.9 33.8 460.7 35.1 460.6 36.5C460.5 37.7 460.6 39 461.2 40.1C462 41.6 463.5 42.2 464.5 43.6C465.5 45 466.2 46.7 467.3 48.1C467.8 48.7 468.2 48.9 468.7 49.1C469 51.1 468.5 64 468.2 70.4C468.1 71.3 468.1 72.1 468.1 73C468 76 468 78.9 467.6 81.9C467 87.3 465.7 92.6 464.4 97.9C463.8 100.6 463.4 103.3 463.1 106C462.3 107.1 461.5 108.1 460.7 109C459.4 110.6 458.1 112.3 456.7 113.8C454.4 116.2 452.5 119 450.3 121.5C449.9 121.2 449.1 119.9 448.4 120.2C446.9 120.8 444.1 122.7 443.1 124C441.5 125.9 423.8 140.3 412.7 138.3V138.2C413 133.7 412.3 129.2 411.8 124.8C413.1 124.4 414.6 123.8 415.5 122.6C416.4 121.4 416.5 119.5 416.5 118.1C416.5 117.4 416.5 116.6 416.3 115.9C416 115 415.6 114 415.6 113C416.3 113.2 416.9 113.5 417.5 113.8C417.7 113.9 418 113.7 417.9 113.4C417.4 112.1 416.7 110.9 416.2 109.6C416 109 415.8 108.3 415.5 107.7C415.3 107.3 415.1 106.9 414.8 106.5C415.7 106.7 416.7 107 417.5 106.4C417.6 106.3 417.7 106.1 417.6 106C416.7 104.5 415.8 102.9 415.2 101.2C414.7 99.6 414.5 97.9 414 96.4C413.1 93.7 411.8 90.7 409.9 88.7C408 86.7 405.7 84.8 403.3 83.5C401.9 82.7 400.5 82.1 399 81.5C398.6 81.3 398.3 81.2 397.9 81.1C397.3 80.6 396.6 80.4 395.9 80.1C394.1 79.5 392.4 79.1 390.5 79.2C386.8 79.3 382.7 79.3 379.4 81.2C376.4 82.9 374.3 86.3 372.9 89.5C371.3 93.4 370.7 97.4 370.8 101.6C370.9 104 371 106.4 370.6 108.7C370.2 110.8 369 112.6 368.2 114.6C368.2 114.7 368.2 114.9 368.3 115C369.6 116 371 115.2 372.2 114C372 115.8 371.3 117.5 371 119.3C371 119.5 371.1 119.7 371.3 119.7C371.8 119.6 372.2 119.5 372.7 119.3C373.7 119 374 119.4 374 120.4C374 121.8 374 123 374.5 124.4C374.6 124.6 374.8 124.7 374.9 124.6C375.4 124.2 375.7 123.6 376 123C375.9 123.5 375.8 124 375.8 124.5C375.8 125.2 375.9 126 376.2 126.7C376.5 127.8 377.1 128.8 378 129.4C379.1 130.1 380.4 130.1 381.7 129.9C381.8 130.9 382 131.8 382.3 132.7C382.8 134.7 383.8 136.4 384.4 138.3C385 140.2 385 142.7 384.9 144.7C384.9 144.8 384.9 144.9 384.9 145C382 148.2 378.6 150.7 375.6 153.7C372.1 157.2 368.5 160.8 364.5 163.7C361.5 165.9 357.4 167.9 355.4 171.4C354.5 173 354.1 174.9 353.8 176.7C353.4 178.7 352.9 180.6 352.7 182.6C352.6 184.2 352.4 185.7 352.2 187.3C351.1 190.3 350.9 193.6 350.1 196.7C349.3 199.7 348.4 202.6 347 205.3C345.9 207.6 342.3 213.5 345.2 215.7C345.2 215.7 345.2 215.7 345.3 215.7C344.7 217.8 344 219.9 343.4 221.9C342.4 225.3 341.2 228.6 339.9 232C337.8 237.8 335.5 243.6 333.1 249.2C332.2 251.3 331.4 253.5 330.7 255.6H350.6V256Z" fill="url(#paint1_linear_392_11)"/>
<path d="M191.8 147.3C191.8 147.3 194.8 150 193.7 153.2C192.6 156.5 187.8 169.8 183.9 173.7C180 177.7 168 193.1 169.1 209.8C170.2 226.5 167.8 247.8 172 255.5C172 255.5 171.8 255.7 171.5 256H88.6C88.4 255.9 88.2 255.8 88.2 255.6C87.8 254.8 89.6 235.6 88.3 226.5C87.2 218.5 90.5 182.3 93.5 169.2C90 164.2 86.5 157.4 85.4 155.2C83.9 152.1 86.5 149 86.5 149C74.3 137.8 64.2 100.5 62.4 95C60.7 90.1 71.9 74 76.8 64.7C77.1 64 77.3 63.4 77.7 62.8C77.1 59.7 78.5 57 79.2 53.6C80.2 48.8 82.9 44.8 85.9 41.1C85.9 40.8 85.9 40.4 86 40.1C86.1 37.8 85.9 34.6 87.2 32.6C87.7 31.8 88.7 30.7 89.6 31.6C90.7 32.6 90 36.5 89.9 37.8C89.8 39 89.7 40.2 89.7 41.4C89.7 41.7 89.6 43 89.8 43.1C90 43.2 90.5 42.1 90.5 42C92 39.4 92.2 36.2 93.1 33.4C93.5 32.1 93.9 30.2 95.2 29.6C96.4 29 97.2 29.6 97.7 30.6C98.1 29.7 98.6 28.9 99.4 28.6C102.9 27.4 101.7 34 101.1 37.6C102.5 35.5 104 34 105.2 35.2C106.6 36.6 104.1 39.9 103.5 41.1C102.5 43 101.5 44.9 100.5 46.8C99.6 48.3 99 50.1 97.9 51.4C97.8 51.5 97.8 51.5 97.7 51.5C97.3 54.3 97.3 57.2 95.4 59.6C94 61.3 92.2 62.6 90.5 63.8C89.3 64.7 88.2 65.7 87.2 66.7C86.5 70.1 84 82.9 83.9 88.5C83.8 95 81.2 100 81.2 100C94.6 110.7 101.9 131.3 101.9 131.3C101.9 131.3 102.6 130.3 103.6 130.2C104.4 130.1 108.5 135.4 112.1 137.6C116.7 139.3 123.6 141.3 128.2 139.7C128.2 139.7 130.9 135.8 131.4 124.2C131.4 124.2 129.2 124.2 127.5 120.4C125.9 116.8 123.7 111.6 126.4 109.6C126.3 109.5 126.3 109.4 126.3 109.2C126 108.4 125.9 107.6 125.7 106.8C125.5 105.8 125.3 104.8 125 103.8C124.4 101.9 123.9 100 124.1 98C124.1 97.9 124.3 97.9 124.3 97.9C124.4 98.1 124.6 98.3 124.8 98.5C124.2 96.2 124.4 93.7 124.3 91.3C124.2 89.2 123.5 87 123.9 84.9C123.9 84.8 124 84.8 124.1 84.8C124.5 85 124.8 85.4 125.2 85.7C125.7 86.1 126.2 86.4 126.8 86.7C126.9 85.4 126.6 83.9 126.4 82.6C126.3 81.2 126.1 79.8 126.2 78.4C126.2 78.3 126.4 78.2 126.4 78.3C126.8 78.8 127.2 79.3 127.7 79.7C127.3 77.7 125.8 76.3 125.1 74.4C124.5 72.7 124.2 70.6 124.2 68.8C124.2 68.6 124.4 68.6 124.5 68.8C124.7 70.8 125.4 73.1 126.4 74.8C127 75.9 127.9 76.4 128.6 77.3C128.1 76.6 127.6 75.9 127.2 75.1C126.5 73.8 126.2 72.5 125.9 71.1C125.6 69.7 125.5 68.3 125.5 66.8C125.5 65.8 125.4 64.7 126.1 63.9C126.1 63.8 126.2 63.8 126.3 63.9C126.8 64.4 127 65 127.3 65.7C127.7 66.5 128.2 67.3 128.8 68C130.1 69.3 132.2 70.4 133.9 69.7C133.6 68.9 133 68.3 133 67.4C133 67.3 133.1 67.2 133.2 67.3C134 67.5 134.6 68.2 135.4 68.5C136.3 69 137.3 69 138.2 69.4C139.2 69.8 140.3 70.3 141.3 70.8C142.3 71.3 143.3 72 144.4 71.9C143.8 71.1 143 70.6 142.3 69.9C141.7 69.4 141.1 68.7 141.1 67.8C141.1 67.7 141.2 67.6 141.3 67.7C142.6 69 144.1 70.4 146 70.6C147.4 70.8 149 70.6 150.4 70.2C149.3 69.8 148.4 68.9 147.4 68.4C146.5 67.9 145.4 67.4 145.1 66.3C145.1 66.2 145.2 66 145.3 66.1C146 66.8 146.8 67.5 147.8 67.7C149 68 150.2 67.7 151.4 67.8C152.5 67.9 153.6 68.1 154.6 68.5C155.6 68.9 156.5 69.5 157.4 70.1C157.3 69.9 157.3 69.7 157.2 69.5C157.2 69.4 157.3 69.3 157.4 69.4C158.7 69.9 159.9 70.7 160.6 72C160.9 72.6 161.1 73.1 161.4 73.6C161.6 73.9 161.8 74.2 162 74.3C162.3 74.5 162.2 74.4 162.2 74.2C162.2 74 162.2 73.7 162.2 73.4C162.2 73.2 162.4 73.2 162.5 73.3C163.2 75.3 163.3 77.4 163.5 79.5C163.8 81.9 164.5 84.3 165.2 86.6C165.9 88.8 166.7 91 167 93.3C167.3 95.6 166.9 98 166.6 100.3C166.3 102.8 166.1 105.4 166.1 108C166.7 108 167.5 108.2 167.9 108.9C168.7 110.2 166.8 122.7 163.5 122.5C163.5 122.5 163.2 129.9 159.4 132.2C159.4 132.2 158.3 140.5 162.1 141C166 141.5 171.7 131.1 172.7 131C173.8 130.9 174.6 131.8 174.6 131.8C174.6 131.8 179.2 110.4 191.2 97.8C191.2 97.8 188 93.2 187 86.8C186.1 80.5 177.8 61.3 177.6 60.7C175.9 59.4 174.2 58.3 172.2 57.5C170.7 56.9 169.2 56.3 167.8 55.4C167.6 55.3 167.3 55.2 167.1 55.1C165.2 54.5 163.3 54.1 161.4 53.4C159.6 52.7 156.6 51.8 155.6 49.8C154.5 47.4 158.5 46.9 162 46.9C160.8 45.9 159.9 44.5 158.8 43.3C157.4 41.7 156 40.1 154.6 38.5C153.8 37.6 150.6 34.9 151.7 33.2C152.6 31.7 154.4 32.7 156.2 34.5C154.8 31.2 152.3 25 156 25.3C156.8 25.4 157.5 26 158.1 26.8C158.4 25.8 159.1 25 160.3 25.2C161.7 25.5 162.5 27.3 163.1 28.4C164.6 31 165.5 34 167.5 36.1C167.6 36.2 168.3 37.2 168.4 37C168.5 36.9 168.2 35.6 168.1 35.3C167.8 34.1 167.4 33 167.1 31.8C166.8 30.6 165.2 27 166.1 25.7C166.8 24.7 168 25.5 168.7 26.1C170.3 27.8 170.8 30.9 171.4 33.2C171.5 33.5 171.6 33.9 171.7 34.2C175.4 37 178.9 40.3 180.9 44.7C182.3 47.8 184.3 50.1 184.3 53.3C185.3 54.5 186.2 56.1 187.1 57.1C187.2 57.2 187.3 57.4 187.2 57.6C194.6 67.6 209.9 85.2 208.9 90.1C207.7 95.9 202.4 134.3 191.8 147.3Z" fill="url(#paint2_linear_392_11)"/>
<path d="M202.9 217.8C196.5 219.2 187.2 227.4 177 226C166.9 224.6 140.9 205.6 136.1 203.4C131.2 201.1 123.9 200 123.9 200C115.1 192.3 108.4 189.8 108.4 189.8L109.3 187.5C105.2 184.6 100.7 178.9 95.7 173.7C97.5 173.2 98.2 170.9 98.4 169.1C98.7 164.3 96.3 158.8 92.2 156.6C92.3 156.6 91.7 153.9 91.9 152.5C92.1 150.7 93.5 148.3 93.4 148.4C93.8 147.6 94 146.8 94.2 145.9C94.4 144.6 94.6 143.1 94.1 141.8C93.9 141.3 93.7 140.9 93.4 140.6C94.7 139.2 95.1 136.8 94.8 134.9C94.7 134.3 94.5 133.8 94.2 133.3C93.9 132.8 93.4 132.4 92.9 132.1C92.1 128.6 92.7 124.9 92.8 121.3C92.8 119.4 92.7 117.4 92.1 115.6C91.6 114 90.8 112.5 89.9 111.1C87.9 108.3 85 106 81.9 104.8C80 104.1 77.9 103.8 75.9 103.7C73.8 103.6 71.8 103.2 69.7 103.3C66.9 103.5 64 105.1 62.3 107.6C61.3 107.5 60.2 107.3 59.2 107.3C57.2 107.4 55.5 108.2 53.9 109.5C52.4 110.8 51.1 112.4 50 114.2C48.9 116.1 48.1 118.1 47 120C45.7 122 43.9 123.8 41.9 125C41.8 125.1 41.9 125.2 42 125.2C44.3 125 46.2 123.7 48 122.4C47.8 123.5 47.1 124.6 46.5 125.6C45.9 126.8 45.7 128.2 45.4 129.6C44.8 132.4 42.9 134.5 41.3 136.7C40 138.5 39.1 140.4 38.5 142.6C36.2 139.7 34 137 32.7 136C29.5 133.6 25.8 119.7 25.8 119.7L23.6 120.5L18.9 107.3C20 98.3 12.4 66.1 8.90001 53.4C11.3 51.1 10.3 47.6 12.3 41.9C14.3 36.2 21.1 31.1 24.3 28.9C27.6 26.8 24.1 24.1 24.1 24.1C24.1 23.5 22.7 22.9 22.7 22.9C19 21.9 8.10001 31.4 8.10001 31.4C8.50001 27 5.00001 27.3 4.90001 31.3C4.80001 35.3 0.800012 44.2 0.500012 48.4C0.200012 52.6 2.60001 56.5 2.60001 56.5C0.300012 75.4 4.60001 106.2 5.20001 109.7C5.80001 113.1 10.2 127.4 10.2 127.4L7.90001 130C7.90001 130 13.4 144.8 15.6 148.3C17.8 151.8 24.3 171.2 24.3 171.2C24.3 171.2 18.9 177.6 16.4 185.6C13.9 193.6 17 203.5 17 203.5C13.5 220 14 245.2 15.1 256H79.5C78 244.7 71.2 217.9 72 214.5C72.9 210.8 81.5 198.4 86.9 199.1C92.3 199.8 99.5 205.8 99.5 205.8L100.4 204.6C100.4 204.6 115.7 210 118.2 213.1C120.7 216.2 143.6 226.6 148.8 227.8C154 229 174.3 233.7 174.3 233.7C177.2 235.9 183.6 240.7 186.4 236.7C189.1 232.7 192.8 232.1 194.5 230.6C196.2 229.1 194.2 228.8 194.2 228.8C194.2 228.8 191.4 230.7 197.4 226.5C203.4 222.5 209.4 216.4 202.9 217.8Z" fill="url(#paint3_linear_392_11)"/>
<path d="M416 56.8C414 56.6 412 57.2 410.1 57.5C409 57.7 407.9 57.8 406.9 58C406.8 58 405.8 58.3 405.7 58.2C405.7 58.2 405.8 58 405.9 57.7C406.9 56.9 408 56.2 409 55.4C411.5 53.1 414.1 51 416.3 48.5C416.8 47.9 416.7 47.3 416.4 46.8C416.1 46.1 415.5 45.6 414.6 45.9C413 46.6 411.6 47.6 410.2 48.7C408.6 50 406.9 51.1 405.3 52.3C405.1 52.4 404.9 52.6 404.7 52.7C404.2 52.8 403.8 52.7 403.5 52.4C403.3 52.2 403.3 51.9 403.3 51.6C404.3 49.9 405.2 48.1 406.2 46.3C407.4 44.2 408.6 42.1 408.9 39.6C409 38.6 408.3 37.9 407.5 37.9C406.8 37.7 401.7 48.3 400.9 49.6C400.3 50.6 399.3 51.8 398.6 51C399 45.8 400 34.9 398.7 34.8C396.9 34.6 396.8 39.1 396.8 39.1C395.4 52.3 393 55.8 390.9 55.8C388.9 55.8 385.1 46.5 384.2 46.8C383.2 47.1 382.6 48.7 382.8 50.6C383 52.5 385.9 59.9 385.9 59.9C385.3 61.9 386 70.4 386 70.4C386 70.4 377.8 85.6 372.8 91.3C367.8 96.9 366.5 104 366.5 104C364.7 105.4 363 107.3 361.5 109.3C360 108.8 358.8 109 358.4 110C356.9 113.7 350.2 129.9 346.9 136.3C345.4 136.1 343.1 135.2 340.7 134.1C342.4 132.9 344 131.1 344.8 129.1C345.8 126.2 345 122.9 344.4 120C344.2 118.9 343.7 117.9 343.5 116.8C343.4 116.4 343.3 115.9 343.5 115.6C343.7 115.3 344.2 115.3 344.5 115.4C345.1 115.4 345.7 115.6 346.3 115.6C346.4 115.6 346.5 115.5 346.4 115.3C345.3 112.9 343.6 110.1 344.6 107.4C345.5 108.2 346.4 108.9 347.4 109.6C348.2 110.1 349.4 110.8 350.3 110.4C350.4 110.3 350.4 110.1 350.3 110.1C348.5 109.5 346.9 107.8 346 106C344.9 104 345.4 101.8 345 99.6C344.3 96 341.2 93.5 338.7 91.3C340.1 90.6 341.7 90.8 343 89.7C343.1 89.6 343.1 89.4 342.9 89.4C341.4 89.5 339.9 89.6 338.4 89.2C336.8 88.8 335.4 88 334.1 87C332.4 85.6 330.9 83.6 329 82.8C327.6 82.2 326 82.2 324.5 82.4C323 82.7 321.4 83.3 320 84.3C319.4 83.4 318.5 82.6 317.9 82.1C316.4 80.8 314.8 80.1 312.8 80.2C310.5 80.3 308.4 81.3 306.9 83.3C305.5 85.2 304.8 87.6 302.6 88.8C299.7 90.4 296 90.2 293 88.9C292.9 88.8 292.7 89 292.8 89.1C293.9 90.8 295.8 91.6 297.5 92.3C296.1 92.3 294.6 92.4 293.6 93.4C292 95 291.9 98.1 291.9 100.3C291.9 100.4 291.9 100.5 291.9 100.5C290.2 96.8 288.1 93.1 285.5 90.4C285.5 90.4 284.9 82.5 280.2 75.4C275.5 68.4 268.5 50.2 268.5 50.2C268.5 50.2 270.3 41 269.8 38.7C269.8 38.7 273.8 31.1 274.3 29.1C274.8 27 274.3 25.1 273.3 24.7C272.3 24.2 267.2 33.7 265 33.4C262.8 33.1 260.6 28.9 260.7 14.1C260.7 14.1 261.1 9.10001 259.1 9.00001C257.8 8.90001 257.5 21 257.3 26.8C256.5 27.5 255.6 26.1 255 24.9C254.3 23.4 250.1 10.9 249.3 11C248.5 10.9 247.5 11.5 247.6 12.6C247.7 15.4 248.7 17.9 249.7 20.4C250.5 22.5 251.2 24.6 252.2 26.7C252.2 27 252.1 27.3 251.9 27.5C251.6 27.8 251.1 27.8 250.6 27.7C250.4 27.5 250.2 27.3 250.1 27.1C248.5 25.5 246.8 23.9 245.3 22.2C243.9 20.8 242.6 19.4 240.9 18.3C240.1 17.7 239.3 18.2 238.9 18.9C238.5 19.4 238.3 20.1 238.8 20.8C240.9 24 243.5 26.8 245.9 29.7C246.8 30.8 247.9 31.8 248.9 32.8C249 33.1 249 33.4 249 33.4C248.9 33.5 247.9 33 247.8 33C246.7 32.6 245.5 32.2 244.4 31.9C242.4 31.2 240.3 30.2 238.1 30C236.8 29.9 236.1 32 237.1 32.8C239.5 34.9 242.4 35.7 245.1 37.2C246.3 37.9 247.4 38.8 248.6 39.3C248.8 39.8 249 40.3 249.2 40.9C249.7 42.3 250.1 43.7 250.6 45.1C251.5 47.6 252.6 50.1 254.2 52.2C255.6 53.9 258 55.2 260.2 55C260.3 55 260.3 55 260.4 55C261.7 59.9 268.9 87.5 270.8 91.9C272.8 96.7 274.1 97.7 274.1 97.7C274.1 97.7 277.4 119.2 281.8 128.6C281 129.6 280.5 130.2 280.5 130.2C284.9 145.3 296.2 159.6 302.8 176.1C309.4 192.6 302.9 219.4 299.9 226.2C297.9 230.9 297.9 232.9 298.7 233.6C292.9 243.3 287.6 249.1 280.8 253.8C279.9 254.4 278.7 255.2 277.3 256.1H354.2C354.2 254.8 354.2 253.6 354.1 252.6L355.9 253.2C365.3 223.6 357.7 191.1 357.7 191.1C357.7 191.1 362.3 185.7 364.3 181.3C366.3 176.9 359.5 161.4 360.1 153.1C361.3 143.2 376.1 120.9 376 119.9C376 119.7 375.3 119 374.3 118C375.3 114.6 376 112.3 376 112.3C376 112.3 377.3 111.6 379.6 107.6C381.7 104 391.1 80.2 392.7 76H392.8C394.7 76.5 397.1 75.7 398.6 74.4C400.3 72.8 401.5 70.7 402.6 68.6C403.2 67.4 403.7 66.2 404.3 65.1C404.5 64.6 404.8 64.2 405 63.8C406.2 63.5 407.3 62.9 408.4 62.4C411 61.5 413.7 61.2 416.1 59.7C417.7 58.9 417.2 56.9 416 56.8Z" fill="url(#paint4_linear_392_11)"/>
<defs>
<linearGradient id="paint0_linear_392_11" x1="165.311" y1="20.2444" x2="291.741" y2="239.226" gradientUnits="userSpaceOnUse">
<stop offset="2.02456e-07" stop-color="#9ACE7C"/>
<stop offset="0.8302" stop-color="#094C83"/>
</linearGradient>
<linearGradient id="paint1_linear_392_11" x1="361.316" y1="99.2901" x2="488.247" y2="226.222" gradientUnits="userSpaceOnUse">
<stop offset="1.33195e-07" stop-color="#9ACE7C"/>
<stop offset="0.0799298" stop-color="#8BC17D"/>
<stop offset="0.6032" stop-color="#2E6D81"/>
<stop offset="0.8391" stop-color="#094C83"/>
</linearGradient>
<linearGradient id="paint2_linear_392_11" x1="53.4617" y1="66.1131" x2="207.408" y2="220.06" gradientUnits="userSpaceOnUse">
<stop offset="4.04912e-07" stop-color="#9ACE7C"/>
<stop offset="0.1612" stop-color="#96CA7C"/>
<stop offset="0.328" stop-color="#89BF7D"/>
<stop offset="0.4976" stop-color="#75AD7E"/>
<stop offset="0.669" stop-color="#58937F"/>
<stop offset="0.8401" stop-color="#337181"/>
<stop offset="1" stop-color="#094C83"/>
</linearGradient>
<linearGradient id="paint3_linear_392_11" x1="114.65" y1="115.049" x2="-5.58089" y2="235.279" gradientUnits="userSpaceOnUse">
<stop offset="6.92613e-08" stop-color="#9ACE7C"/>
<stop offset="0.021066" stop-color="#96CA7C"/>
<stop offset="0.3575" stop-color="#5A947F"/>
<stop offset="0.6437" stop-color="#2E6D81"/>
<stop offset="0.8653" stop-color="#135583"/>
<stop offset="0.9955" stop-color="#094C83"/>
</linearGradient>
<linearGradient id="paint4_linear_392_11" x1="289.405" y1="-5.47699" x2="380.792" y2="243.223" gradientUnits="userSpaceOnUse">
<stop offset="0.00500053" stop-color="#9ACE7C"/>
<stop offset="0.1872" stop-color="#96CB7C"/>
<stop offset="0.3517" stop-color="#8BC17D"/>
<stop offset="0.5094" stop-color="#79B07E"/>
<stop offset="0.6629" stop-color="#5F997F"/>
<stop offset="0.8134" stop-color="#3E7B80"/>
<stop offset="0.9597" stop-color="#155782"/>
<stop offset="1" stop-color="#094C83"/>
</linearGradient>
</defs>
</svg>
