<svg id="Layer_1" data-name="Layer 1" xmlns="http://www.w3.org/2000/svg" viewBox="0 0 2242.19805 2330.70779"><defs><style>.cls-1{fill:#faf103;}.cls-2{fill:#e3e015;}.cls-3{fill:#827a32;}</style></defs><path class="cls-1" d="M937.677,1933.77987q.016-7.32414.032-14.64965c8.756-17.58034,5.6926-36.49823,5.70758-54.90717q.57175-701.08248.81274-1402.165c49.61673-5.2125,99.82054,4.55053,149.23386-5.84869,24.60222,4.0288,13.37958,23.49294,13.42476,35.56925.73714,196.912.395,393.82768.52556,590.74239q.25506,384.51045.82863,769.02327c.47992,4.60354,2.6657,6.62779,7.35463,4.87482q6.58626-.144,13.17413-.2874,4.58358-.001,9.16332-.00363,10.44554.04257,20.88859.0849c17.65487-.7968,39.65474,16.41147,50.60246-12.20384q-.18458-687.31459-.36869-1374.63113,2.52507-6.885,5.05012-13.766,5.22924-.15238,10.4628-.3047,27.27611,2.16,54.5438,4.31977c26.61615.57536,53.23048,1.40979,79.84935,1.59151,9.87594.06743,20.19844-2.10052,20.40639,12.76563-6.06309,15.53107-3.90751,31.798-3.91137,47.77712q-.16142,690.63251.07469,1381.265c.007,15.92953,2.38487,31.85792,3.65779,47.787,2.56536,19.67065-9.26775,21.73758-24.81381,21.6579q-205.14014-1.05152-410.2889-1.45832-3.29535-7.45422-6.58071-14.90866.07662-7.33607.15279-14.6728Q937.6684,1937.60511,937.677,1933.77987Z"/><path class="cls-1" d="M1434.12106,1433.6753V996.149h481.36359c0,52.95182-.21182,103.53853.11078,154.122.11919,18.67964-15.10927,23.88271-26.51489,32.76778-12.55186,9.77766-24.85763,19.87144-38.0724,30.47089,67.53518,34.65786,70.81725,92.5989,64.83293,154.98469-1.98259,20.66882-.31238,41.6878-.31238,65.181Zm342.37232-321.291H1570.473c-2.92,17.97829-3.515,33.66481.67494,50.71406h206.2093C1780.07943,1145.03112,1781.4595,1129.42122,1776.49338,1112.38434ZM1569.54966,1316.9922h208.93175c.8838-17.841,3.90139-33.59534-2.33492-49.24962H1569.54966Z"/><path class="cls-1" d="M401.99757,995.836h225.182V1109.599h-90.138v209.846h90.66448v114.89959H401.99757Z"/><path class="cls-1" d="M672.46112,995.78445H803.9343v323.72393h94.35792v114.90935H672.46112Z"/><path class="cls-1" d="M1637.12411,1969.01048V1506.11979c26.16165-9.74043,38.3253-1.14867,46.30311,24.55875,28.15354,90.72188,64.78162,178.65664,90.71942,280.23414,22.7504-67.55447,42.611-126.53307,62.476-185.51019,10.66439-31.66246,22.48933-62.99451,31.61768-95.09363,6.59479-23.19011,17.6206-34.35912,42.2503-25.60675,6.64564,5.65381,4.9584,13.49791,4.965,20.61468.12849,138.77958-.21545,277.56086.44541,416.33738.109,22.87649-3.15743,37.60491-33.68359,27.18741V1619.21976q-3.71727-.804-7.43476-1.60814c-17.16111,50.44426-34.47136,100.83847-51.41407,151.35594-7.47223,22.27912-14.89179,44.62088-21.01981,67.28989-4.1611,15.394-7.964,27.48275-28.45,26.79423-19.03472-.64017-20.36235-12.679-24.62584-26.18539-21.233-67.26151-43.42422-134.221-65.39208-201.24948-1.83911-5.61225-2.72359-12.34163-13.01862-13.88882-11.25352,9.54181-7.0704,24.0935-5.54458,35.84967,12.32552,94.96413,1.91676,190.31133,6.02428,285.35821C1672.41389,1967.739,1664.48739,1978.03118,1637.12411,1969.01048Z"/><path class="cls-1" d="M1575.24271,1542.72745q-32.74508-.0012-65.49039-.00261c-11.02309-3.49868-22.12949-3.35714-33.29243-.76923-16.517,20.98947-6.01656,45.21089-7.25042,67.78625-1.94513,35.58134-.51716,71.347-.51716,110.1822H1591.3502c9.39511,14.15409,7.26768,25.70039,2.84142,40.18057H1470.4061V1963.212c-12.13641,12.513-23.009,8.53263-35.74995,5.88682v-464.988h172.0476c8.17236,23.20611,8.82165,40.22427-22.52248,38.592Q1579.71279,1542.71479,1575.24271,1542.72745Z"/><path class="cls-2" d="M937.50676,1956.10427q3.28787,7.45422,6.58071,14.90866C933.29,1969.84519,936.40661,1962.52934,937.50676,1956.10427Z"/><path class="cls-3" d="M1575.24271,1542.72745q4.46951-.01243,8.93856-.02475Q1579.71109,1542.7153,1575.24271,1542.72745Z"/><path class="cls-3" d="M1137.93425,1856.1281q-4.58053.00239-9.16332.00363C1131.82325,1853.09048,1134.87829,1853.07209,1137.93425,1856.1281Z"/><path class="cls-2" d="M937.67726,1933.77987l-.01771,7.6516Z"/></svg>