<svg id="Layer_1" data-name="Layer 1" xmlns="http://www.w3.org/2000/svg" viewBox="0 0 2242.19805 2330.70779"><defs><style>.cls-1{fill:#6a47fd;}.cls-2{fill:#3f318a;}</style></defs><path class="cls-1" d="M1126.46186,1477.98218q-259.12618,0-518.25226-.00834c-47.7881-.006-77.10243-27.89441-77.14294-75.45013q-.38513-451.71936-.01347-903.43947c.02544-37.10308,16.57274-59.88077,51.38335-72.99092Q803.93663,342.67387,1025.546,259.54551c53.25627-19.95313,100.546,12.859,100.9284,69.41144.11042,16.31749-.06178,32.68767,1.16948,48.93706,3.10932,41.03726,31.21526,66.73647,72.783,66.76854q218.85666.16916,437.71311.051c55.677.00748,83.72019,28.123,83.72426,84.01553.02073,288.89068-.524,577.78317.50965,866.67022.18257,51.03841-32.999,83.87989-82.92237,83.31957C1468.4737,1476.79848,1297.46126,1477.98218,1126.46186,1477.98218ZM977.527,894.20344c0-25.648.35605-51.302-.07974-76.94252-.73433-43.20018-31.7915-73.60874-74.50373-73.53584-42.7708.073-73.63663,30.28884-74.09316,73.78126q-.78917,75.18691.01967,150.3875c.52344,43.76851,31.21665,73.50613,74.26921,73.36642,42.94738-.13938,73.5555-30.229,74.31111-73.61162C977.87663,943.17385,977.527,918.6856,977.527,894.20344Zm445.40671-2.19156c0-26.22724.35787-52.46036-.08337-78.68023-.67576-40.15414-32.87141-70.04054-74.29016-69.55441-41.86213.49138-73.03549,30.32893-73.2311,70.70946q-.37742,77.80549-.00619,155.61442c.18491,41.52585,31.54127,71.30932,74.33932,71.163,41.70565-.14259,72.65389-29.7653,73.21036-70.57146C1423.23,944.47032,1422.93969,918.23912,1422.9337,892.01188Z"/><path class="cls-1" d="M284.02742,964.36178c0-48.97138-.07995-97.94307.02427-146.91423.09043-42.51416,31.57034-75.06779,72.871-75.60352,42.6079-.55251,75.66444,31.13221,75.85855,74.40026q.66267,147.7857.01465,295.57621c-.17551,43.35955-33.10625,75.30283-75.57968,74.85358-41.32159-.43708-73.05761-33.02159-73.161-75.39786C283.93582,1062.30506,284.02742,1013.33326,284.02742,964.36178Z"/><path class="cls-1" d="M1968.77488,966.11349c0,48.38754.09149,96.77519-.02758,145.16241-.10411,42.384-31.84677,74.96912-73.17915,75.39818-42.47033.44081-75.3877-31.50611-75.56258-74.86929q-.59547-147.78346.016-295.57055c.19454-43.26367,33.25792-74.946,75.86593-74.39021,41.298.53873,72.774,33.09428,72.863,75.60908C1968.85419,867.00639,1968.77488,916.56,1968.77488,966.11349Z"/><path class="cls-2" d="M430.734,1688.87479c.44,8.05009.965,13.22142.96875,18.39318.053,73.55048-.32816,147.10417.34076,220.64867.13425,14.757-4.61059,19.0854-18.97712,18.5813-42.662-1.49624-36.03406,6.00486-36.5714-35.68774-.33734-26.18053-.06285-52.36919-.06285-78.58393-7.41869-.77345-7.05986,4.477-8.3248,7.68859-11.7551,29.846-23.85482,59.57464-34.69741,89.75306-4.38344,12.20041-10.43448,17.38949-23.95166,16.85247-44.569-1.77095-32.82983,6.7967-49.02322-33.37849-11.245-27.89826-21.68677-56.12039-35.95411-83.614v114.42644c-16.03717,4.1283-30.59995,1.92295-44.98524,2.072-12.16385.12613-9.58064-9.619-9.60218-16.613-.18481-60.124-.11421-120.24874-.1101-180.37342.00107-15.7607.2163-31.524-.01651-47.281-.12677-8.5792,2.96128-13.41617,12.162-12.81161a13.75066,13.75066,0,0,0,1.75006-.03463c39.51536-2.4512,39.52225-2.45419,54.08151,34.062,20.06285,50.3199,40.11389,100.6445,60.37871,151.49093,7.3522-4.2865,7.81087-11.12317,10.05908-16.62372,20.74476-50.75323,41.6321-101.45707,61.46423-152.56838,4.75981-12.2669,10.81394-17.85916,24.17817-16.61924C405.31972,1689.719,416.97606,1688.87479,430.734,1688.87479Z"/><path class="cls-2" d="M1432.836,1756.13117c-16.2526,8.93279-32.51846,14.75914-50.31284,20.67186-14.208-30.1361-39.241-40.11812-70.45239-37.7706-24.04936,1.80879-42.21037,13.42686-52.87029,34.94294-13.37063,26.98712-14.26936,55.62483-3.58658,83.25223,15.93557,41.211,77.25486,53.60013,108.98127,22.861,9.27739-8.98858,16.0153-19.76287,14.642-34.27915-21.45643-5.20425-43.3635,1.3838-64.13691-4.0631-.68174-2.4249-1.43916-4.06737-1.57577-5.75986-3.46387-42.8825-3.45254-42.88592,39.24633-42.88208,22.17045.00193,44.34967.37989,66.50793-.137,10.52117-.24542,14.42971,3.53015,14.32987,14.16868q-.591,63.00548-.034,126.01908c.07439,9.91147-3.857,13.78088-13.48416,13.12992a139.43011,139.43011,0,0,0-17.49444.01411c-11.83549.69158-22.25554-.043-18.44-18.64865-15.51228,6.60815-27.091,15.30492-41.18552,18.70081-71.55463,17.23941-134.41207-22.80623-148.92814-95.34767-12.8736-64.33359,11.2865-123.896,61.36333-151.27929,50.61235-27.67614,120.21966-17.46067,158.28784,23.283C1422.13481,1732.04183,1428.79939,1742.16687,1432.836,1756.13117Z"/><path class="cls-2" d="M1852.45691,1780.15916c39.22857-21.57636,65.50445-18.53064,102.25041,12.24915,16.259-21.62382,38.4611-28.49833,64.66836-25.01886,30.33171,4.02676,52.27085,24.363,53.66875,55.22422,1.8167,40.11149.444,80.36749.444,122.08019-16.90954,2.76695-32.94409,1.502-52.22681.819,0-17.86429.00535-35.07121-.00149-52.27834-.00642-16.34046.32922-32.69119-.13255-49.019-.53594-18.95243-10.5838-29.62346-27.13035-29.84579-16.4728-.2219-28.12059,9.91831-28.96587,28.42843-1.30277,28.53745-1.45178,57.16961-.84058,85.73486.29117,13.60323-3.80122,18.44512-17.85467,17.97609-43.529-1.45242-35.86262,5.51488-36.56189-35.60437-.36727-21.58683.127-43.18735-.14473-64.777-.24969-19.84346-9.08222-30.641-25.15033-31.62529-16.83964-1.03127-30.47066,11.30339-31.17506,30.57093-1.00113,27.39373-1.14544,54.86293-.33158,82.26051.41623,14.00171-3.20327,19.50162-18.33545,19.25941-36.99693-.593-37.00933.13511-37.00827-37.05871.00107-40.268.46476-80.54407-.25717-120.799-.236-13.16135,4.16357-18.62406,17.06176-16.60512C1827.303,1774.14489,1842.31563,1765.9163,1852.45691,1780.15916Z"/><path class="cls-2" d="M833.54347,1776.33442c-20.59116,21.964-40.767,44.34027-61.98083,65.68532-8.31272,8.36413-8.79918,14.31-1.53184,23.495,19.85928,25.1003,38.86761,50.8738,61.13373,80.23174-23.62972,0-43.4953.29715-63.342-.18514-5.79119-.14045-8.02433-6.25241-11.09036-10.37708-10.05673-13.529-19.97771-27.159-29.97523-40.78318-14.98339,4.58216-12.20757,16.1735-12.328,26.141-.31019,25.68542-.18449,25.85666-25.32434,25.66084-33.86335-.26381-29.65531,4.01072-29.75023-29.87743-.19785-70.62811.29309-141.26029-.34846-211.88327-.13244-14.58084,2.79239-20.73385,19.09812-20.31655,36.23694.9278,36.2596.04361,36.25971,36.11466v109.65018c15.31956-16.05058,27.82492-27.2473,37.95648-40.28786,10.764-13.85463,23.26586-19.49222,40.59014-17.76146,12.61728,1.26045,25.46191.24649,38.2051.24649Q832.32952,1774.21117,833.54347,1776.33442Z"/><path class="cls-2" d="M886.1,1877.27992c8.39962,26.69574,41.8042,36.89774,60.61147,18.67687,12.96136-12.557,22.51592-9.55617,34.8105-3.6225,6.67538,3.22166,14.72856,3.84718,19.87007,10.27682-.75742,8.155-5.53465,13.98995-10.57547,19.62733-24.14962,27.00786-66.31778,35.98511-103.08019,22.00049-32.41435-12.3306-53.211-43.48065-53.83572-80.63728-1.08108-64.29831,38.92277-102.01375,102.62634-95.56145,50.64132,5.129,78.25749,50.44538,72.74454,101.66914-1.04656,9.7242-9.08115,7.39635-14.96148,7.44467-29.14662.23943-58.29613.11928-87.44467.12548C900.61632,1877.28078,894.36722,1877.27992,886.1,1877.27992Zm1.54809-38.89551h65.45539c-1.89291-19.23247-13.60526-25.13622-28.66978-26.41248C905.87968,1810.40022,894.45166,1818.60274,887.64812,1838.38441Z"/><path class="cls-2" d="M631.27622,1946.87291c-21.09407-4.19329-40.748,7.80446-56.9243-10.15475-22.10942,15.00563-46.3112,17.84163-71.52107,9.28339-24.12718-8.191-37.36923-29.334-36.128-55.91451,1.21213-25.95286,15.583-42.59925,41.8058-49.09259,21.20235-5.25022,43.03631.19753,64.897-3.79053,3.36521-10.96241-.73423-18.15011-10.07181-23.07816-16.58973-8.75535-33.40254-3.69882-54.67694,16.7567a146.50541,146.50541,0,0,1-35.222-19.85394c-1.13581-6.91941,3.0874-10.63383,6.22-14.62852,28.38867-36.20124,98.68019-40.25472,131.09934-7.76255a54.944,54.944,0,0,1,16.21851,35.955C629.53285,1864.12306,625.868,1903.81276,631.27622,1946.87291Zm-76.98592-72.46255c-13.76752,1.29058-30.0989-2.04267-31.55688,17.47521-1.1124,14.893,10.65767,17.90533,22.58829,18.05113,17.20574.21036,30.49268-11.29976,29.63008-25.4229C573.95942,1868.268,560.81892,1877.61363,554.2903,1874.41036Z"/><path class="cls-2" d="M1768.94707,1946.47208c-20.625-2.88753-39.90476,6.27871-57.87466-8.747-19.322,13.18165-42.30059,16.52175-66.49981,9.41721-26.34279-7.7337-40.56513-28.55884-39.54754-56.729.95517-26.44348,15.74-43.26473,42.9849-49.72024,12.71306-3.01237,25.51825-1.44344,38.27384-2.10936,8.56316-.4468,17.41514,1.82653,25.7643-2.23571,2.81548-11.0631-1.67133-18.52658-11.43229-22.58989-22.44367-9.343-39.27155.43269-53.76068,17.89635-12.72845-6.79477-25.32456-12.35155-35.7211-21.25526,15.66621-41.32383,62.08526-47.11918,98.21532-41.54958,35.3598,5.45095,55.19193,28.878,56.69545,64.78615.43846,10.46944.15435,20.96944.17059,31.45555.02095,13.39929-.31511,26.80905.10732,40.19508C1766.72376,1917.99726,1767.90489,1930.68359,1768.94707,1946.47208Zm-57.24786-70.2788a103.58012,103.58012,0,0,0-37.42085-.11373c-8.44793,1.59052-13.23852,7.08722-13.50254,15.85625-.26509,8.78485,4.35,14.03763,12.53348,16.71822C1695.36324,1915.8787,1714.04844,1900.88633,1711.69921,1876.19328Z"/><path class="cls-2" d="M1525.23756,1784.681c20.02068-15.12877,40.84838-18.22579,64.00457-11.4943,2.07367,15.405,1.74936,30.27869.36664,44.79861-6.07135,4.48446-11.96974,1.97554-17.55153,1.90157-26.63268-.35295-41.34543,11.27859-45.78584,37.8777-3.9498,23.66114-1.62687,47.63675-1.44943,71.44582.09364,12.57731-3.19109,17.68664-16.65622,17.26272-46.32927-1.45862-38.27619,6.55812-38.82924-38.40211-.47972-38.9885.61141-78.00672-.44722-116.97256-.42949-15.81671,5.03152-19.84966,20.05125-19.33809C1517.19965,1772.7224,1517.22723,1771.91175,1525.23756,1784.681Z"/><path class="cls-2" d="M1038.20676,1946.216V1775.27279c25.87258-7.76105,45.12847-4.648,53.1513,9.16132,15.7267-10.79417,32.861-16.37339,52.31457-14.11673,9.03454,1.048,13.76891,3.91666,13.20966,13.90124-.64113,11.44769-.14879,22.95909-.14879,34.77-4.40622.71017-6.60558,1.40346-8.79276,1.36733-41.67849-.69243-54.185,10.77557-55.86406,52.72235-.79173,19.78211-.45311,39.6198-.2234,59.42756.10571,9.11022-2.44308,14.28348-12.83159,13.84523C1065.80508,1945.79354,1052.5471,1946.216,1038.20676,1946.216Z"/></svg>