<svg width="349" height="58" viewBox="0 0 349 58" fill="none" xmlns="http://www.w3.org/2000/svg">
<path d="M15.59 56.5418V11.5277H0V2.1371H42.4969V11.5277H26.8733V56.5418H15.59Z" fill="black"/>
<path d="M46.3167 5.98143C46.3167 2.70445 48.936 0.291168 52.1514 0.291168C55.3668 0.291168 57.9861 2.70445 57.9861 5.98143C57.9861 9.1822 55.3668 11.6717 52.1514 11.6717C48.9276 11.6802 46.3167 9.19067 46.3167 5.98143ZM46.6861 16.1257H57.5999V56.5418H46.6861V16.1257Z" fill="black"/>
<path d="M64.8534 16.1257H75.3979V23.3994H75.6245C77.908 18.2341 81.9797 15.5245 88.1419 15.5245C97.0409 15.5245 102.044 21.1809 102.044 30.6392V56.5418H91.1306V32.9424C91.1306 27.6671 88.7044 24.6526 83.726 24.6526C78.7895 24.6526 75.7673 28.2683 75.7673 33.5521V56.5502H64.8534V16.1257Z" fill="black"/>
<path d="M133.888 16.1257H146.263L130.975 33.4674L147.01 56.5418H134.45L122.974 40.106L120.137 43.1967V56.5418H109.223V2.1371H120.137V32.3327H120.288L133.888 16.1257Z" fill="black"/>
<path d="M184.83 44.1706C183.638 52.0455 176.385 57.2531 166.554 57.2531C154.297 57.2531 146.817 49.3782 146.817 36.5158C146.817 23.6196 154.33 15.406 166.143 15.406C177.77 15.406 185.166 23.2131 185.166 35.4997V38.8529H157.546V39.5303C157.546 45.2206 161.248 49.1072 166.739 49.1072C170.659 49.1072 173.799 47.2189 174.815 44.1706H184.83ZM157.663 32.1126H174.672C174.445 26.9474 171.087 23.5518 166.26 23.5518C161.508 23.5518 158.033 27.0574 157.663 32.1126Z" fill="black"/>
<path d="M190.774 16.1257H201.319V23.3994H201.545C202.931 18.3865 206.364 15.6346 211.074 15.6346C212.342 15.6346 213.391 15.787 214.18 16.0495V25.7365C213.282 25.3554 211.788 25.0929 210.218 25.0929C204.836 25.0929 201.696 28.4122 201.696 34.1025V56.5333H190.783V16.1257H190.774Z" fill="black"/>
<path d="M256.635 56.5418V31.7739H227.033V56.5418H220.309V2.1371H227.033V25.6602H256.635V2.1371H263.36V56.5333H256.635V56.5418Z" fill="black"/>
<path d="M304.74 56.5417H298.569V50.0216H298.418C296.026 54.5857 292.063 56.9228 286.086 56.9228C277.598 56.9228 272.628 51.3849 272.628 42.4854V17.3365H279.134V41.3169C279.134 47.6846 282.089 51.1224 288.109 51.1224C294.422 51.1224 298.242 46.7531 298.242 40.0806V17.328H304.748V56.5417H304.74Z" fill="black"/>
<path d="M319.843 49.9031H319.692V56.5417H313.488V2.1371H319.994V23.7042H320.145C322.572 19.4026 327.097 16.9555 332.596 16.9555C342.385 16.9555 349 24.9489 349 36.9391C349 48.9632 342.385 56.9228 332.478 56.9228C326.794 56.9143 322.345 54.4248 319.843 49.9031ZM319.952 36.9307C319.952 45.3729 324.511 51.1055 331.202 51.1055C337.927 51.1055 342.343 45.5677 342.343 36.9307C342.343 28.336 337.935 22.7558 331.202 22.7558C324.511 22.7558 319.952 28.5308 319.952 36.9307Z" fill="black"/>
</svg>
