<?xml version="1.0" standalone="no"?>
<!DOCTYPE svg PUBLIC "-//W3C//DTD SVG 20010904//EN"
 "http://www.w3.org/TR/2001/REC-SVG-20010904/DTD/svg10.dtd">
<svg version="1.0" xmlns="http://www.w3.org/2000/svg"
 width="200.000000pt" height="200.000000pt" viewBox="0 0 200.000000 200.000000"
 preserveAspectRatio="xMidYMid meet">

<g transform="translate(0.000000,200.000000) scale(0.100000,-0.100000)"
fill="#000000" stroke="none">
<path d="M0 995 l0 -995 1000 0 1000 0 0 995 0 995 -1000 0 -1000 0 0 -995z
m1417 725 c1 -9 -7 -17 -19 -17 -11 -1 -18 1 -14 4 3 3 1 12 -4 19 -8 9 -5 12
13 10 13 0 24 -8 24 -16z m-511 -181 c10 -17 -13 -36 -27 -22 -12 12 -4 33 11
33 5 0 12 -5 16 -11z m-472 -85 c3 -9 6 -153 6 -320 0 -336 4 -360 59 -388 36
-19 97 -20 130 -3 13 6 34 25 45 40 20 27 21 43 26 355 l5 327 68 3 67 3 0
-324 c0 -377 -4 -400 -76 -478 -54 -57 -110 -79 -204 -79 -108 0 -175 33 -227
111 -46 70 -53 127 -53 455 0 165 3 304 7 307 3 4 37 7 74 7 52 0 68 -4 73
-16z m796 -176 l5 -186 160 189 160 189 80 -3 c62 -1 80 -5 83 -17 2 -12 -154
-198 -299 -356 -19 -21 -19 -21 141 -233 90 -119 160 -220 158 -230 -3 -13
-18 -17 -83 -19 l-80 -2 -160 218 -160 219 -5 -216 -5 -216 -70 0 -70 0 -3
428 -2 428 72 -3 73 -3 5 -187z m-878 -770 c24 -26 32 -29 38 -18 21 37 38 53
48 46 8 -5 3 -20 -15 -48 l-26 -42 27 -48 c22 -40 24 -48 11 -48 -9 0 -24 13
-33 30 -21 37 -28 37 -47 0 -9 -18 -23 -30 -35 -30 -18 0 -17 4 10 46 l29 46
-25 39 c-40 64 -31 79 18 27z m336 5 c27 -36 6 -79 -43 -89 -32 -6 -35 -9 -35
-40 0 -24 -5 -34 -15 -34 -12 0 -15 16 -15 88 0 49 3 92 8 96 12 13 86 -3 100
-21z m243 6 c4 -7 7 -47 7 -90 1 -61 -2 -79 -13 -79 -9 0 -15 14 -17 38 -3 34
-6 37 -33 37 -27 0 -30 -3 -33 -37 -2 -21 -7 -38 -13 -38 -5 0 -9 43 -9 96 l0
97 52 -6 c28 -4 55 -12 59 -18z m487 -7 c16 -21 15 -42 -3 -42 -8 0 -15 7 -15
15 0 22 -48 31 -67 12 -21 -21 -11 -33 33 -40 45 -8 64 -23 64 -53 0 -32 -26
-54 -62 -54 -33 0 -68 24 -68 47 0 17 17 17 27 -1 8 -14 24 -19 56 -17 13 1
17 8 15 24 -2 17 -11 23 -38 25 -47 5 -62 19 -58 56 5 52 82 70 116 28z m260
0 c14 -19 16 -42 2 -42 -5 0 -14 9 -20 21 -16 28 -64 23 -68 -8 -3 -19 1 -23
22 -23 13 0 36 -4 50 -10 21 -8 26 -16 26 -44 0 -39 -20 -56 -66 -56 -30 0
-64 25 -64 47 0 18 7 17 37 -7 31 -24 37 -25 58 -4 22 22 2 44 -40 44 -39 0
-58 19 -53 57 5 49 83 66 116 25z m-508 9 c0 -6 -17 -11 -37 -13 -31 -2 -39
-7 -41 -25 -3 -21 1 -23 37 -23 30 0 41 -4 41 -15 0 -11 -11 -15 -41 -15 -38
0 -40 -1 -37 -27 3 -24 8 -28 41 -31 55 -5 45 -22 -13 -22 l-50 0 0 90 0 90
50 0 c28 0 50 -4 50 -9z"/>
<path d="M300 1162 l0 -208 55 -27 55 -27 0 213 0 213 -45 22 c-25 12 -50 22
-55 22 -6 0 -10 -80 -10 -208z"/>
<path d="M802 1166 c-9 -21 -17 -26 -30 -21 -55 23 -52 30 -52 -140 0 -206
-10 -238 -93 -290 -14 -9 -12 -15 18 -49 l33 -40 40 27 c22 16 52 51 68 80 28
50 29 57 32 212 2 88 2 180 0 205 l-3 45 -13 -29z"/>
<path d="M374 808 c-4 -6 -3 -8 3 -5 5 4 20 -3 31 -14 12 -11 22 -16 22 -11 0
17 -48 43 -56 30z"/>
<path d="M341 803 c0 -7 -8 -10 -17 -6 -14 5 -14 2 1 -33 20 -47 14 -43 63
-47 65 -5 71 15 12 43 -27 13 -51 30 -53 39 -3 9 -5 11 -6 4z"/>
<path d="M539 681 c9 -6 11 -16 7 -27 -6 -15 -4 -16 5 -7 14 14 5 43 -13 43
-10 0 -9 -3 1 -9z"/>
<path d="M1450 1283 c-20 -4 -32 -20 -60 -80 -19 -42 -36 -80 -38 -84 -2 -5 9
-9 25 -9 23 0 42 14 93 72 36 40 56 68 45 64 -25 -10 -66 -19 -45 -10 8 4 25
18 37 31 l22 23 -27 -1 c-15 -1 -38 -4 -52 -6z"/>
<path d="M1156 1245 c-21 -19 -43 -32 -47 -29 -5 3 -9 -82 -8 -188 0 -106 3
-187 6 -180 2 6 9 12 14 12 14 0 49 -39 49 -55 0 -8 9 -19 20 -25 19 -10 20
-8 20 68 l0 79 -40 18 c-22 10 -40 20 -40 22 0 2 18 39 40 83 36 72 40 87 40
155 0 41 -3 75 -7 75 -5 -1 -25 -16 -47 -35z"/>
<path d="M1340 1043 c-47 -9 -40 -19 46 -61 47 -23 82 -36 77 -29 -31 51 -70
96 -83 95 -8 0 -26 -3 -40 -5z"/>
<path d="M1100 800 c0 -11 4 -20 9 -20 5 0 7 9 4 20 -3 11 -7 20 -9 20 -2 0
-4 -9 -4 -20z"/>
<path d="M1441 803 c2 -5 31 -46 64 -91 l60 -82 67 0 c38 0 68 3 68 6 0 3 -9
19 -21 35 -13 19 -60 49 -131 85 -61 30 -108 51 -107 47z"/>
<path d="M610 480 c0 -28 3 -31 28 -28 21 2 27 8 27 28 0 20 -6 26 -27 28 -25
3 -28 0 -28 -28z"/>
<path d="M844 496 c-9 -23 3 -46 23 -46 28 0 45 16 41 36 -4 25 -56 32 -64 10z"/>
</g>
</svg>
