<?xml version="1.0" encoding="utf-8"?>
<!-- Generator: Adobe Illustrator 25.2.0, SVG Export Plug-In . SVG Version: 6.00 Build 0)  -->
<svg version="1.1" id="Layer_1" xmlns="http://www.w3.org/2000/svg" xmlns:xlink="http://www.w3.org/1999/xlink" x="0px" y="0px"
	 viewBox="0 0 700 700" style="enable-background:new 0 0 700 700;" xml:space="preserve">
<style type="text/css">
	.st0{fill:#FFFFFF;}
</style>
<path class="st0" d="M569,384.8c30.2-24.6,47-56,47-89.6c0-74.5-83.4-135-186.5-135c-62.2,0-117.6,22.4-151.8,56.6
	c11.8,1.1,23,2.2,34.2,4.5C341,200,383,186.6,429.5,186.6c88.5,0,160.2,48.7,160.2,108.6c0,28-15.7,54.3-44.2,74.5
	c-5,3.4-6.7,10.1-4.5,15.7c4.5,11.8,14,33.6,26.9,52.1c-33.6-9.5-65-26.9-80.6-37c-2.2-1.1-4.5-2.2-6.7-2.2c-1.1,0-1.7,0-2.8,0.6
	c-9,2.2-18.5,3.4-28,3.9c-3.4,9.5-7.8,18.5-13.4,26.9c14-0.6,28-1.7,42-4.5c21.3,12.9,52.1,28.6,85.7,38.1c2.2,0.6,4.5,1.1,6.7,1.1
	c8.4,0,15.7-3.9,20.7-11.2c6.2-9,6.2-20.2-0.6-29.1C581.8,411.7,574,396,569,384.8L569,384.8z"/>
<path class="st0" d="M257.6,242C161.8,242,84,296.3,84,364.1c0,33,19,63.3,49.8,85.1c-5,12.3-14.6,33.6-26.9,51
	c-6.7,9.5,1.7,21.8,12.9,19c35.3-9.5,67.8-27.4,86.8-39.2c16.2,3.4,33,5.6,51,5.6c95.8,0,173.6-54.3,173.6-122.1
	C430.6,296.3,352.8,242,257.6,242L257.6,242z M182.6,385.4c-12.3,0-21.8-9.5-21.8-21.8c0-12.3,9.5-21.8,21.8-21.8
	c12.3,0,21.8,9.5,21.8,21.8C204.4,375.8,194.9,385.4,182.6,385.4z M257.6,385.4c-12.3,0-21.8-9.5-21.8-21.8
	c0-12.3,9.5-21.8,21.8-21.8c12.3,0,21.8,9.5,21.8,21.8C278.9,375.8,269.4,385.4,257.6,385.4z M332.1,385.4
	c-12.3,0-21.8-9.5-21.8-21.8c0-12.3,9.5-21.8,21.8-21.8s21.8,9.5,21.8,21.8C353.9,375.8,343.8,385.4,332.1,385.4z"/>
</svg>
