<?xml version="1.0" encoding="utf-8"?>
<!-- Generator: Adobe Illustrator 25.2.0, SVG Export Plug-In . SVG Version: 6.00 Build 0)  -->
<svg version="1.1" id="Layer_1" xmlns="http://www.w3.org/2000/svg" xmlns:xlink="http://www.w3.org/1999/xlink" x="0px" y="0px"
	 viewBox="0 0 700 700" style="enable-background:new 0 0 700 700;" xml:space="preserve">
<style type="text/css">
	.st0{fill:#FFFFFF;}
</style>
<path class="st0" d="M164,390c-38.1,0-69,31-69,69c0,23.6,10.6,54.5,31.4,91.8c13.3,23.7,26.8,42.7,31.2,48.6c1.7,2,4.3,3.2,6.9,3.2
	c2.8,0,5.5-1.4,7.2-3.8l0,0c3.4-4.7,17.6-27,30.7-51.7c20.7-38.6,31.1-68.2,31.1-88.1C233.3,421,202.3,390,164,390L164,390z
	 M186.6,460.6c0,12.3-10,22.4-22.4,22.4c-12.3,0-22.4-10-22.4-22.4c0-12.4,10-22.5,22.4-22.5C176.5,438.1,186.6,448.2,186.6,460.6z"
	/>
<path class="st0" d="M535.8,88.1c-38.1,0-69,31-69,69c0,23.7,10.6,54.6,31.4,91.8c13.1,23.3,27,43.1,30.6,47.8c1.5,2.5,4.3,4,7.3,4
	h0.1c2.8,0,5.5-1.4,7.2-3.8c0.2-0.3,0.4-0.5,0.5-0.8c4.9-7.6,17.7-27.6,30.1-51c20.7-38.7,31.1-68.3,31.1-88.1
	C605.1,119,574.1,88.1,535.8,88.1L535.8,88.1z M558.2,158.6c0,12.4-10,22.5-22.4,22.5c-12.4,0-22.4-10.1-22.4-22.5
	c0-12.3,10-22.4,22.4-22.4C548.2,136.2,558.2,146.2,558.2,158.6z"/>
<path class="st0" d="M545.1,344.4c-3.6,0-6.6,2.9-6.6,6.6c0,109.9-100.4,199.8-226.1,205.4l31.6-48.8c2-3,1.1-7.1-2-9.1
	c-3-2-7.1-1.1-9.1,2l-38.3,59.2c-0.1,0.2-0.1,0.4-0.2,0.5c-0.1,0.2-0.3,0.4-0.4,0.7c-0.1,0.2-0.1,0.5-0.2,0.7
	c-0.1,0.4-0.2,0.7-0.2,1.1c0,0.2-0.1,0.4-0.1,0.5c0,0.1,0,0.1,0,0.1c0,0.2,0.1,0.5,0.1,0.7c0,0.4,0.1,0.8,0.3,1.1
	c0.1,0.2,0.1,0.5,0.2,0.7c0.1,0.2,0.2,0.3,0.3,0.5c0.2,0.3,0.4,0.6,0.7,0.9c0.2,0.2,0.3,0.4,0.5,0.6c0,0,0.1,0.1,0.1,0.1l51.4,47
	c1.3,1.2,2.8,1.7,4.4,1.7c1.8,0,3.6-0.7,4.8-2.1c2.4-2.7,2.3-6.8-0.4-9.3l-39.5-36.1c131.1-7.4,235.1-102.4,235.1-218.2
	C551.7,347.4,548.7,344.4,545.1,344.4L545.1,344.4z"/>
<path class="st0" d="M154.9,357.6c3.6,0,6.6-2.9,6.6-6.6c0-109.8,100.4-199.8,226.1-205.4L356,194.5c-2,3-1.1,7.1,2,9.1
	c1.1,0.7,2.3,1.1,3.6,1.1c2.2,0,4.3-1.1,5.5-3l38.3-59.2c0.1-0.2,0.1-0.4,0.2-0.5c0.1-0.2,0.3-0.4,0.4-0.7c0.1-0.2,0.1-0.5,0.2-0.7
	c0.1-0.4,0.2-0.7,0.2-1.1c0-0.2,0.1-0.4,0.1-0.5c0-0.1,0-0.1,0-0.1c0-0.2-0.1-0.5-0.1-0.7c-0.1-0.4-0.1-0.7-0.3-1.1
	c-0.1-0.2-0.1-0.5-0.2-0.7c-0.1-0.2-0.2-0.4-0.3-0.5c-0.2-0.3-0.4-0.6-0.6-0.9c-0.2-0.2-0.3-0.4-0.5-0.6c0,0,0-0.1-0.1-0.1l-51.4-47
	c-2.7-2.4-6.8-2.3-9.3,0.4c-2.4,2.7-2.3,6.8,0.4,9.3l39.5,36.1C252.4,140.1,148.3,235.2,148.3,351
	C148.3,354.6,151.3,357.6,154.9,357.6L154.9,357.6z"/>
</svg>
