<?xml version="1.0" encoding="utf-8"?>
<!-- Generator: Adobe Illustrator 25.2.0, SVG Export Plug-In . SVG Version: 6.00 Build 0)  -->
<svg version="1.1" id="Layer_1" xmlns="http://www.w3.org/2000/svg" xmlns:xlink="http://www.w3.org/1999/xlink" x="0px" y="0px"
	 viewBox="0 0 700 700" style="enable-background:new 0 0 700 700;" xml:space="preserve">
<style type="text/css">
	.st0{fill:#FFFFFF;}
</style>
<path class="st0" d="M652.7,465.5c-12.2,0-22.6,7-27.8,17.2H578V346.9h-77c0,0,0,0-0.1,0v-48.1h122.8c4.7,11.4,15.8,19.5,28.9,19.5
	c17.3,0,31.3-14,31.3-31.3s-14-31.3-31.3-31.3c-13.1,0-24.3,8.1-28.9,19.5l-122.8,0V228c0,0,0,0,0.1,0h77v-97.8l53.7-28.2
	c5.6,5.1,12.9,8.2,21,8.2c17.3,0,31.3-14,31.3-31.3s-14-31.3-31.3-31.3c-17.3,0-31.3,14-31.3,31.3c0,0.6,0.1,1.1,0.2,1.7l-67.1,35.2
	v88.5H501c0,0,0,0-0.1,0v-21.8c0-27.2-16.4-78.6-78.6-78.6H279.2c-27.2,0-78.6,16.4-78.6,78.6v21.8c-0.2,0-0.3-0.1-0.5-0.1h-53.5
	V69.5H78c-4-12.6-15.7-21.8-29.7-21.8c-17.3,0-31.3,14-31.3,31.3s14,31.3,31.3,31.3c12.2,0,22.6-7,27.8-17.2H123V228h77
	c0.2,0,0.3-0.1,0.5-0.1v47.5c-0.2,0-0.5-0.1-0.7-0.1H77.3c-4.7-11.4-15.8-19.5-28.9-19.5c-17.3,0-31.3,14-31.3,31.3
	c0,17.3,14,31.3,31.3,31.3c13.1,0,24.3-8.1,28.9-19.5h122.6c0.2,0,0.5-0.1,0.7-0.1v51.7c-0.2,0-0.3-0.1-0.5-0.1h-77v95.3l-53.7,28.2
	c-5.6-5.1-12.9-8.2-21-8.2c-17.3,0-31.3,14-31.3,31.3c0,17.3,14,31.3,31.3,31.3s31.3-14,31.3-31.3c0-0.6-0.1-1.2-0.2-1.7l67.1-35.2
	l0-86h53.4c0.2,0,0.3-0.1,0.5-0.1v19.3c0,27.2,16.4,78.6,78.6,78.6h143.1c27.2,0,78.6-16.4,78.6-78.6v-22.6c0,0,0,0,0.1,0h53.5
	v135.7H623c4,12.6,15.7,21.8,29.7,21.8c17.3,0,31.3-14,31.3-31.3C684,479.5,670,465.5,652.7,465.5L652.7,465.5z M477.4,393.1
	c0,53-49.4,55-55.1,55h-143c-53.1,0-55-49.4-55.1-55V182.6c0-53.1,49.5-55,55.1-55.1h143.1c53.1,0,55,49.5,55.1,55.1L477.4,393.1z"
	/>
<path class="st0" d="M427.5,322.7c-0.5-16-8.7-30.1-21.1-38.7c-0.8-0.6-1.7-1.2-2.7-1.8c-6.6-4-14.1-6.5-22.2-7.1
	c-1.6-0.2-3.1-0.2-4.6-0.2c-0.8,0-5.5,0-12.4,0l-7.4-0.1h-3.8v-0.1c-17.8,0-33.1,0-34.6,0c-12.7,0-23.1-9.9-23.7-22.4c0,0,0,0,0-0.1
	c0-0.3,0-0.6,0-1c0-0.3,0-0.6,0-1c0,0,0,0,0-0.1c0.6-12.5,11-22.4,23.7-22.4c2.8,0,61.8-0.1,87.7-0.1h2.9c6.5,0,11.8-5.3,11.8-11.8
	s-5.3-11.8-11.8-11.8h-22.6l0-38c0-6.5-5.3-11.8-11.8-11.8s-11.8,5.3-11.8,11.8v38.1c-10.9,0-22.8,0-24.6,0l-2.8,0l0-38.1
	c0-6.5-5.3-11.8-11.8-11.8c-6.5,0-11.8,5.3-11.8,11.8v38.8c-20.6,2.9-37,18.8-40.2,39.1h-0.1c-0.3,2.3-0.5,4.6-0.5,7
	c0,0.1,0,0.1,0,0.2c0,0.1,0,0.1,0,0.2c0,2.4,0.2,4.7,0.5,7h0.1c3.4,21.3,21.1,37.7,43,39.4l23.6,0.4c2,0,7.6,0,14.8,0v-0.1h24.5
	c14.3,0,26.1,11.9,26.1,26.1c0,14.2-11.7,25.8-26,25.8l-90.5,0v0.1h-0.7c-6.5,0-11.8,5.3-11.8,11.8c0,6.5,5.3,11.8,11.8,11.8h25.5
	v36.1c0,6.5,5.3,11.8,11.8,11.8c6.5,0,11.8-5.3,11.8-11.8v-36.1H357l6.1-0.1v36.2c0,6.5,5.3,11.8,11.8,11.8
	c6.5,0,11.8-5.3,11.8-11.8v-37.1c6.1-1.1,11.9-3.3,17-6.4c1-0.6,1.9-1.2,2.7-1.8c12.4-8.6,20.6-22.7,21.1-38.7c0-0.4,0-0.8,0-1.2
	c0-0.1,0-0.2,0-0.3v-0.1v-0.1c0-0.1,0-0.2,0-0.3C427.5,323.5,427.5,323.1,427.5,322.7L427.5,322.7z"/>
</svg>
