<?xml version="1.0" encoding="utf-8"?>
<!-- Generator: Adobe Illustrator 25.2.0, SVG Export Plug-In . SVG Version: 6.00 Build 0)  -->
<svg version="1.1" id="Layer_1" xmlns="http://www.w3.org/2000/svg" xmlns:xlink="http://www.w3.org/1999/xlink" x="0px" y="0px"
	 viewBox="0 0 700 700" style="enable-background:new 0 0 700 700;" xml:space="preserve">
<style type="text/css">
	.st0{fill:#FFFFFF;}
</style>
<path class="st0" d="M350,99.1c-316.2,5.7-316.2,475.6,0,481.2C666.2,574.7,666.2,104.8,350,99.1z M398,383.6
	c-2.4,3.9-93.3,94.1-97.9,98.3c-7.9-7.9-94.9-93-99.9-101.1h41.5l40.2,38.3l20-59.4l21.7,21.7h76C399.1,382.1,398.6,382.8,398,383.6
	z M405,372.2c-0.8-0.3-76.9,0-77.7-0.1l-29.5-29.5l-20,59.9l-32.5-30.8H197c-0.5,0-1.2,0.1-1.6,0.3c-29.8-71.9,46.1-123.1,105-73.2
	C358,248.2,436,301.8,405,372.2L405,372.2z M445.3,269.7c-10.1,0.1-10.1-15.7,0-15.5C455.3,254.1,455.3,270,445.3,269.7z
	 M469.1,270.3h-4.6c0.1-14-11.9-26-25.9-25.9v-9.2c19.2,0,35,15.8,35,35h-4.5L469.1,270.3z M482.9,270.3c0-24.4-19.8-44.2-44.2-44.2
	v-9.2c29.4,0,53.4,24,53.4,53.4L482.9,270.3z M502.2,271.2c0-35.5-28.9-64.4-64.4-64.4v-9.2c40.6,0,73.6,33,73.6,73.6L502.2,271.2z"
	/>
</svg>
