<?xml version="1.0" encoding="utf-8"?>
<!-- Generator: Adobe Illustrator 25.2.0, SVG Export Plug-In . SVG Version: 6.00 Build 0)  -->
<svg version="1.1" id="Layer_1" xmlns="http://www.w3.org/2000/svg" xmlns:xlink="http://www.w3.org/1999/xlink" x="0px" y="0px"
	 viewBox="0 0 700 700" style="enable-background:new 0 0 700 700;" xml:space="preserve">
<style type="text/css">
	.st0{fill:#FFFFFF;}
</style>
<path class="st0" d="M486.9,242.4c-1.3,2.5-3,4.9-5.1,6.9c-5.9,5.9-13.7,8.6-21.4,8.2c20.1,46.2,11.2,102.1-26.6,139.9
	c-49.4,49.4-129.4,49.4-178.8,0c-49.4-49.4-49.4-129.5,0-178.8c25.2-25.2,58.4-37.5,91.4-37c-7.9-8.4-9.6-20.3-5.3-30.3
	c-39,0.8-77.8,16.1-107.6,45.9c-61.2,61.2-61.2,160.5,0,221.8s160.5,61.2,221.8,0C503,371.2,513.5,300.4,486.9,242.4L486.9,242.4z
	 M355,190.9c-33.5-3-68.1,8.3-93.7,34c-45.9,45.9-45.9,120.4,0,166.3c45.9,45.9,120.4,45.9,166.3,0c37-37,44.2-92.5,21.6-136.7
	c-2.5-1.3-4.9-3-7-5.1c-1.1-1.1-2.1-2.3-3-3.6c-1,5.4-3.6,10.6-7.8,14.8c-10.9,10.9-28.7,10.9-39.6,0c-6.1-6.1-8.8-14.2-8.1-22.2
	c-10.3,4.5-22.7,2.6-31.1-5.8c-10.9-10.9-10.9-28.7,0-39.6C353.4,192.2,354.2,191.5,355,190.9L355,190.9z"/>
<path class="st0" d="M142.4,255.9L129.2,450c0,0,4.5,14.8,22.4,14.8c17.9,0,22.4-14.8,22.4-14.8l-13.2-194.1
	c11.6-4.3,18.8-15.1,18.8-15.1v-95.2c0-3.1-2.5-5.6-5.6-5.6s-5.6,2.5-5.6,5.6v61.6c0,0,0,5.6-5.6,5.6c-5.6,0-5.6-5.6-5.6-5.6v-61.6
	c0-3.1-2.5-5.6-5.6-5.6c-3.1,0-5.6,2.5-5.6,5.6v61.6c0,0,0,5.6-5.6,5.6c-5.6,0-5.6-5.6-5.6-5.6v-61.6c0-3.1-2.5-5.6-5.6-5.6
	s-5.6,2.5-5.6,5.6v95.2C123.6,240.8,130.8,251.6,142.4,255.9L142.4,255.9z"/>
<path class="st0" d="M557.2,95.2c-11.2-5.6-39.2,39.2-44.8,95.2c-5.6,56,11.2,84,11.2,84l16.9,9.6L529.2,450c0,0,4.5,14.8,22.4,14.8
	c17.9,0,22.4-14.8,22.4-14.8L557.2,95.2z"/>
</svg>
