<?xml version="1.0" encoding="utf-8"?>
<!-- Generator: Adobe Illustrator 25.2.0, SVG Export Plug-In . SVG Version: 6.00 Build 0)  -->
<svg version="1.1" id="Layer_1" xmlns="http://www.w3.org/2000/svg" xmlns:xlink="http://www.w3.org/1999/xlink" x="0px" y="0px"
	 viewBox="0 0 700 700" style="enable-background:new 0 0 700 700;" xml:space="preserve">
<style type="text/css">
	.st0{fill:#FFFFFF;}
</style>
<path class="st0" d="M302.3,315.7c3,5.8,5.6,11.9,7.7,18.1c1.2,3.4,4.4,5.6,8,5.6c0.9,0,1.8-0.2,2.7-0.4c2.1-0.7,3.9-2.2,4.9-4.2
	c1-2,1.1-4.3,0.4-6.4c-2.4-7-5.3-13.8-8.6-20.4l-24.6-47.5c-6-11.7-5.7-25.5,0.7-37c5.8-10.7,16.5-17.7,28.6-18.6
	c3.7-0.3,7.5-0.1,11.2,0.7l-0.6,0.7c-1.3,1.3-2.5,2.7-3.6,4.1l-1,1.4c-1,1.4-2,2.8-2.9,4.3c-0.3,0.6-0.7,1.2-1,1.7v0
	c-1,1.7-1.9,3.5-2.7,5.3c-0.1,0.3-0.2,0.5-0.3,0.8c-0.8,2.1-1.6,4.2-2.2,6.3c0,0.6,0,1.2-0.4,1.8c-0.4,1.6-0.7,3.3-1,5
	c0,0.6,0,1.3-0.3,2c-0.3,2.4-0.4,4.7-0.4,7.1c0,20.7,11.1,39.8,29,50.1c0.5,0.3,1.1,0.5,1.7,0.7h0.8c0.6,0.1,1.2,0.1,1.7,0
	c0.6,0.1,1.2,0.1,1.7,0h0.8c0.6-0.2,1.1-0.4,1.7-0.7c15.6-8.9,26.2-24.5,28.6-42.2c2.5-17.8-3.5-35.7-16-48.4
	c3.7-0.7,7.4-1,11.2-0.7c12.1,1,22.9,8.1,28.6,18.9c6.4,11.4,6.6,25.3,0.7,37l-24.6,47.6c-3.4,6.6-6.3,13.4-8.6,20.4
	c-0.7,2.1-0.6,4.4,0.4,6.4c1,2,2.7,3.5,4.9,4.2c0.9,0.3,1.8,0.4,2.7,0.4c3.6,0,6.8-2.2,8-5.6c2.1-6.2,4.6-12.3,7.7-18.1l24.5-47.5
	c8.6-16.7,8.3-36.5-0.8-52.9c-8.4-15.6-24.2-25.9-41.8-27.3c-10.2-0.7-20.3,1.2-29.5,5.6c-9.2-4.4-19.4-6.3-29.5-5.6
	c-17.7,1.4-33.4,11.7-41.8,27.3c-9.1,16.4-9.4,36.2-0.8,52.9L302.3,315.7z M350,278.5c-10.3-7.7-16.4-19.9-16.4-32.8
	s6.1-25,16.4-32.8c10.3,7.7,16.4,19.9,16.4,32.8S360.3,270.7,350,278.5z"/>
<path class="st0" d="M581.5,349.9c-1.1,0.1-2.1,0.2-3.1,0.3c-9.9-10.2-26.3-20.9-49.4-32.8c39.5-21.4,66.4-44.7,60.7-65.9
	c-5.2-19-33.6-28-84.3-26.4v0c-7.4-31.9-24.5-60.7-48.8-82.5c-33.9-30.5-79.3-45-124.5-39.6c-32.6,3.8-63.3,17.6-87.8,39.5
	c-24.5,21.9-41.7,50.7-49.3,82.7c-19.8-1.2-39.6,0.7-58.9,5.6c-7.4-5.6-17.1-7.2-26-4.4c-8.9,2.8-15.9,9.7-18.8,18.5
	s-1.5,18.5,4,26.1s14.2,12,23.5,12c1.1-0.1,2.2-0.2,3.3-0.3c13.9,13.6,29.8,24.9,47.2,33.6c-34.9,19.3-64.6,42.7-58.6,64.9
	c4.8,17.6,29.7,26.5,74.1,26.5H197h0c23.3-0.9,46.5-3.3,69.5-7.1c3.3,4.1,6,8.6,8.1,13.4h-2.1h0c-4.6,0-8.4,3.8-8.4,8.4
	c0,4.6,3.8,8.4,8.4,8.4h6.3c0,1.8,0.3,3.7,0.3,5.6v10l-6.6,0c-4.6,0-8.4,3.8-8.4,8.4c0,4.6,3.8,8.4,8.4,8.4h6.6l0,15.8h-6.6
	c-4.6,0-8.4,3.8-8.4,8.4c0,4.6,3.8,8.4,8.4,8.4h6.6v24l0,0c0,4.6,3.8,8.4,8.4,8.4h18.6v21.4c0,4.6,3.8,8.4,8.4,8.4h71
	c4.6,0,8.4-3.8,8.4-8.4v-21.4h18.6c4.6,0,8.4-3.8,8.4-8.4v-24h6.6h0c4.6,0,8.4-3.8,8.4-8.4c0-4.6-3.8-8.4-8.4-8.4H421v-15.6h6.6h0
	c4.6,0,8.4-3.8,8.4-8.4s-3.8-8.4-8.4-8.4H421v-10.2c0-1.8,0-3.7,0.3-5.6h6.3l0,0c4.6,0,8.4-3.8,8.4-8.4c0-4.6-3.8-8.4-8.4-8.4h-2
	c2.1-5,4.8-9.6,8.1-13.8c22.9,3.8,46.1,6.1,69.3,7.1h12.4c16.4,0.5,32.8-1.4,48.7-5.6c7.4,5.6,17.1,7.2,26,4.4
	c8.9-2.8,15.9-9.7,18.8-18.5c2.9-8.8,1.5-18.5-4-26.1s-14.2-12-23.5-12L581.5,349.9z M581.5,391.2L581.5,391.2
	c-5.8,0-10.8-4.1-12-9.9c-0.1-0.8-0.1-1.6,0-2.4c0.1-6.7,5.5-12.1,12.2-12.2c6.2,0.1,11.3,4.8,11.9,11c0.7,6.1-3.4,11.8-9.4,13.2
	C583.3,391.1,582.4,391.2,581.5,391.2L581.5,391.2z M573.3,256c2.8,10.4-19.9,30.3-63.3,52.3c-2.2-1.1-4.5-2.1-6.7-3.1v0
	c4.1-14.2,6.2-28.9,6.2-43.7c0-6.5-0.4-13-1.3-19.5C556,241,571.8,250.1,573.3,256L573.3,256z M427.3,382.5
	c-14-2.4-28.5-5.2-43.3-8.5c25.8-7.5,53.6-16.8,80.2-27.2c-8.4,11.3-18.4,21.3-29.8,29.7C432,378.3,429.6,380.3,427.3,382.5
	L427.3,382.5z M333.7,119.8c40.5-4.8,81.2,8.1,111.5,35.4c23,20.5,38.8,48,44.9,78.2c6.1,30.2,2.1,61.6-11.2,89.5
	c-37.7,16-76.5,29.2-116.1,39.8l-12.7,3.2l-12.5-3.2c-39.7-10.6-78.5-23.9-116.3-39.9c-2.6-5.6-4.9-11.3-6.8-17.2l-0.3-0.9v0
	c-6.1-19.5-8-40-5.6-60.3c3.9-31.8,18.4-61.4,41.1-84C272.3,137.8,301.9,123.5,333.7,119.8L333.7,119.8z M266,376.9
	c-11.6-8.5-21.9-18.6-30.5-30.1c26.7,10.4,54.6,19.8,80.4,27.3c-14.7,3.2-29.2,6-43.2,8.4h0C270.6,380.5,268.4,378.6,266,376.9
	L266,376.9z M106.3,253.8c0-5.7,4-10.7,9.6-11.9c0.9-0.2,1.7-0.3,2.6-0.3c5.9,0,10.9,4.2,12,10c0.1,0.8,0.1,1.6,0,2.4
	c-0.1,4.7-3,8.9-7.3,10.8c-4.3,1.9-9.3,1.1-12.9-2C107.8,260.5,106.4,257.3,106.3,253.8L106.3,253.8z M138,275.2
	c6-5.5,9.5-13.2,9.5-21.4c0-2.9-0.5-5.7-1.4-8.5c15-2.9,30.3-4.1,45.5-3.4v0.4c-2.3,20.2-0.8,40.6,4.5,60.3c-3,1.3-5.9,2.7-8.8,4.2
	v0C169.7,298.4,153.1,287.8,138,275.2L138,275.2z M196.4,390.6c-51.7,1.7-68.2-7.9-69.8-13.9c-2.1-7.6,13.1-26.6,60.6-51
	c7.1,3.4,14.3,6.8,21.8,10l0,0c10.2,19.4,24.2,36.5,41.2,50.2C232.4,388.5,214.5,390,196.4,390.6L196.4,390.6z M377.1,541.1h-54.2
	v-13h54.2L377.1,541.1z M404.2,511.3H295.9v-15.6h108.3L404.2,511.3z M404.2,479H295.9v-15.6h108.3L404.2,479z M404.2,436.6v10
	H295.9v-10.2c0-1.9,0-3.8-0.3-5.6l109,0c-0.1,2.1-0.3,3.9-0.3,5.6L404.2,436.6z M407.7,414.2l-115.4,0c-1.8-5.9-4.4-11.5-7.6-16.8
	c21-3.8,42.8-8.5,65.2-14.2c22.4,5.6,44.4,10.4,65.4,14.2c-3.2,5.2-5.8,10.8-7.7,16.6L407.7,414.2z M503.6,390.6L503.6,390.6
	c-18-0.6-36-2.1-53.8-4.6c17.1-13.8,31.1-30.9,41.2-50.4c6.6-2.9,13-5.6,19.3-8.8h0c18.4,8.3,35.7,18.7,51.5,31.2
	c-4.1,3.6-7,8.4-8.4,13.6s-1.2,10.8,0.5,16C537.3,390.7,520.4,391.7,503.6,390.6L503.6,390.6z"/>
</svg>
