<?xml version="1.0" encoding="utf-8"?>
<!-- Generator: Adobe Illustrator 25.2.0, SVG Export Plug-In . SVG Version: 6.00 Build 0)  -->
<svg version="1.1" id="Layer_1" xmlns="http://www.w3.org/2000/svg" xmlns:xlink="http://www.w3.org/1999/xlink" x="0px" y="0px"
	 viewBox="0 0 700 700" style="enable-background:new 0 0 700 700;" xml:space="preserve">
<style type="text/css">
	.st0{fill:#FFFFFF;}
</style>
<path class="st0" d="M294.6,314.4c2.8,1.7,6.2,0.6,7.8-2.2l35.8-62.2c2.2-4.5,6.7-6.7,11.8-6.7c5,0,9,2.8,11.8,6.7l44.2,77.3
	l-18.5-5.6c-2.8-1.1-6.2,0.6-6.7,3.9c-1.1,2.8,0.6,6.2,3.9,6.7l32.5,9.5h1.7c1.1,0,2.2-0.6,3.4-1.1c1.1-0.6,1.7-1.7,2.2-2.8L434,306
	c1.1-2.8-0.6-6.2-3.9-6.7c-2.8-1.1-6.2,0.6-6.7,3.9l-5.6,20.2L373,245.5c-4.5-7.8-12.3-12.3-21.3-12.3c-9,0-16.8,4.5-21.3,12.3
	l-35.8,62.2C291.2,309.3,292.3,313.2,294.6,314.4L294.6,314.4z"/>
<path class="st0" d="M422.2,344c-2.8,1.7-3.4,5-2.2,7.8l38.6,67.2c2.2,4.5,2.2,9.5,0,13.4c-2.2,4.5-6.7,6.7-11.8,6.7h-84l14.6-14.6
	c2.2-2.2,2.2-5.6,0-7.8c-2.2-2.2-5.6-2.2-7.8,0l-23.5,23.5c-1.1,1.1-1.7,2.2-1.7,3.9s0.6,2.8,1.7,3.9l23.5,23.5
	c1.1,1.1,2.8,1.7,3.9,1.7s2.8-0.6,3.9-1.7c2.2-2.2,2.2-5.6,0-7.8l-13.4-14h83.4c9,0,16.8-4.5,21.3-12.3c4.5-7.8,4.5-16.8,0-24.6
	l-38.6-67.2C428.4,343.5,425,342.4,422.2,344L422.2,344z"/>
<path class="st0" d="M252.6,450.4h79c3.4,0,5.6-2.2,5.6-5.6c0-3.4-2.2-5.6-5.6-5.6h-79c-5,0-9-2.2-11.8-6.7c-2.2-4.5-2.2-9.5,0-13.4
	l45.4-78.4l5,19.6c0.6,2.8,2.8,4.5,5.6,4.5h1.1c0.6,0,1.1-0.6,1.1-0.6c0,0.6,0,0.6-0.6,1.1v1.1v0.6c0,1.1,3.4,23,19.6,32.5
	c5,2.8,10.1,4.5,16.2,4.5c3.4,0,6.2-0.6,9.5-1.1v20.7H355v-20.7c3.4,0.6,6.2,1.1,9.5,1.1c5.6,0,11.2-1.7,16.2-4.5
	c16.2-9.5,19.6-31.4,19.6-32.5v-0.6v-1.1c0-0.6,0-0.6-0.6-1.1c0-0.6,0-0.6-0.6-1.1c0-0.6-0.6-0.6-0.6-0.6l-0.6-0.6
	c-0.6,0-0.6-0.6-1.1-0.6l-0.6-0.6c-1.1,0-22.4-6.2-38.1,4.5c-1.1,1.1-2.2,1.7-3.4,2.8v-2.2c14-10.6,21.8-23.5,22.4-37.5
	c1.7-26.3-21.8-48.2-23-48.7c0,0-0.6,0-0.6-0.6c-0.6,0-0.6-0.6-1.1-0.6c-0.6,0-0.6,0-1.1-0.6h-1.1h-1.1h-1.1c-0.6,0-0.6,0.6-1.1,0.6
	c0,0-0.6,0-0.6,0.6c-1.1,1.1-25.2,21.8-24.6,48.2c0.6,14,7.3,26.9,21.3,38.1v3.4c-1.1-1.1-2.2-2.2-3.9-3.4
	c-15.7-10.6-37-4.5-38.1-4.5c0,0-0.6,0-0.6,0.6h-0.6c0.6-1.1,0.6-2.2,0.6-3.4L294,325c-0.6-1.7-1.1-2.8-2.8-3.4
	c-1.1-0.6-2.8-1.1-4.5-0.6l-32.5,8.4c-2.8,0.6-5,3.9-3.9,6.7c0.6,2.8,2.8,4.5,5.6,4.5h1.1l19-5l-44.8,77.8c-4.5,7.8-4.5,16.8,0,24.6
	C235.8,445.4,243.6,450.4,252.6,450.4L252.6,450.4z M365.7,374.3c7.3-5,17.4-4.5,23-3.9c-1.7,5.6-5.6,15.1-13.4,19.6
	c-4.5,2.8-9.5,3.4-15.7,2.2l10.1-10.6l-11.8,3.9C359.5,380.4,362.3,376.5,365.7,374.3L365.7,374.3z M334.9,326.7
	c-0.6-15.7,10.6-29.7,16.8-35.8c5.6,6.7,16.8,20.7,15.7,36.4c-0.6,9-4.5,16.8-12.3,24.6l-5-38.1l-4.5,37
	C338.8,343.5,334.9,335.1,334.9,326.7L334.9,326.7z M334.3,374.3c3.4,2.2,6.2,6.2,7.8,11.2l-12.3-4.5l10.1,10.6
	c-6.2,1.1-11.2,0.6-15.7-2.2c-7.8-4.5-11.2-13.4-13.4-19.6C317.5,369.8,327,369.2,334.3,374.3L334.3,374.3z"/>
</svg>
