<svg width="400" height="384" viewBox="0 0 400 384" fill="none" xmlns="http://www.w3.org/2000/svg">
<g clip-path="url(#clip0_393_6)">
<path d="M106.56 130.24C111.04 132.96 116.48 131.2 119.04 126.72L176.32 27.1998C179.84 19.9998 187.04 16.4798 195.2 16.4798C203.2 16.4798 209.6 20.9598 214.08 27.1998L284.8 150.88L255.2 141.92C250.72 140.16 245.28 142.88 244.48 148.16C242.72 152.64 245.44 158.08 250.72 158.88L302.72 174.08H305.44C307.2 174.08 308.96 173.12 310.88 172.32C312.64 171.36 313.6 169.6 314.4 167.84L329.6 116.8C331.36 112.32 328.64 106.88 323.36 106.08C318.88 104.32 313.44 107.04 312.64 112.32L303.68 144.64L232 19.9998C224.8 7.51983 212.32 0.319824 197.92 0.319824C183.52 0.319824 171.04 7.51983 163.84 19.9998L106.56 119.52C101.12 122.08 102.88 128.32 106.56 130.24Z" fill="white"/>
<path d="M310.72 177.6C306.24 180.32 305.28 185.6 307.2 190.08L368.96 297.6C372.48 304.8 372.48 312.8 368.96 319.04C365.44 326.24 358.24 329.76 350.08 329.76H215.68L239.04 306.4C242.56 302.88 242.56 297.44 239.04 293.92C235.52 290.4 230.08 290.4 226.56 293.92L188.96 331.52C187.2 333.28 186.24 335.04 186.24 337.76C186.24 340.48 187.2 342.24 188.96 344L226.56 381.6C228.32 383.36 231.04 384.32 232.8 384.32C234.56 384.32 237.28 383.36 239.04 381.6C242.56 378.08 242.56 372.64 239.04 369.12L217.6 346.72H351.04C365.44 346.72 377.92 339.52 385.12 327.04C392.32 314.56 392.32 300.16 385.12 287.68L323.36 180.16C320.64 176.8 315.2 175.04 310.72 177.6Z" fill="white"/>
<path d="M39.36 347.84H165.76C171.2 347.84 174.72 344.32 174.72 338.88C174.72 333.44 171.2 329.92 165.76 329.92H39.36C31.36 329.92 24.96 326.4 20.48 319.2C16.96 312 16.96 304 20.48 297.76L93.12 172.32L101.12 203.68C102.08 208.16 105.6 210.88 110.08 210.88H111.84C112.8 210.88 113.6 209.92 113.6 209.92C113.6 210.88 113.6 210.88 112.64 211.68V213.44V214.4C112.64 216.16 118.08 251.2 144 266.4C152 270.88 160.16 273.6 169.92 273.6C175.36 273.6 179.84 272.64 185.12 271.84V304.96H203.2V271.84C208.64 272.8 213.12 273.6 218.4 273.6C227.36 273.6 236.32 270.88 244.32 266.4C270.24 251.2 275.68 216.16 275.68 214.4V213.44V211.68C275.68 210.72 275.68 210.72 274.72 209.92C274.72 208.96 274.72 208.96 273.76 208.16C273.76 207.2 272.8 207.2 272.8 207.2L271.84 206.24C270.88 206.24 270.88 205.28 270.08 205.28L269.12 204.32C267.36 204.32 233.28 194.4 208.16 211.52C206.4 213.28 204.64 214.24 202.72 216V212.48C225.12 195.52 237.6 174.88 238.56 152.48C241.28 110.4 203.68 75.3602 201.76 74.5602C201.76 74.5602 200.8 74.5602 200.8 73.6002C199.84 73.6002 199.84 72.6402 199.04 72.6402C198.08 72.6402 198.08 72.6402 197.28 71.6802H195.52H193.76H192C191.04 71.6802 191.04 72.6402 190.24 72.6402C190.24 72.6402 189.28 72.6402 189.28 73.6002C187.52 75.3602 148.96 108.48 149.92 150.72C150.88 173.12 161.6 193.76 184 211.68V217.12C182.24 215.36 180.48 213.6 177.76 211.68C152.64 194.72 118.56 204.48 116.8 204.48C116.8 204.48 115.84 204.48 115.84 205.44H114.88C115.84 203.68 115.84 201.92 115.84 200L105.6 147.2C104.64 144.48 103.84 142.72 101.12 141.76C99.36 140.8 96.64 140 93.92 140.8L41.92 154.24C37.44 155.2 33.92 160.48 35.68 164.96C36.64 169.44 40.16 172.16 44.64 172.16H46.4L76.8 164.16L5.11997 288.64C-2.08003 301.12 -2.08003 315.52 5.11997 328C12.48 339.84 24.96 347.84 39.36 347.84ZM220.32 226.08C232 218.08 248.16 218.88 257.12 219.84C254.4 228.8 248.16 244 235.68 251.2C228.48 255.68 220.48 256.64 210.56 254.72L226.72 237.76L207.84 244C210.4 235.84 214.88 229.6 220.32 226.08ZM171.04 149.92C170.08 124.8 188 102.4 197.92 92.6402C206.88 103.36 224.8 125.76 223.04 150.88C222.08 165.28 215.84 177.76 203.36 190.24L195.36 129.28L188.16 188.48C177.28 176.8 171.04 163.36 171.04 149.92ZM170.08 226.08C175.52 229.6 180 236 182.56 244L162.88 236.8L179.04 253.76C169.12 255.52 161.12 254.72 153.92 250.24C141.44 243.04 136 228.8 132.48 218.88C143.2 218.88 158.4 217.92 170.08 226.08Z" fill="white"/>
</g>
<defs>
<clipPath id="clip0_393_6">
<rect width="400" height="384" fill="white"/>
</clipPath>
</defs>
</svg>
