<svg width="700" height="672" viewBox="0 0 700 672" fill="none" xmlns="http://www.w3.org/2000/svg">
<g clip-path="url(#clip0_393_6)">
<path d="M186.48 227.92C194.32 232.68 203.84 229.6 208.32 221.76L308.56 47.5998C314.72 34.9998 327.32 28.8398 341.6 28.8398C355.6 28.8398 366.8 36.6798 374.64 47.5998L498.4 264.04L446.6 248.36C438.76 245.28 429.24 250.04 427.84 259.28C424.76 267.12 429.52 276.64 438.76 278.04L529.76 304.64H534.52C537.6 304.64 540.68 302.96 544.04 301.56C547.12 299.88 548.8 296.8 550.2 293.72L576.8 204.4C579.88 196.56 575.12 187.04 565.88 185.64C558.04 182.56 548.52 187.32 547.12 196.56L531.44 253.12L406 34.9998C393.4 13.1598 371.56 0.559814 346.36 0.559814C321.16 0.559814 299.32 13.1598 286.72 34.9998L186.48 209.16C176.96 213.64 180.04 224.56 186.48 227.92Z" fill="white"/>
<path d="M543.76 310.8C535.92 315.56 534.24 324.8 537.6 332.64L645.68 520.8C651.84 533.4 651.84 547.4 645.68 558.32C639.52 570.92 626.92 577.08 612.64 577.08H377.44L418.32 536.2C424.48 530.04 424.48 520.52 418.32 514.36C412.16 508.2 402.64 508.2 396.48 514.36L330.68 580.16C327.6 583.24 325.92 586.32 325.92 591.08C325.92 595.84 327.6 598.92 330.68 602L396.48 667.8C399.56 670.88 404.32 672.56 407.4 672.56C410.48 672.56 415.24 670.88 418.32 667.8C424.48 661.64 424.48 652.12 418.32 645.96L380.8 606.76H614.32C639.52 606.76 661.36 594.16 673.96 572.32C686.56 550.48 686.56 525.28 673.96 503.44L565.88 315.28C561.12 309.4 551.6 306.32 543.76 310.8Z" fill="white"/>
<path d="M68.8798 608.72H290.08C299.6 608.72 305.76 602.56 305.76 593.04C305.76 583.52 299.6 577.36 290.08 577.36H68.8798C54.8798 577.36 43.6798 571.2 35.8398 558.6C29.6798 546 29.6798 532 35.8398 521.08L162.96 301.56L176.96 356.44C178.64 364.28 184.8 369.04 192.64 369.04H195.72C197.4 369.04 198.8 367.36 198.8 367.36C198.8 369.04 198.8 369.04 197.12 370.44V373.52V375.2C197.12 378.28 206.64 439.6 252 466.2C266 474.04 280.28 478.8 297.36 478.8C306.88 478.8 314.72 477.12 323.96 475.72V533.68H355.6V475.72C365.12 477.4 372.96 478.8 382.2 478.8C397.88 478.8 413.56 474.04 427.56 466.2C472.92 439.6 482.44 378.28 482.44 375.2V373.52V370.44C482.44 368.76 482.44 368.76 480.76 367.36C480.76 365.68 480.76 365.68 479.08 364.28C479.08 362.6 477.4 362.6 477.4 362.6L475.72 360.92C474.04 360.92 474.04 359.24 472.64 359.24L470.96 357.56C467.88 357.56 408.24 340.2 364.28 370.16C361.2 373.24 358.12 374.92 354.76 378V371.84C393.96 342.16 415.8 306.04 417.48 266.84C422.24 193.2 356.44 131.88 353.08 130.48C353.08 130.48 351.4 130.48 351.4 128.8C349.72 128.8 349.72 127.12 348.32 127.12C346.64 127.12 346.64 127.12 345.24 125.44H342.16H339.08H336C334.32 125.44 334.32 127.12 332.92 127.12C332.92 127.12 331.24 127.12 331.24 128.8C328.16 131.88 260.68 189.84 262.36 263.76C264.04 302.96 282.8 339.08 322 370.44V379.96C318.92 376.88 315.84 373.8 311.08 370.44C267.12 340.76 207.48 357.84 204.4 357.84C204.4 357.84 202.72 357.84 202.72 359.52H201.04C202.72 356.44 202.72 353.36 202.72 350L184.8 257.6C183.12 252.84 181.72 249.76 176.96 248.08C173.88 246.4 169.12 245 164.36 246.4L73.3598 269.92C65.5198 271.6 59.3598 280.84 62.4398 288.68C64.1198 296.52 70.2798 301.28 78.1198 301.28H81.1998L134.4 287.28L8.95977 505.12C-3.64023 526.96 -3.64023 552.16 8.95977 574C21.8398 594.72 43.6798 608.72 68.8798 608.72ZM385.56 395.64C406 381.64 434.28 383.04 449.96 384.72C445.2 400.4 434.28 427 412.44 439.6C399.84 447.44 385.84 449.12 368.48 445.76L396.76 416.08L363.72 427C368.2 412.72 376.04 401.8 385.56 395.64ZM299.32 262.36C297.64 218.4 329 179.2 346.36 162.12C362.04 180.88 393.4 220.08 390.32 264.04C388.64 289.24 377.72 311.08 355.88 332.92L341.88 226.24L329.28 329.84C310.24 309.4 299.32 285.88 299.32 262.36ZM297.64 395.64C307.16 401.8 315 413 319.48 427L285.04 414.4L313.32 444.08C295.96 447.16 281.96 445.76 269.36 437.92C247.52 425.32 238 400.4 231.84 383.04C250.6 383.04 277.2 381.36 297.64 395.64Z" fill="white"/>
</g>
<defs>
<clipPath id="clip0_393_6">
<rect width="700" height="672" fill="white"/>
</clipPath>
</defs>
</svg>
