<?xml version="1.0" encoding="utf-8"?>
<!-- Generator: Adobe Illustrator 25.2.0, SVG Export Plug-In . SVG Version: 6.00 Build 0)  -->
<svg version="1.1" id="Layer_1" xmlns="http://www.w3.org/2000/svg" xmlns:xlink="http://www.w3.org/1999/xlink" x="0px" y="0px"
	 viewBox="0 0 700 700" style="enable-background:new 0 0 700 700;" xml:space="preserve">
<style type="text/css">
	.st0{fill:#FFFFFF;}
</style>
<path class="st0" d="M600.9,268.8c-12.2-45.5-36.6-86.8-70.5-119.6c-2-2-5.1-2.5-7.7-1.3l-41.7,18.4c-15.7-12.2-33-22.2-51.4-29.6
	l-5.2-45.1c-0.3-2.8-2.3-5.2-5.1-5.9c-45.4-12.4-93.4-12.4-138.8,0c-2.7,0.8-4.8,3.1-5.1,5.9l-5.2,45.1
	c-18.5,7.4-35.8,17.4-51.5,29.6l-41.6-18.4c-2.6-1.2-5.7-0.6-7.7,1.3c-33.8,32.8-58.2,74.1-70.4,119.6c-0.7,2.7,0.3,5.7,2.5,7.4
	l36.6,27.7c-1.6,10.5-2.4,21.1-2.4,31.8c0,10.8,0.9,21.7,2.5,32.4l-36.6,28h0c-2.2,1.7-3.2,4.5-2.5,7.2
	c12.2,45.5,36.6,86.8,70.4,119.6c2.1,2,5.1,2.5,7.7,1.3l42.2-18.6c15.5,12,32.6,21.8,50.8,29l5.3,45.9v0c0.4,2.8,2.4,5.2,5.1,5.9
	c45.4,12.5,93.4,12.5,138.9,0c2.7-0.8,4.7-3.1,5.1-5.9l5.3-45.9v0c18.2-7.3,35.3-17,50.8-29l42.2,18.6c2.6,1.2,5.7,0.6,7.7-1.3
	c33.8-32.8,58.2-74.1,70.4-119.6c0.7-2.7-0.3-5.7-2.5-7.4l-36.6-28h0c1.6-10.7,2.4-21.5,2.4-32.4c0-10.6-0.8-21.2-2.4-31.8
	l36.6-27.7C600.6,274.3,601.6,271.5,600.9,268.8L600.9,268.8z M550,295.2L550,295.2c-2.1,1.6-3.1,4.2-2.7,6.8
	c1.9,11.1,2.9,22.3,2.9,33.6c0,11.5-1,22.9-2.9,34.3c-0.4,2.6,0.6,5.2,2.7,6.7l36.2,27.4c-11.5,39.9-32.8,76.2-62,105.6l-41.7-18.4
	h0c-2.4-1.1-5.2-0.7-7.2,1c-16.3,13.2-34.7,23.6-54.3,31c-2.4,0.9-4.1,3.1-4.4,5.6l-5.3,45.4h0c-40.1,10.1-82.2,10.1-122.3,0
	l-5.3-45.4h0c-0.3-2.5-2-4.7-4.4-5.6c-19.6-7.4-38-17.8-54.3-31c-2-1.6-4.8-2-7.2-1l-41.7,18.4c-29.2-29.4-50.6-65.7-62-105.6
	l36.2-27.4c2.1-1.6,3.1-4.2,2.7-6.7c-1.9-11.3-2.9-22.8-3-34.3c0-11.3,0.9-22.5,2.9-33.6c0.4-2.6-0.6-5.2-2.7-6.8L113.9,268
	c11.5-39.8,32.8-76.2,62-105.6l41.1,18.2v0c2.4,1,5.2,0.7,7.3-1c16.5-13.4,35-24.1,54.9-31.6c2.4-0.9,4.1-3.1,4.5-5.6l5.2-44.8
	c40.1-10.1,82.1-10.1,122.2,0l5.2,44.8h0c0.4,2.5,2.1,4.7,4.5,5.6c19.9,7.5,38.4,18.2,54.9,31.6c2.1,1.6,4.9,2,7.3,1l41.1-18.2
	c29.3,29.4,50.7,65.7,62.1,105.6L550,295.2z"/>
<path class="st0" d="M438.2,282.8c2.4-0.2,4.5-1.6,5.6-3.6l39.5-71.6c1.5-2.8,1-6.2-1.2-8.4c-2.2-2.2-5.7-2.6-8.4-1.1l-21.8,12.8
	l-18.7-31.7c-5.7-8.9-15.5-14.3-26.1-14.4c-11.8,0-70.9-1-94.6-1.3v0c-1.4-0.1-2.8-0.1-4.3,0h-5.6c-3.5,0-19.3-0.4-35.4,19.8
	l-0.6,0.9l-35.3,62.3c-1,1.7-1.2,3.7-0.6,5.6c0.5,1.8,1.7,3.3,3.4,4.3l73.3,40.4c1,0.5,2.2,0.8,3.4,0.8c2.5,0,4.9-1.3,6.1-3.5
	l37.7-67.2l19.5,32.4L347.9,274h0c-2.8,1.6-4.1,4.9-3.2,8c0.9,3.1,3.8,5.2,7,5L438.2,282.8z M307.9,280.8l-61-33.6l31.8-56
	c12.1-14.9,22.4-14.2,22.8-14.2h10.1h0c8.8,1.3,16.6,6.5,21.2,14.1l13.4,21.6L307.9,280.8z M360.2,209.3l-15.5-24.8h0
	c-1.4-2.3-3-4.5-4.8-6.5c26.5,0.4,58.6,0.9,67.2,0.9c5.6,0.1,10.9,2.9,14.1,7.6l22.4,37.6v0c2,3.3,6.2,4.4,9.6,2.5l6.1-3.5
	l-25.8,45.8l-53.2,2.7l6.8-3.9h0c1.6-0.9,2.8-2.5,3.3-4.3c0.5-1.9,0.2-3.9-0.8-5.6L360.2,209.3z"/>
<path class="st0" d="M521.5,329.7l-36.3-62c-0.9-1.6-2.5-2.8-4.3-3.2c-1.8-0.4-3.7-0.2-5.3,0.8l-71.7,43.2c-3.3,2-4.4,6.2-2.4,9.5
	l35.9,61c-1.9,1.2-3.2,3.3-3.2,5.6l-31.4,0.6L403,355h0c0-3.2-2.2-6-5.4-6.8s-6.4,0.7-7.9,3.5L350,428.5c-1.2,2.1-1.2,4.7,0,6.8
	l42.1,70.1v0c1.3,2.1,3.5,3.4,6,3.4c0.6,0.1,1.3,0.1,1.9,0c3-0.9,5.1-3.6,5.1-6.8v-25.6h36.7c10.7-0.5,20.4-6.4,25.8-15.6
	c5.9-10.2,36.4-60.9,48.7-81.3c0.8-1.1,1.5-2.4,2.2-3.6c1.4-2.4,2.4-4,2.7-4.6c2-2.9,10-16.5,0.7-40.6L521.5,329.7z M455.6,453.6
	c-2.9,4.8-7.9,7.9-13.6,8.3l-43.7,0.3c-1.9,0-3.6,0.7-4.9,2.1c-1.3,1.3-2,3.1-2,4.9v7.3l-27.1-45.4l24.4-47.3v7.8
	c0,1.9,0.7,3.7,2.1,5c1.4,1.3,3.2,2,5,2.1l57-1l29.2-0.9c2.7,0,5.3-0.2,8-0.7C476.4,418.8,459.9,446.4,455.6,453.6L455.6,453.6z
	 M510,362.9l-0.4,0.7l-4.9,8.1c-5.5,7-13.9,11.1-22.7,11.2l-25.5,1l-39.2-67.2l59.7-36l32.4,55.5c6.7,18.1,0.8,26.8,0.7,27
	L510,362.9z"/>
<path class="st0" d="M336.8,378.5h-76.9l18.5-32.9l25.8,15.4l0,0c2.8,1.7,6.3,1.2,8.6-1.1c2.3-2.3,2.6-5.9,0.9-8.6l-46.4-72.9
	c-1.3-2-3.5-3.2-5.9-3.2l-81.8,0.9l0,0c-3.2,0-5.9,2.2-6.7,5.2c-0.8,3,0.5,6.3,3.2,7.8l22,12.8l-18.4,31.9h0
	c-4.9,9.4-4.7,20.5,0.3,29.8c7.1,12.5,47.4,86.6,50.4,91.6c1.4,3.1,9.1,16.8,34.7,21.1h72.8v0c1.9,0,3.7-0.8,5-2.1
	c1.3-1.3,2-3.1,2-5l-1.1-83.7C343.7,381.5,340.6,378.5,336.8,378.5L336.8,378.5z M227.3,420.6c-13.2-24-30.6-56-35.1-64v0
	c-2.7-5-2.8-10.9-0.4-16l21.8-37.9c1.9-3.3,0.8-7.6-2.5-9.5l-6.1-3.6l52.6-0.6l28.6,44.8l-6.7-4l0,0c-1.7-1-3.7-1.3-5.6-0.7
	c-1.8,0.5-3.4,1.7-4.3,3.3l-28,49.7C235,394.2,230.2,407.1,227.3,420.6L227.3,420.6z M266.5,462.2c-18.9-3.1-23.5-12.5-23.6-12.8
	l-0.3-0.7c-8.2-15.1,2.7-42.8,9.5-56h77.8l0.8,69.7L266.5,462.2z"/>
</svg>
